<?xml version="1.0" encoding="UTF-8" standalone="no"?>
<svg
   xmlns:dc="http://purl.org/dc/elements/1.1/"
   xmlns:cc="http://creativecommons.org/ns#"
   xmlns:rdf="http://www.w3.org/1999/02/22-rdf-syntax-ns#"
   xmlns:svg="http://www.w3.org/2000/svg"
   xmlns="http://www.w3.org/2000/svg"
   xmlns:sodipodi="http://sodipodi.sourceforge.net/DTD/sodipodi-0.dtd"
   xmlns:inkscape="http://www.inkscape.org/namespaces/inkscape"
   version="1.1"
   id="svg8252"
   viewBox="0 0 557.8187 448.72222"
   height="126.63938mm"
   width="157.42883mm"
   inkscape:version="0.91 r13725"
   sodipodi:docname="cover_along_wall.svg">
  <sodipodi:namedview
     pagecolor="#ffffff"
     bordercolor="#666666"
     borderopacity="1"
     objecttolerance="10"
     gridtolerance="10"
     guidetolerance="10"
     inkscape:pageopacity="0"
     inkscape:pageshadow="2"
     inkscape:window-width="1366"
     inkscape:window-height="720"
     id="namedview3556"
     showgrid="false"
     inkscape:zoom="1.2301597"
     inkscape:cx="159.12687"
     inkscape:cy="281.71203"
     inkscape:window-x="0"
     inkscape:window-y="0"
     inkscape:window-maximized="1"
     inkscape:current-layer="svg8252" />
  <defs
     id="defs8254">
    <marker
       inkscape:isstock="true"
       style="overflow:visible"
       id="marker6803"
       refX="0.0"
       refY="0.0"
       orient="auto"
       inkscape:stockid="Arrow1Lstart">
      <path
         transform="scale(0.8) translate(12.5,0)"
         style="fill-rule:evenodd;stroke:#000000;stroke-width:1pt;stroke-opacity:1;fill:#000000;fill-opacity:1"
         d="M 0.0,0.0 L 5.0,-5.0 L -12.5,0.0 L 5.0,5.0 L 0.0,0.0 z "
         id="path6805" />
    </marker>
    <marker
       inkscape:isstock="true"
       style="overflow:visible"
       id="marker6731"
       refX="0.0"
       refY="0.0"
       orient="auto"
       inkscape:stockid="Arrow1Lstart">
      <path
         transform="scale(0.8) translate(12.5,0)"
         style="fill-rule:evenodd;stroke:#000000;stroke-width:1pt;stroke-opacity:1;fill:#000000;fill-opacity:1"
         d="M 0.0,0.0 L 5.0,-5.0 L -12.5,0.0 L 5.0,5.0 L 0.0,0.0 z "
         id="path6733" />
    </marker>
    <marker
       inkscape:stockid="Arrow1Lstart"
       orient="auto"
       refY="0.0"
       refX="0.0"
       id="marker6191"
       style="overflow:visible"
       inkscape:isstock="true">
      <path
         id="path6193"
         d="M 0.0,0.0 L 5.0,-5.0 L -12.5,0.0 L 5.0,5.0 L 0.0,0.0 z "
         style="fill-rule:evenodd;stroke:#000000;stroke-width:1pt;stroke-opacity:1;fill:#000000;fill-opacity:1"
         transform="scale(0.8) translate(12.5,0)" />
    </marker>
    <marker
       inkscape:stockid="Arrow1Lstart"
       orient="auto"
       refY="0.0"
       refX="0.0"
       id="marker4855"
       style="overflow:visible"
       inkscape:isstock="true"
       inkscape:collect="always">
      <path
         id="path4857"
         d="M 0.0,0.0 L 5.0,-5.0 L -12.5,0.0 L 5.0,5.0 L 0.0,0.0 z "
         style="fill-rule:evenodd;stroke:#000000;stroke-width:1pt;stroke-opacity:1;fill:#000000;fill-opacity:1"
         transform="scale(0.8) translate(12.5,0)" />
    </marker>
    <marker
       inkscape:isstock="true"
       style="overflow:visible"
       id="marker4809"
       refX="0.0"
       refY="0.0"
       orient="auto"
       inkscape:stockid="Arrow1Lstart"
       inkscape:collect="always">
      <path
         transform="scale(0.8) translate(12.5,0)"
         style="fill-rule:evenodd;stroke:#000000;stroke-width:1pt;stroke-opacity:1;fill:#000000;fill-opacity:1"
         d="M 0.0,0.0 L 5.0,-5.0 L -12.5,0.0 L 5.0,5.0 L 0.0,0.0 z "
         id="path4811" />
    </marker>
    <marker
       inkscape:stockid="Arrow1Lstart"
       orient="auto"
       refY="0.0"
       refX="0.0"
       id="Arrow1Lstart"
       style="overflow:visible"
       inkscape:isstock="true"
       inkscape:collect="always">
      <path
         id="path4503"
         d="M 0.0,0.0 L 5.0,-5.0 L -12.5,0.0 L 5.0,5.0 L 0.0,0.0 z "
         style="fill-rule:evenodd;stroke:#000000;stroke-width:1pt;stroke-opacity:1;fill:#000000;fill-opacity:1"
         transform="scale(0.8) translate(12.5,0)" />
    </marker>
    <marker
       style="overflow:visible"
       id="Arrow2Lend"
       refX="0"
       refY="0"
       orient="auto">
      <path
         transform="matrix(-1.1,0,0,-1.1,-1.1,0)"
         d="M 8.7185878,4.0337352 -2.2072895,0.01601326 8.7185884,-4.0017078 c -1.7454984,2.3720609 -1.7354408,5.6174519 -6e-7,8.035443 z"
         style="fill:#000000;fill-opacity:1;fill-rule:evenodd;stroke:#000000;stroke-width:0.625;stroke-linejoin:round;stroke-opacity:1"
         id="path4256" />
    </marker>
    <marker
       style="overflow:visible"
       id="marker7622"
       refX="0"
       refY="0"
       orient="auto">
      <path
         transform="matrix(-1.1,0,0,-1.1,-1.1,0)"
         d="M 8.7185878,4.0337352 -2.2072895,0.01601326 8.7185884,-4.0017078 c -1.7454984,2.3720609 -1.7354408,5.6174519 -6e-7,8.035443 z"
         style="fill:#000000;fill-opacity:1;fill-rule:evenodd;stroke:#000000;stroke-width:0.625;stroke-linejoin:round;stroke-opacity:1"
         id="path7624" />
    </marker>
    <marker
       orient="auto"
       refY="0"
       refX="0"
       id="marker7556"
       style="overflow:visible">
      <path
         id="path7558"
         style="fill:#000000;fill-opacity:1;fill-rule:evenodd;stroke:#000000;stroke-width:0.625;stroke-linejoin:round;stroke-opacity:1"
         d="M 8.7185878,4.0337352 -2.2072895,0.01601326 8.7185884,-4.0017078 c -1.7454984,2.3720609 -1.7354408,5.6174519 -6e-7,8.035443 z"
         transform="matrix(-1.1,0,0,-1.1,-1.1,0)" />
    </marker>
  </defs>
  <metadata
     id="metadata8257">
    <rdf:RDF>
      <cc:Work
         rdf:about="">
        <dc:format>image/svg+xml</dc:format>
        <dc:type
           rdf:resource="http://purl.org/dc/dcmitype/StillImage" />
        <dc:title></dc:title>
      </cc:Work>
    </rdf:RDF>
  </metadata>
  <rect
     y="150.26364"
     x="15.838871"
     height="265.45065"
     width="195.60774"
     id="rect8223"
     style="opacity:1;fill:#801919;fill-opacity:1;stroke:none;stroke-width:5.73799992;stroke-miterlimit:4;stroke-dasharray:none;stroke-opacity:1" />
  <rect
     style="opacity:1;fill:#801919;fill-opacity:1;stroke:none;stroke-width:5.73799992;stroke-miterlimit:4;stroke-dasharray:none;stroke-opacity:1"
     id="rect5185"
     width="326.48505"
     height="202.85715"
     x="204.43227"
     y="212.85713" />
  <rect
     style="opacity:1;fill:#a0c8a0;fill-opacity:1;stroke:none;stroke-width:5.73799992;stroke-miterlimit:4;stroke-dasharray:none;stroke-opacity:1"
     id="rect5181"
     width="513.65192"
     height="135.71428"
     x="16.428566"
     y="17.142866" />
  <g
     id="g8484"
     transform="translate(-23.57143,-13.07649)">
    <path
       inkscape:connector-curvature="0"
       style="fill:none;fill-rule:evenodd;stroke:#000000;stroke-width:1.07659709px;stroke-linecap:butt;stroke-linejoin:miter;stroke-opacity:1"
       d="m 55.71428,13.07649 0,448.72222"
       id="path3338" />
    <path
       inkscape:connector-curvature="0"
       id="path3340"
       d="m 115.71428,13.07649 0,448.72222"
       style="fill:none;fill-rule:evenodd;stroke:#000000;stroke-width:1.07659709px;stroke-linecap:butt;stroke-linejoin:miter;stroke-opacity:1" />
    <path
       inkscape:connector-curvature="0"
       style="fill:none;fill-rule:evenodd;stroke:#000000;stroke-width:1.07659709px;stroke-linecap:butt;stroke-linejoin:miter;stroke-opacity:1"
       d="m 175.71428,13.07649 0,448.72222"
       id="path3342" />
    <path
       inkscape:connector-curvature="0"
       id="path3344"
       d="m 235.71428,13.07649 0,448.72222"
       style="fill:none;fill-rule:evenodd;stroke:#000000;stroke-width:1.07659709px;stroke-linecap:butt;stroke-linejoin:miter;stroke-opacity:1" />
    <path
       inkscape:connector-curvature="0"
       style="fill:none;fill-rule:evenodd;stroke:#000000;stroke-width:1.07659709px;stroke-linecap:butt;stroke-linejoin:miter;stroke-opacity:1"
       d="m 295.71428,13.07649 0,448.72222"
       id="path3346" />
    <path
       inkscape:connector-curvature="0"
       style="fill:none;fill-rule:evenodd;stroke:#000000;stroke-width:1.07659709px;stroke-linecap:butt;stroke-linejoin:miter;stroke-opacity:1"
       d="m 355.71428,13.07649 0,448.72222"
       id="path3348" />
    <path
       inkscape:connector-curvature="0"
       id="path3350"
       d="m 415.71428,13.07649 0,448.72222"
       style="fill:none;fill-rule:evenodd;stroke:#000000;stroke-width:1.07659709px;stroke-linecap:butt;stroke-linejoin:miter;stroke-opacity:1" />
    <path
       inkscape:connector-curvature="0"
       style="fill:none;fill-rule:evenodd;stroke:#000000;stroke-width:1.07659709px;stroke-linecap:butt;stroke-linejoin:miter;stroke-opacity:1"
       d="m 475.71428,13.07649 0,448.72222"
       id="path3352" />
    <path
       inkscape:connector-curvature="0"
       id="path3354"
       d="m 535.71428,13.07649 0,448.72222"
       style="fill:none;fill-rule:evenodd;stroke:#000000;stroke-width:1.07659709px;stroke-linecap:butt;stroke-linejoin:miter;stroke-opacity:1" />
    <path
       inkscape:connector-curvature="0"
       id="path3362"
       d="m 581.39012,45.219343 -557.81869,0"
       style="fill:none;fill-rule:evenodd;stroke:#000000;stroke-width:1.20035839px;stroke-linecap:butt;stroke-linejoin:miter;stroke-opacity:1" />
    <path
       inkscape:connector-curvature="0"
       style="fill:none;fill-rule:evenodd;stroke:#000000;stroke-width:1.20035839px;stroke-linecap:butt;stroke-linejoin:miter;stroke-opacity:1"
       d="m 581.39012,105.21934 -557.81869,0"
       id="path3364" />
    <path
       inkscape:connector-curvature="0"
       id="path3366"
       d="m 581.39012,165.21934 -557.81869,0"
       style="fill:none;fill-rule:evenodd;stroke:#000000;stroke-width:1.20035839px;stroke-linecap:butt;stroke-linejoin:miter;stroke-opacity:1" />
    <path
       inkscape:connector-curvature="0"
       style="fill:none;fill-rule:evenodd;stroke:#000000;stroke-width:1.20035839px;stroke-linecap:butt;stroke-linejoin:miter;stroke-opacity:1"
       d="m 581.39012,225.21934 -557.81869,0"
       id="path3368" />
    <path
       inkscape:connector-curvature="0"
       id="path3370"
       d="m 581.39012,285.21934 -557.81869,0"
       style="fill:none;fill-rule:evenodd;stroke:#000000;stroke-width:1.20035839px;stroke-linecap:butt;stroke-linejoin:miter;stroke-opacity:1" />
    <path
       inkscape:connector-curvature="0"
       id="path3372"
       d="m 581.39012,345.21934 -557.81869,0"
       style="fill:none;fill-rule:evenodd;stroke:#000000;stroke-width:1.20035839px;stroke-linecap:butt;stroke-linejoin:miter;stroke-opacity:1" />
    <path
       inkscape:connector-curvature="0"
       style="fill:none;fill-rule:evenodd;stroke:#000000;stroke-width:1.20035839px;stroke-linecap:butt;stroke-linejoin:miter;stroke-opacity:1"
       d="m 581.39012,405.21934 -557.81869,0"
       id="path3374" />
  </g>
  <rect
     style="opacity:1;fill:#000000;fill-opacity:1;stroke:none;stroke-width:2;stroke-miterlimit:4;stroke-dasharray:none;stroke-opacity:1"
     id="rect5069"
     width="312.6817"
     height="52.139248"
     x="215.18776"
     y="155.00996" />
  <circle
     r="22.857143"
     cy="300"
     cx="360.14285"
     id="circle3427"
     style="opacity:1;fill:#800042;fill-opacity:1;stroke:#000000;stroke-width:1;stroke-miterlimit:4;stroke-dasharray:none;stroke-opacity:1" />
  <path
     inkscape:connector-curvature="0"
     style="fill:none;fill-rule:evenodd;stroke:#000000;stroke-width:2.57043076;stroke-linecap:butt;stroke-linejoin:miter;stroke-miterlimit:4;stroke-dasharray:none;stroke-opacity:1;marker-start:url(#marker4855)"
     d="M 351.31833,266.76644 303.24054,142.77817"
     id="path3429"
     sodipodi:nodetypes="cc" />
  <g
     id="g8970"
     transform="translate(-23.57143,-13.07649)">
    <rect
       y="358.94156"
       x="331.42856"
       height="40"
       width="192.85715"
       id="rect7526"
       style="opacity:1;fill:#ffffff;fill-opacity:0.51020406;stroke:none;stroke-width:5.73799992;stroke-miterlimit:4;stroke-dasharray:none;stroke-opacity:1" />
    <g
       id="flowRoot7528"
       style="font-style:normal;font-variant:normal;font-weight:normal;font-stretch:normal;font-size:40px;line-height:125%;font-family:Lekton;-inkscape-font-specification:Lekton;letter-spacing:0px;word-spacing:0px;fill:#000000;fill-opacity:1;stroke:none;stroke-width:1px;stroke-linecap:butt;stroke-linejoin:miter;stroke-opacity:1"
       transform="translate(314.28571,6.57939)">
      <path
         inkscape:connector-curvature="0"
         id="path8911"
         style="font-size:25px;fill:#000000"
         d="m 67.789844,380.08594 0,-1.25 3.65,0 0,-9.375 -3.65,0 0,-1.25 4.975,0 0,10.625 3.65,0 0,1.25 -8.625,0 z m 3.125,-15.4 q 0,-0.5 0.275,-0.775 0.3,-0.275 0.8,-0.275 1.025,0 1.025,1.1 0,1.1 -1.025,1.075 -1.075,0 -1.075,-1.125 z" />
      <path
         inkscape:connector-curvature="0"
         id="path8913"
         style="font-size:25px;fill:#000000"
         d="m 80.339844,368.21094 0.075,0.75 q 1.25,-0.9 1.925,-0.9 1.65,0 2.275,1.075 1.4,-1.075 2.45,-1.075 1.625,0 2.225,1 0.6,1 0.6,3.075 l 0,7.95 -1.325,0 0,-7.95 q 0,-1.425 -0.3,-2.1 -0.3,-0.7 -1.15,-0.7 -0.85,0 -2.1,0.8 0.15,0.85 0.15,2 l 0,4.15 -1.325,0 0,-4.15 q 0,-1.425 -0.3,-2.1 -0.325,-0.7 -1.175,-0.7 -0.85,0 -1.95,0.8 l 0,9.95 -1.325,0 0,-11.875 1.25,0 z" />
      <path
         inkscape:connector-curvature="0"
         id="path8915"
         style="font-size:25px;fill:#000000"
         d="m 92.639844,384.88594 0,-14.525 -0.225,-2.175 1.25,-0.15 0.225,1.35 q 1.825,-1.325 3.475,-1.325 2.225,0 3.449996,1.625 1.225,1.625 1.225,4.475 0,2.85 -1.35,4.5 -1.349996,1.65 -3.749996,1.65 -1.4,0 -2.975,-0.675 l 0,5.25 -1.325,0 z m 7.974996,-10.675 q 0,-2.225 -0.849996,-3.525 -0.85,-1.325 -2.45,-1.325 -1.575,0 -3.35,1.425 l 0,7.5 q 0.525,0.25 1.425,0.5 0.925,0.225 1.5,0.225 1.775,0 2.75,-1.3 0.974996,-1.3 0.974996,-3.5 z" />
      <path
         inkscape:connector-curvature="0"
         id="path8917"
         style="font-size:25px;fill:#000000"
         d="m 104.68984,374.18594 q 0,-6.125 4.775,-6.125 4.775,0 4.775,6.125 0,6.125 -4.775,6.125 -4.775,0 -4.775,-6.125 z m 4.775,-4.825 q -3.35,0 -3.35,4.825 0,4.825 3.35,4.825 3.35,0 3.35,-4.825 0,-4.825 -3.35,-4.825 z" />
      <path
         inkscape:connector-curvature="0"
         id="path8919"
         style="font-size:25px;fill:#000000"
         d="m 117.66484,379.51094 0.325,-1.3 q 2.475,0.825 3.825,0.825 1.35,0 2.075,-0.575 0.75,-0.6 0.75,-1.575 0,-0.975 -0.6,-1.425 -0.575,-0.475 -2.425,-0.9 -1.85,-0.425 -2.775,-1.225 -0.925,-0.75 -0.925,-2.25 0,-1.5 1.125,-2.275 1.15,-0.8 2.95,-0.8 1.8,0 3.9,0.8 l -0.35,1.175 q -2.125,-0.7 -3.425,-0.7 -1.3,0 -2.05,0.45 -0.75,0.5 -0.75,1.35 0,0.85 0.65,1.325 0.675,0.475 2.575,0.95 1.9,0.475 2.7,1.225 0.8,0.725 0.8,2.3 0,1.575 -1.075,2.5 -1.05,0.925 -3,0.925 -1.95,0 -4.3,-0.8 z" />
      <path
         inkscape:connector-curvature="0"
         id="path8921"
         style="font-size:25px;fill:#000000"
         d="m 130.16484,379.51094 0.325,-1.3 q 2.475,0.825 3.825,0.825 1.35,0 2.075,-0.575 0.75,-0.6 0.75,-1.575 0,-0.975 -0.6,-1.425 -0.575,-0.475 -2.425,-0.9 -1.85,-0.425 -2.775,-1.225 -0.925,-0.75 -0.925,-2.25 0,-1.5 1.125,-2.275 1.15,-0.8 2.95,-0.8 1.8,0 3.9,0.8 l -0.35,1.175 q -2.125,-0.7 -3.425,-0.7 -1.3,0 -2.05,0.45 -0.75,0.5 -0.75,1.35 0,0.85 0.65,1.325 0.675,0.475 2.575,0.95 1.9,0.475 2.7,1.225 0.8,0.725 0.8,2.3 0,1.575 -1.075,2.5 -1.05,0.925 -3,0.925 -1.95,0 -4.3,-0.8 z" />
      <path
         inkscape:connector-curvature="0"
         id="path8923"
         style="font-size:25px;fill:#000000"
         d="m 142.78984,380.08594 0,-1.25 3.65,0 0,-9.375 -3.65,0 0,-1.25 4.975,0 0,10.625 3.65,0 0,1.25 -8.625,0 z m 3.125,-15.4 q 0,-0.5 0.275,-0.775 0.3,-0.275 0.8,-0.275 1.025,0 1.025,1.1 0,1.1 -1.025,1.075 -1.075,0 -1.075,-1.125 z" />
      <path
         inkscape:connector-curvature="0"
         id="path8925"
         style="font-size:25px;fill:#000000"
         d="m 155.13984,380.08594 0,-16.6 1.325,0 0,5.875 q 1.875,-1.3 3.4,-1.3 2.25,0 3.475,1.55 1.225,1.525 1.225,4.375 0,2.85 -1.375,4.6 -1.375,1.725 -3.75,1.725 -1.45,0 -3,-0.725 l -0.05,0.5 -1.25,0 z m 8,-6.075 q 0,-2.2 -0.875,-3.425 -0.85,-1.225 -2.475,-1.225 -1.625,0 -3.325,1.425 l 0,7.5 q 0.525,0.25 1.425,0.5 0.925,0.225 1.5,0.225 1.75,0 2.75,-1.4 1,-1.4 1,-3.6 z" />
      <path
         inkscape:connector-curvature="0"
         id="path8927"
         style="font-size:25px;fill:#000000"
         d="m 168.08984,380.08594 0,-1.25 3.825,0 0,-14.15 -3.725,0.025 -0.025,-1.225 5.075,-0.025 0,15.375 3.95,0 0,1.25 -9.1,0 z" />
      <path
         inkscape:connector-curvature="0"
         id="path8929"
         style="font-size:25px;fill:#000000"
         d="m 179.88984,374.16094 q 0,-2.875 1.175,-4.475 1.2,-1.625 3.475,-1.625 2.275,0 3.375,1.5 1.125,1.5 1.125,4 l -0.075,1.25 -7.65,0 q 0.125,1.875 1,3.05 0.875,1.15 2.4,1.15 1.55,0 3.625,-0.725 l 0.375,1.25 q -2.025,0.775 -3.8,0.775 -2.45,0 -3.75,-1.625 -1.275,-1.65 -1.275,-4.525 z m 4.75,-4.825 q -3.15,0 -3.325,4.225 l 6.3,0 q 0,-4.225 -2.975,-4.225 z" />
    </g>
    <g
       id="g7548"
       transform="translate(477.14285,60.8651)">
      <path
         inkscape:connector-curvature="0"
         id="path7550"
         d="m -135.06398,307.05012 c 11.20212,2.96877 21.03667,10.36484 24.83244,18.16778"
         style="fill:none;fill-rule:evenodd;stroke:#b21300;stroke-width:5.73799992;stroke-linecap:butt;stroke-linejoin:miter;stroke-miterlimit:4;stroke-dasharray:none;stroke-opacity:1" />
      <path
         inkscape:connector-curvature="0"
         id="path7552"
         d="m -133.92051,326.97263 c 7.47709,-9.92912 15.44138,-17.66583 24.56634,-20.17949"
         style="fill:none;fill-rule:evenodd;stroke:#b21300;stroke-width:5.73799992;stroke-linecap:butt;stroke-linejoin:miter;stroke-miterlimit:4;stroke-dasharray:none;stroke-opacity:1" />
    </g>
  </g>
  <circle
     r="22.857143"
     cy="121.57932"
     cx="303.64236"
     id="circle7488"
     style="opacity:1;fill:#00ae78;fill-opacity:1;stroke:#000000;stroke-width:1;stroke-miterlimit:4;stroke-dasharray:none;stroke-opacity:1" />
  <circle
     r="22.857143"
     cy="304.43646"
     cx="122.28568"
     id="circle7500"
     style="opacity:1;fill:#800042;fill-opacity:1;stroke:#000000;stroke-width:1;stroke-miterlimit:4;stroke-dasharray:none;stroke-opacity:1" />
  <circle
     style="opacity:1;fill:#800042;fill-opacity:1;stroke:#000000;stroke-width:1;stroke-miterlimit:4;stroke-dasharray:none;stroke-opacity:1"
     id="circle7506"
     cx="64.857079"
     cy="61.865036"
     r="22.857143" />
  <path
     inkscape:connector-curvature="0"
     style="fill:none;fill-rule:evenodd;stroke:#000000;stroke-width:2.56999993;stroke-linecap:butt;stroke-linejoin:miter;stroke-miterlimit:4;stroke-dasharray:none;stroke-opacity:1;marker-start:url(#Arrow1Lstart)"
     d="M 136.31825,282.97802 296.16909,141.29444"
     id="path7510"
     sodipodi:nodetypes="cc" />
  <path
     inkscape:connector-curvature="0"
     id="path7512"
     d="M 82.03255,65.835166 292.81183,134.04161"
     style="fill:none;fill-rule:evenodd;stroke:#000000;stroke-width:2.57043076;stroke-linecap:butt;stroke-linejoin:miter;stroke-miterlimit:4;stroke-dasharray:none;stroke-opacity:1;marker-start:url(#marker4809)"
     sodipodi:nodetypes="cc" />
  <g
     id="g8987"
     transform="translate(-146.58054,-11.926872)">
    <rect
       style="opacity:1;fill:#ffffff;fill-opacity:0.51020406;stroke:none;stroke-width:5.73799992;stroke-miterlimit:4;stroke-dasharray:none;stroke-opacity:1"
       id="rect7536"
       width="202.85715"
       height="40"
       x="250.71429"
       y="50.37014" />
    <g
       id="flowRoot7538"
       style="font-style:normal;font-variant:normal;font-weight:normal;font-stretch:normal;font-size:40px;line-height:125%;font-family:Lekton;-inkscape-font-specification:Lekton;letter-spacing:0px;word-spacing:0px;fill:#000000;fill-opacity:1;stroke:none;stroke-width:1px;stroke-linecap:butt;stroke-linejoin:miter;stroke-opacity:1"
       transform="translate(229.2857,-303.42067)">
      <path
         inkscape:connector-curvature="0"
         id="path8932"
         style="font-size:25px;fill:#000000"
         d="m 68.889844,368.21094 0.05,1 q 2.425,-1.15 4.025,-1.15 1.6,0 2.5,1.1 0.925,1.1 0.925,3 l 0,7.925 -1.325,0 0,-7.925 q 0,-1.225 -0.6,-2.025 -0.6,-0.775 -1.8,-0.775 -1.2,0 -3.725,1.1 l 0,9.625 -1.325,0 0,-11.875 1.275,0 z" />
      <path
         inkscape:connector-curvature="0"
         id="path8934"
         style="font-size:25px;fill:#000000"
         d="m 79.689844,374.18594 q 0,-6.125 4.775,-6.125 4.775,0 4.775,6.125 0,6.125 -4.775,6.125 -4.775,0 -4.775,-6.125 z m 4.775,-4.825 q -3.35,0 -3.35,4.825 0,4.825 3.35,4.825 3.35,0 3.35,-4.825 0,-4.825 -3.35,-4.825 z" />
      <path
         inkscape:connector-curvature="0"
         id="path8936"
         style="font-size:25px;fill:#000000"
         d="m 92.739844,380.08594 0,-1.25 2.85,0 0,-9.375 -2.85,0 0,-1.25 4.175,0 0.05,1.45 q 0.8,-0.5 2.25,-1 1.449996,-0.5 2.549996,-0.6 l 0.275,0 0,1.475 -0.275,0 q -1.025,0.075 -2.549996,0.5 -1.5,0.425 -2.25,0.875 l 0,7.925 3.999996,0 0,1.25 -8.224996,0 z" />
      <path
         inkscape:connector-curvature="0"
         id="path8938"
         style="font-size:25px;fill:#000000"
         d="m 105.33984,368.21094 0.075,0.75 q 1.25,-0.9 1.925,-0.9 1.65,0 2.275,1.075 1.4,-1.075 2.45,-1.075 1.625,0 2.225,1 0.6,1 0.6,3.075 l 0,7.95 -1.325,0 0,-7.95 q 0,-1.425 -0.3,-2.1 -0.3,-0.7 -1.15,-0.7 -0.85,0 -2.1,0.8 0.15,0.85 0.15,2 l 0,4.15 -1.325,0 0,-4.15 q 0,-1.425 -0.3,-2.1 -0.325,-0.7 -1.175,-0.7 -0.85,0 -1.95,0.8 l 0,9.95 -1.325,0 0,-11.875 1.25,0 z" />
      <path
         inkscape:connector-curvature="0"
         id="path8940"
         style="font-size:25px;fill:#000000"
         d="m 121.16484,379.01094 q 0.925,0 2,-0.575 1.1,-0.6 1.6,-1.1 l 0,-2.975 q -1.65,-0.125 -3.15,-0.125 -1.5,0 -2.25,0.65 -0.75,0.625 -0.75,1.7 0,2.425 2.55,2.425 z m -0.025,1.3 q -1.825,0 -2.875,-0.925 -1.05,-0.95 -1.05,-2.675 0,-1.725 1.15,-2.675 1.15,-0.975 3.05,-0.975 1.9,0 3.35,0.15 0,-2.225 -0.55,-3.025 -0.55,-0.825 -2.225,-0.825 -1.675,0 -3.95,0.8 l -0.375,-1.25 q 2.325,-0.85 4.2,-0.85 2.475,0 3.35,1.1 0.875,1.1 0.875,3.85 l 0,5.25 0.2,1.9 -1.275,0.125 -0.25,-1.5 q -0.575,0.5 -1.625,1.025 -1.05,0.5 -2,0.5 z" />
      <path
         inkscape:connector-curvature="0"
         id="path8942"
         style="font-size:25px;fill:#000000"
         d="m 130.58984,380.08594 0,-1.25 3.825,0 0,-14.15 -3.725,0.025 -0.025,-1.225 5.075,-0.025 0,15.375 3.95,0 0,1.25 -9.1,0 z" />
      <path
         inkscape:connector-curvature="0"
         id="path8944"
         style="font-size:25px;fill:#000000"
         d="m 154.61484,369.78594 0,-1.25 2.425,0 0,-3.025 1.325,-0.25 0,3.275 5.725,0 0,1.25 -5.725,0 0,5.7 q 0,1.9 0.55,2.75 0.575,0.825 2.025,0.825 0.55,0 1.7,-0.175 1.15,-0.2 1.575,-0.35 l 0.3,1.225 q -0.475,0.175 -1.75,0.375 -1.25,0.2 -1.825,0.2 -2.25,0 -3.075,-1.175 -0.825,-1.2 -0.825,-3.625 l 0,-5.75 -2.425,0 z" />
      <path
         inkscape:connector-curvature="0"
         id="path8946"
         style="font-size:25px;fill:#000000"
         d="m 168.98984,370.38594 0,9.7 -1.325,0 0,-16.6 1.325,0 0,5.625 q 2.35,-1.05 3.875,-1.05 3.575,0 3.575,4.1 l 0,7.925 -1.325,0 0,-7.925 q 0,-1.275 -0.55,-2.025 -0.55,-0.775 -1.9,-0.775 -1.35,0 -3.675,1.025 z" />
      <path
         inkscape:connector-curvature="0"
         id="path8948"
         style="font-size:25px;fill:#000000"
         d="m 180.23984,380.08594 0,-1.25 2.85,0 0,-9.375 -2.85,0 0,-1.25 4.175,0 0.05,1.45 q 0.8,-0.5 2.25,-1 1.45,-0.5 2.55,-0.6 l 0.275,0 0,1.475 -0.275,0 q -1.025,0.075 -2.55,0.5 -1.5,0.425 -2.25,0.875 l 0,7.925 4,0 0,1.25 -8.225,0 z" />
      <path
         inkscape:connector-curvature="0"
         id="path8950"
         style="font-size:25px;fill:#000000"
         d="m 192.18984,374.18594 q 0,-6.125 4.775,-6.125 4.775,0 4.775,6.125 0,6.125 -4.775,6.125 -4.775,0 -4.775,-6.125 z m 4.775,-4.825 q -3.35,0 -3.35,4.825 0,4.825 3.35,4.825 3.35,0 3.35,-4.825 0,-4.825 -3.35,-4.825 z" />
      <path
         inkscape:connector-curvature="0"
         id="path8952"
         style="font-size:25px;fill:#000000"
         d="m 213.53984,368.21094 1.3,0 -1.425,11.875 -2.65,0 -1.275,-5.175 -0.1,0 -1.3,5.175 -2.625,0 -1.375,-11.875 1.3,0 1.3,10.675 0.45,0 1.675,-6.025 1.3,0 1.675,6.025 0.45,0 1.3,-10.675 z" />
    </g>
    <path
       inkscape:connector-curvature="0"
       style="fill:none;fill-rule:evenodd;stroke:#00af22;stroke-width:8.09200001;stroke-linecap:butt;stroke-linejoin:miter;stroke-miterlimit:4;stroke-dasharray:none;stroke-opacity:1"
       d="m 258.18835,70.96602 8.53572,9.10476 c 0,0 8.53571,-15.93333 14.79523,-22.19285"
       id="path7546" />
  </g>
  <circle
     cy="133.75926"
     cx="299.88187"
     id="circle5157"
     style="opacity:1;fill:#ffffa0;fill-opacity:1;stroke:#000000;stroke-width:1;stroke-miterlimit:4;stroke-dasharray:none;stroke-opacity:1"
     r="12.857143" />
  <g
     transform="translate(-290.20347,-18.766808)"
     id="g8225">
    <rect
       style="opacity:1;fill:#ffffff;fill-opacity:0.51020406;stroke:none;stroke-width:5.73799992;stroke-miterlimit:4;stroke-dasharray:none;stroke-opacity:1"
       id="rect8227"
       width="192.85715"
       height="40"
       x="331.42856"
       y="358.94156" />
    <g
       transform="translate(314.28571,6.57939)"
       style="font-style:normal;font-variant:normal;font-weight:normal;font-stretch:normal;font-size:40px;line-height:125%;font-family:Lekton;-inkscape-font-specification:Lekton;letter-spacing:0px;word-spacing:0px;fill:#000000;fill-opacity:1;stroke:none;stroke-width:1px;stroke-linecap:butt;stroke-linejoin:miter;stroke-opacity:1"
       id="g8229">
      <path
         d="m 67.789844,380.08594 0,-1.25 3.65,0 0,-9.375 -3.65,0 0,-1.25 4.975,0 0,10.625 3.65,0 0,1.25 -8.625,0 z m 3.125,-15.4 q 0,-0.5 0.275,-0.775 0.3,-0.275 0.8,-0.275 1.025,0 1.025,1.1 0,1.1 -1.025,1.075 -1.075,0 -1.075,-1.125 z"
         style="font-size:25px;fill:#000000"
         id="path8231"
         inkscape:connector-curvature="0" />
      <path
         d="m 80.339844,368.21094 0.075,0.75 q 1.25,-0.9 1.925,-0.9 1.65,0 2.275,1.075 1.4,-1.075 2.45,-1.075 1.625,0 2.225,1 0.6,1 0.6,3.075 l 0,7.95 -1.325,0 0,-7.95 q 0,-1.425 -0.3,-2.1 -0.3,-0.7 -1.15,-0.7 -0.85,0 -2.1,0.8 0.15,0.85 0.15,2 l 0,4.15 -1.325,0 0,-4.15 q 0,-1.425 -0.3,-2.1 -0.325,-0.7 -1.175,-0.7 -0.85,0 -1.95,0.8 l 0,9.95 -1.325,0 0,-11.875 1.25,0 z"
         style="font-size:25px;fill:#000000"
         id="path8233"
         inkscape:connector-curvature="0" />
      <path
         d="m 92.639844,384.88594 0,-14.525 -0.225,-2.175 1.25,-0.15 0.225,1.35 q 1.825,-1.325 3.475,-1.325 2.225,0 3.449996,1.625 1.225,1.625 1.225,4.475 0,2.85 -1.35,4.5 -1.349996,1.65 -3.749996,1.65 -1.4,0 -2.975,-0.675 l 0,5.25 -1.325,0 z m 7.974996,-10.675 q 0,-2.225 -0.849996,-3.525 -0.85,-1.325 -2.45,-1.325 -1.575,0 -3.35,1.425 l 0,7.5 q 0.525,0.25 1.425,0.5 0.925,0.225 1.5,0.225 1.775,0 2.75,-1.3 0.974996,-1.3 0.974996,-3.5 z"
         style="font-size:25px;fill:#000000"
         id="path8235"
         inkscape:connector-curvature="0" />
      <path
         d="m 104.68984,374.18594 q 0,-6.125 4.775,-6.125 4.775,0 4.775,6.125 0,6.125 -4.775,6.125 -4.775,0 -4.775,-6.125 z m 4.775,-4.825 q -3.35,0 -3.35,4.825 0,4.825 3.35,4.825 3.35,0 3.35,-4.825 0,-4.825 -3.35,-4.825 z"
         style="font-size:25px;fill:#000000"
         id="path8237"
         inkscape:connector-curvature="0" />
      <path
         d="m 117.66484,379.51094 0.325,-1.3 q 2.475,0.825 3.825,0.825 1.35,0 2.075,-0.575 0.75,-0.6 0.75,-1.575 0,-0.975 -0.6,-1.425 -0.575,-0.475 -2.425,-0.9 -1.85,-0.425 -2.775,-1.225 -0.925,-0.75 -0.925,-2.25 0,-1.5 1.125,-2.275 1.15,-0.8 2.95,-0.8 1.8,0 3.9,0.8 l -0.35,1.175 q -2.125,-0.7 -3.425,-0.7 -1.3,0 -2.05,0.45 -0.75,0.5 -0.75,1.35 0,0.85 0.65,1.325 0.675,0.475 2.575,0.95 1.9,0.475 2.7,1.225 0.8,0.725 0.8,2.3 0,1.575 -1.075,2.5 -1.05,0.925 -3,0.925 -1.95,0 -4.3,-0.8 z"
         style="font-size:25px;fill:#000000"
         id="path8239"
         inkscape:connector-curvature="0" />
      <path
         d="m 130.16484,379.51094 0.325,-1.3 q 2.475,0.825 3.825,0.825 1.35,0 2.075,-0.575 0.75,-0.6 0.75,-1.575 0,-0.975 -0.6,-1.425 -0.575,-0.475 -2.425,-0.9 -1.85,-0.425 -2.775,-1.225 -0.925,-0.75 -0.925,-2.25 0,-1.5 1.125,-2.275 1.15,-0.8 2.95,-0.8 1.8,0 3.9,0.8 l -0.35,1.175 q -2.125,-0.7 -3.425,-0.7 -1.3,0 -2.05,0.45 -0.75,0.5 -0.75,1.35 0,0.85 0.65,1.325 0.675,0.475 2.575,0.95 1.9,0.475 2.7,1.225 0.8,0.725 0.8,2.3 0,1.575 -1.075,2.5 -1.05,0.925 -3,0.925 -1.95,0 -4.3,-0.8 z"
         style="font-size:25px;fill:#000000"
         id="path8241"
         inkscape:connector-curvature="0" />
      <path
         d="m 142.78984,380.08594 0,-1.25 3.65,0 0,-9.375 -3.65,0 0,-1.25 4.975,0 0,10.625 3.65,0 0,1.25 -8.625,0 z m 3.125,-15.4 q 0,-0.5 0.275,-0.775 0.3,-0.275 0.8,-0.275 1.025,0 1.025,1.1 0,1.1 -1.025,1.075 -1.075,0 -1.075,-1.125 z"
         style="font-size:25px;fill:#000000"
         id="path8243"
         inkscape:connector-curvature="0" />
      <path
         d="m 155.13984,380.08594 0,-16.6 1.325,0 0,5.875 q 1.875,-1.3 3.4,-1.3 2.25,0 3.475,1.55 1.225,1.525 1.225,4.375 0,2.85 -1.375,4.6 -1.375,1.725 -3.75,1.725 -1.45,0 -3,-0.725 l -0.05,0.5 -1.25,0 z m 8,-6.075 q 0,-2.2 -0.875,-3.425 -0.85,-1.225 -2.475,-1.225 -1.625,0 -3.325,1.425 l 0,7.5 q 0.525,0.25 1.425,0.5 0.925,0.225 1.5,0.225 1.75,0 2.75,-1.4 1,-1.4 1,-3.6 z"
         style="font-size:25px;fill:#000000"
         id="path8245"
         inkscape:connector-curvature="0" />
      <path
         d="m 168.08984,380.08594 0,-1.25 3.825,0 0,-14.15 -3.725,0.025 -0.025,-1.225 5.075,-0.025 0,15.375 3.95,0 0,1.25 -9.1,0 z"
         style="font-size:25px;fill:#000000"
         id="path8247"
         inkscape:connector-curvature="0" />
      <path
         d="m 179.88984,374.16094 q 0,-2.875 1.175,-4.475 1.2,-1.625 3.475,-1.625 2.275,0 3.375,1.5 1.125,1.5 1.125,4 l -0.075,1.25 -7.65,0 q 0.125,1.875 1,3.05 0.875,1.15 2.4,1.15 1.55,0 3.625,-0.725 l 0.375,1.25 q -2.025,0.775 -3.8,0.775 -2.45,0 -3.75,-1.625 -1.275,-1.65 -1.275,-4.525 z m 4.75,-4.825 q -3.15,0 -3.325,4.225 l 6.3,0 q 0,-4.225 -2.975,-4.225 z"
         style="font-size:25px;fill:#000000"
         id="path8249"
         inkscape:connector-curvature="0" />
    </g>
    <g
       transform="translate(477.14285,60.8651)"
       id="g8251">
      <path
         style="fill:none;fill-rule:evenodd;stroke:#b21300;stroke-width:5.73799992;stroke-linecap:butt;stroke-linejoin:miter;stroke-miterlimit:4;stroke-dasharray:none;stroke-opacity:1"
         d="m -135.06398,307.05012 c 11.20212,2.96877 21.03667,10.36484 24.83244,18.16778"
         id="path8253"
         inkscape:connector-curvature="0" />
      <path
         style="fill:none;fill-rule:evenodd;stroke:#b21300;stroke-width:5.73799992;stroke-linecap:butt;stroke-linejoin:miter;stroke-miterlimit:4;stroke-dasharray:none;stroke-opacity:1"
         d="m -133.92051,326.97263 c 7.47709,-9.92912 15.44138,-17.66583 24.56634,-20.17949"
         id="path8255"
         inkscape:connector-curvature="0" />
    </g>
  </g>
</svg>
