<?xml version="1.0" encoding="UTF-8" standalone="no"?>
<svg
   xmlns:dc="http://purl.org/dc/elements/1.1/"
   xmlns:cc="http://creativecommons.org/ns#"
   xmlns:rdf="http://www.w3.org/1999/02/22-rdf-syntax-ns#"
   xmlns:svg="http://www.w3.org/2000/svg"
   xmlns="http://www.w3.org/2000/svg"
   width="40.190403mm"
   height="40.547997mm"
   viewBox="0 0 142.40694 143.67401"
   id="svg2"
   version="1.1">
  <defs
     id="defs4">
    <clipPath
       clipPathUnits="userSpaceOnUse"
       id="clipPath4202">
      <path
         id="path4204"
         d="m -1086.1454,-104.93604 c -19.223,0.33433 -49.5058,5.273073 -75.8199,28.269481 -40.1217,-31.899231 -86.3893,-25.403321 -94.9628,-22.821169 -8.8995,2.680321 -77.6121,16.512897 -76.3576,109.575844 1.1611,86.13619 173.9949,231.138734 179.481,236.400724 7.8029,-6.07705 167.31076,-156.854071 167.33292,-244.7183749 0.0244,-90.0467611 -72.83542,-103.9957851 -81.72492,-105.5692751 -2.7555,-0.4877 -9.2111,-1.28921 -17.9487,-1.13723 z m -137.8407,21.679124 4.4871,0.49488 0.3569,4.491911 4.3065,0.528189 2.0318,-4.601362 4.3824,1.065866 -0.2095,4.496678 4.1397,1.056356 2.5266,-4.320608 4.2207,1.5988 -0.7709,4.43958 4.0353,1.57979 3.1167,-3.944702 3.978,2.122245 -1.3275,4.30633 3.5591,1.974707 3.3119,-3.654436 3.7069,2.579047 -1.8321,4.115994 3.5306,2.517173 3.9829,-3.069138 3.345,3.026328 -2.3316,3.854283 3.1358,2.897834 4.2825,-2.583791 2.9454,3.416523 -2.7931,3.530708 2.7885,3.316572 4.6202,-1.979484 2.484,3.763887 -3.2166,3.150023 2.3601,3.668702 4.844,-1.351354 1.9842,4.05413 -3.5972,2.712264 1.8652,3.911391 4.9724,-0.751812 1.4609,4.273009 -3.9113,2.231685 1.3322,4.058885 5.0059,-0.180781 0.9089,4.415781 -4.1541,1.73205 0.8278,4.253999 5.0012,0.5138788 0.3472,4.4966782 -4.3395,1.1895946 0.2193,3.61160417 4.8774,1.10869799 -0.1754,4.50617784 -4.4537,0.6756939 -0.2194,4.3301075 4.725,1.698751 -0.7423,4.453847 -4.5013,0.104751 -0.7613,4.206423 4.4917,2.217385 -1.3036,4.320608 -4.4776,-0.452059 -1.2896,4.139793 4.1541,2.821737 -1.837,4.125483 -4.3823,-1.018257 -1.8224,3.963711 3.7448,3.349893 -2.3459,3.859028 -4.2206,-1.570257 -2.2889,3.678235 3.307,3.782886 -2.8122,3.53073 -3.9875,-2.09369 -2.7028,3.311816 2.8505,4.115995 -3.231,3.150045 -3.6974,-2.569525 -3.1357,2.993019 2.2602,4.487167 -3.6067,2.717008 -3.3404,-3.016795 -3.1835,2.307825 2.0367,4.458558 -3.8924,2.279271 -2.974,-3.383192 -3.7589,2.150777 1.118,4.901128 -4.1539,1.770103 -2.5171,-3.730565 -3.9495,1.627376 0.5566,4.977269 -4.3398,1.23717 -2.0364,-4.016054 -4.178,1.146752 -0.1437,5.024845 -4.4585,0.680461 -1.5085,-4.244478 -4.3205,0.604297 -0.8042,4.962981 -4.5108,0.109406 -0.9564,-4.40627 -4.3303,0.05709 -1.3989,4.824998 -4.4919,-0.461559 -0.3903,-4.487156 -4.2444,-0.490102 -1.9318,4.620373 -4.3967,-1.018301 0.1754,-4.501401 -4.2111,-1.027823 -2.5601,4.325363 -4.2347,-1.570268 0.7421,-4.444313 -4.0065,-1.560735 -3.0359,3.954179 -4.0018,-2.079391 1.2848,-4.315863 -3.8256,-2.041337 -3.5546,3.559273 -3.7019,-2.579036 1.8175,-4.116006 -3.5543,-2.588547 -4.1113,3.002541 -3.3452,-3.03585 2.3364,-3.849539 -3.1833,-2.940655 -4.3349,2.545716 -2.9408,-3.435534 2.8075,-3.51643 -2.7457,-3.278518 -4.5775,2.022293 -2.4887,-3.763876 3.2216,-3.150035 -2.346,-3.640158 -4.8345,1.379942 -1.9936,-4.05413 3.5971,-2.712297 -1.8795,-3.939913 -4.9725,0.723247 -1.4559,-4.268243 3.9112,-2.23644 -1.3609,-4.115972 -5.0246,0.118884 -0.8996,-4.425292 4.1588,-1.722539 -0.8088,-4.19689 -4.9868,-0.442526 -0.3472,-4.501401 4.3443,-1.194372 -0.2903,-4.320619 -4.8962,-1.1419963 0.2241,-4.5061778 4.4586,-0.628107 0.2809,-4.11122769 -4.7157,-1.49412631 0.7663,-4.4443248 4.5013,-0.095218 0.7803,-4.2634991 -4.4678,-2.298293 1.3179,-4.320607 4.4777,0.480602 1.2942,-4.073185 -4.1637,-2.778873 1.8512,-4.120771 4.3823,1.032567 1.8177,-3.930402 -3.7543,-3.345137 2.3505,-3.849539 4.2209,1.57979 2.3171,-3.697257 -3.2736,-3.811451 2.8264,-3.51643 3.9782,2.103178 2.7503,-3.349893 -2.7932,-4.182613 3.25,-3.130991 3.683,2.593302 3.1071,-2.93591 -2.2888,-4.44908 3.6116,-2.702754 3.3357,3.026318 3.4972,-2.560004 -1.6604,-4.74409 3.9209,-2.222162 2.9262,3.426023 3.6069,-1.965196 -1.2657,-4.772666 4.1637,-1.741561 2.4933,3.754343 4.0113,-1.627343 -0.4472,-5.010568 4.349,-1.19435 1.9938,4.035098 4.1352,-1.089688 0.1145,-5.001035 4.4635,-0.647117 1.4798,4.249211 4.3015,-0.57101 0.8042,-4.962992 4.5111,-0.07127 0.9325,4.401516 4.3586,-0.01962 z m -1.9508,22.097907 c -14.7141,0.04412 -28.8868,4.604533 -37.691,11.767441 l 21.7314,26.646883 c 9.9009,-4.518161 16.7001,-5.50803 28.1124,-2.1365 l 13.8802,-31.067409 c -8.1779,-3.638573 -17.2045,-5.236896 -26.033,-5.210415 z m 28.9831,6.614123 -12.5049,31.752625 c 9.2532,5.770373 12.8421,11.136906 16.0025,22.66889439 l 33.8463,-3.50690859 c -2.4979,-23.7387398 -20.3763,-44.4429048 -37.3439,-50.9146108 z m -69.1297,7.26604 c -19.2736,14.081529 -28.7053,40.0528178 -25.7807,57.976026 l 33.9511,-5.1913826 c 0.7857,-11.4144459 3.2561,-17.0629194 11.8626,-25.2812514 z m 41.5692,25.785642 c -0.8975,-0.03547 -1.7965,-0.02583 -2.693,0.02849 -14.8304,0.917276 -26.11,13.6817127 -25.1957,28.5122054 0.9148,14.8321446 13.68,26.1146036 28.5121,25.2003326 14.8304,-0.917264 26.11,-13.681668 25.1957,-28.5121604 -0.8518,-13.7915736 -12.0115,-24.6961316 -25.8191,-25.2288986 z m -0.447,11.5818698 c 7.8599,0.3032348 14.2127,6.5100702 14.6986,14.3607648 0.5227,8.4436744 -5.8983,15.7124634 -14.342,16.2355754 -8.4454,0.519842 -15.7126,-5.905873 -16.2308,-14.3512654 -0.5199,-8.4417786 5.9002,-15.7075192 14.3417,-16.2308087 0.5102,-0.030372 1.0218,-0.035139 1.5325,-0.014521 z m -0.2095,5.3626753 c -0.3299,-0.012193 -0.6604,-0.00665 -0.9897,0.014521 -5.4834,0.3376087 -9.6548,5.05646981 -9.3171,10.5398249 0.3377,5.4833 5.0566,9.654596 10.5399,9.316887 5.4853,-0.337708 9.6571,-5.059496 9.3168,-10.5445467 -0.3152,-5.10030998 -4.4435,-9.1321375 -9.5499,-9.3264313 z m 66.0747,4.33964033 -33.8795,5.77666897 c -0.9396,11.2869596 -3.7056,16.8310706 -11.5392,24.8434586 l 19.7425,27.807946 c 19.2295,-14.140932 28.656,-40.513866 25.6762,-58.42807357 z m -98.6267,10.72538357 -33.851,3.426034 c 2.4413,23.744416 20.4148,45.16807 37.3672,51.680679 l 12.6336,-31.938217 c -10.0346,-6.219217 -12.9796,-12.34336 -16.1498,-23.168496 z m 48.7209,23.125698 c -9.65,4.684287 -17.4246,5.344973 -27.7033,2.550471 l -14.5274,30.77241 c 21.7885,9.748483 49.4706,5.007486 63.5815,-6.42382 z m 56.6295,37.843336 4.292,0.156894 0.6185,4.434803 4.0779,0.256955 1.8416,-4.415781 4.2016,0.899351 -0.1339,4.482401 3.9923,0.975459 2.5885,-4.025609 3.978,1.622621 -1.3514,4.211168 3.3642,1.417985 3.2023,-3.559251 3.664,2.236429 -1.5892,4.201646 3.4736,2.260205 3.778,-2.93591 3.2168,2.850291 -2.3032,3.854272 3.0168,2.835992 4.2398,-2.226906 2.6601,3.373658 -2.9743,3.359415 2.4555,3.297543 4.5633,-1.451287 2.0269,3.787677 -3.5068,2.79793 1.8413,3.68772 4.7491,-0.62809 1.3321,4.08743 -3.9396,2.16505 1.1752,3.98278 4.7822,0.21878 0.59,4.25874 -4.2683,1.37042 0.452,4.06366 4.6681,1.0516 -0.1608,4.29204 -4.4396,0.63761 -0.2712,4.10172 4.4109,1.85577 -0.9087,4.19687 -4.3732,-0.64712 -0.7993,3.51644 4.0588,2.53145 -1.5653,4.00179 -4.4112,-0.83272 -1.6225,3.81622 3.5496,3.20713 -2.246,3.66396 -4.1967,-1.59881 -2.2697,3.46885 2.9312,3.7829 -2.86,3.20715 -3.8257,-2.34112 -2.8169,2.98825 2.2222,4.23972 -3.3784,2.65994 -3.3642,-2.96922 -3.3119,2.4553 1.4466,4.56805 -3.7923,2.02231 -2.8171,-3.50216 -3.7162,1.85099 0.6138,4.74411 -4.0921,1.32283 -2.0938,-3.96374 -3.9209,1.15154 -0.2242,4.78215 -4.2541,0.59006 -1.3989,-4.26351 -4.0873,0.44728 -1.0612,4.66797 -4.292,-0.16664 -0.1147,-4.41577 -3.5971,-0.17615 -1.7843,4.43958 -4.216,-0.847 0.053,-4.49191 -4.0398,-0.92788 -2.5411,4.05413 -3.9969,-1.57501 0.8422,-4.41102 -3.8067,-1.63212 -3.2167,3.545 -3.6593,-2.25547 1.6416,-4.1731 -3.4355,-2.25546 -3.7876,2.92639 -3.2025,-2.85978 2.779,-3.43078 -2.6503,-2.40773 -4.1971,2.29827 -2.7169,-3.33085 2.8882,-3.43555 -2.5267,-3.28329 -4.5395,1.51793 -2.0889,-3.75435 3.4547,-2.87405 -1.9082,-3.67824 -4.7393,0.69948 -1.3893,-4.06365 3.916,-2.18407 -1.2276,-3.92093 -4.7822,-0.14738 -0.6566,-4.24448 4.2348,-1.47985 -0.5187,-4.08747 -4.6869,-0.9802 0.1,-4.2968 4.4301,-0.74233 0.2095,-4.14453 -4.4348,-1.79392 0.8518,-4.21113 4.4824,0.11889 0.9183,-3.97799 -4.0588,-2.54098 1.5797,-3.99703 4.3967,0.86604 1.6131,-3.78292 -3.5448,-3.21191 2.2507,-3.65919 4.0636,1.79867 2.1126,-3.28804 -2.9548,-3.763861 2.8358,-3.226187 3.8686,2.288759 2.8218,-3.031073 -2.2412,-4.2302 3.3643,-2.674199 3.3973,2.935943 3.3166,-2.483907 -1.4609,-4.55852 3.7783,-2.036581 2.7978,3.502164 3.6688,-1.846245 -0.6425,-4.74409 4.0828,-1.346632 2.1508,3.939935 3.9495,-1.180073 0.1997,-4.782166 4.254,-0.609075 1.4562,4.254 4.1253,-0.47108 z m -0.262,12.357471 c -13.3746,0.353925 -24.9773,6.161986 -35.2547,18.24838 l 27.532,19.91856 c 2.6911,-2.9807 8.5702,-5.40915 13.2902,-4.23971 l 12.3576,-31.524242 c -5.3163,-1.46024 -10.3867,-2.271445 -15.2268,-2.402988 -0.9075,-0.02461 -1.8063,-0.02439 -2.6983,0 z m 20.9751,3.254752 -10.3399,32.299828 c 3.8348,1.14919 8.0559,6.85713 8.0559,11.71512 l 33.9701,1.66068 c -0.8776,-22.03468 -10.8754,-36.954945 -31.6861,-45.675628 z m -103.4231,4.739324 2.674,0.347352 1.0279,3.79243 2.5172,0.808922 3.1357,-2.388678 2.3649,1.284757 -0.3474,3.968489 2.1128,1.741552 3.8116,-1.05636 1.708,2.06992 -1.9746,3.3689 1.2372,2.05563 3.9446,0.32356 0.8804,2.53145 -2.9645,2.5267 0.4091,2.52195 3.5689,1.69872 -0.1,2.67422 -3.7069,1.43703 -0.5854,2.61234 2.6933,2.88834 -1.0753,2.45532 -3.9496,-0.0619 -1.4749,2.17932 1.4513,3.65919 -1.8986,1.8986 -3.7402,-1.42275 -2.2696,1.54171 -0.029,3.93042 -2.4695,1.06586 -2.6314,-2.78839 -2.3554,0.59002 -1.3848,3.67822 -2.693,0.15227 -1.7654,-3.54498 -2.6743,-0.34736 -2.6504,2.91688 -2.5601,-0.84699 -0.2901,-3.91615 -2.3174,-1.27047 -3.5356,1.76058 -2.0745,-1.713 1.0944,-3.8305 -1.7463,-2.10794 -3.9446,0.32356 -1.2848,-2.3554 2.5838,-2.78841 -0.7901,-2.20789 -3.8162,-1.02778 -0.4043,-2.65042 3.3783,-2.07942 0.1,-2.67896 -3.169,-2.35064 0.6041,-2.60758 3.8971,-0.65189 1.0518,-2.41252 -2.0986,-3.33562 1.518,-2.21262 3.94,0.72327 1.951,-1.92714 -0.6996,-3.868562 2.2364,-1.494138 3.0358,2.307803 2.1223,-0.980214 0.6614,-3.878082 2.6125,-0.651895 2.4075,3.145279 2.6933,-0.161759 z m -1.7702,9.397804 c -0.395,-0.01 -0.7901,-0.004 -1.1848,0.0146 -0.5545,0.028 -1.107,0.0836 -1.6559,0.16664 -9.1098,1.36045 -15.3806,9.8043 -14.0041,18.85746 1.3743,9.05213 9.8731,15.28601 18.9811,13.92298 9.1098,-1.36045 15.3806,-9.8043 14.0041,-18.85742 -1.2111,-7.97665 -8.0252,-13.93086 -16.1404,-14.10381 z m 47.0508,3.9209 c -11.9533,18.53205 -12.7825,36.42901 -0.7709,55.53021 l 27.1656,-20.3373 c -2.6682,-5.2223 -2.1415,-11.27165 0.085,-14.40835 z m -47.8692,3.42127 c 0.3107,-0.0146 0.622,-0.0146 0.9327,0 4.4181,0.22122 8.0694,3.5045 8.7315,7.85131 0.7673,5.04981 -2.7317,9.75907 -7.8133,10.51601 -5.0772,0.75851 -9.8141,-2.71551 -10.5825,-7.76092 -0.7672,-5.04974 2.7315,-9.75894 7.8131,-10.51599 0.3046,-0.0454 0.6111,-0.0755 0.9185,-0.0904 z m 0.1657,3.36892 c -0.195,0.01 -0.3881,0.0285 -0.5806,0.0571 -3.2237,0.48073 -5.4434,3.46756 -4.9581,6.67123 0.4856,3.20498 3.4941,5.41255 6.7188,4.92968 3.224,-0.48289 5.4419,-3.47218 4.9534,-6.67601 -0.4224,-2.75551 -2.7376,-4.83601 -5.5386,-4.97727 l 0,-0.005 c -0.1973,-0.01 -0.3968,-0.01 -0.5949,0 z m 87.8491,12.38606 c -4.9232,0.15447 -8.7894,4.26996 -8.6364,9.19316 0.1535,4.92511 4.273,8.79213 9.1979,8.63644 4.9233,-0.15447 8.7895,-4.26995 8.6364,-9.19315 -0.1534,-4.9251 -4.273,-8.79212 -9.1979,-8.63645 z m 15.7216,11.70083 c -0.4135,4.7171 -3.6792,9.73738 -8.3034,11.225 l 9.4216,32.63291 c 20.7024,-7.59682 30.9668,-21.02315 32.8804,-43.50579 z m -26.6184,8.44134 -28.0315,19.00494 c 13.9178,17.10552 30.631,23.00927 52.5135,17.50606 l -10.9158,-32.19991 c -4.1005,0.91474 -10.6924,-1.12867 -13.5662,-4.31109 z"
         style="fill:#000000;fill-opacity:1;fill-rule:evenodd;stroke:none;stroke-width:0.1;stroke-linecap:butt;stroke-linejoin:miter;stroke-miterlimit:4;stroke-dasharray:none;stroke-opacity:1" />
    </clipPath>
    <clipPath
       clipPathUnits="userSpaceOnUse"
       id="clipPath4218">
      <path
         id="path4220"
         d="m 1135.1199,729.2203 c 18.895,-0.3288 48.6609,-5.1831 74.5259,-27.7872 39.4371,31.3549 84.915,24.9699 93.3422,22.4317 8.7476,-2.6344 76.2875,-16.2311 75.0544,-107.7056 -1.1413,-84.6663 -171.0255,-227.19404 -176.4179,-232.36623 -7.6697,5.97334 -164.4553,154.17713 -164.4771,240.54173 -0.024,88.5101 71.5924,102.221 80.3302,103.7678 2.7084,0.4792 9.0539,1.267 17.6423,1.1178 z m 135.4883,-21.3093 -4.4106,-0.4864 -0.3508,-4.4154 -4.2329,-0.519 -1.9972,4.5228 -4.3076,-1.0477 0.2059,-4.4199 -4.069,-1.0383 -2.4836,4.247 -4.1486,-1.5717 0.7577,-4.3638 -3.9664,-1.5528 -3.0635,3.8773 -3.9101,-2.0858 1.3049,-4.2329 -3.4984,-1.9411 -3.2554,3.5921 -3.6436,-2.5351 1.8009,-4.0457 -3.4704,-2.4741 -3.9149,3.0166 -3.2879,-2.9745 2.2917,-3.7886 -3.0822,-2.8483 -4.2095,2.5396 -2.8952,-3.3581 2.7456,-3.4705 -2.741,-3.2601 -4.5413,1.9457 -2.4417,-3.6996 3.1618,-3.0964 -2.3198,-3.6059 -4.7614,1.3283 -1.9502,-3.985 3.5357,-2.666 -1.8334,-3.8445 -4.8876,0.7388 -1.4358,-4.2001 3.8444,-2.1936 -1.3094,-3.9895 -4.9204,0.1771 -0.8935,-4.3403 4.0833,-1.7025 -0.8138,-4.1813 -4.9158,-0.5053 -0.3413,-4.4199 4.2655,-1.1691 -0.2155,-3.5502 -4.7942,-1.0895 0.1724,-4.4296 4.3777,-0.664 0.2156,-4.2561 -4.6443,-1.6699 0.7296,-4.3777 4.4245,-0.103 0.7483,-4.1347 -4.4151,-2.1797 1.2814,-4.2467 4.4013,0.4444 1.2675,-4.0693 -4.0832,-2.7736 1.8056,-4.0549 4.3076,1.0007 1.7912,-3.8959 -3.6809,-3.2927 2.3059,-3.7933 4.1486,1.5434 2.2498,-3.6153 -3.2506,-3.7185 2.7642,-3.4704 3.9195,2.0581 2.6566,-3.2554 -2.8018,-4.0457 3.1759,-3.0963 3.6342,2.5257 3.0822,-2.9419 -2.2215,-4.4106 3.5451,-2.6708 3.2834,2.9653 3.1291,-2.2684 -2.0019,-4.3823 3.826,-2.2405 2.9232,3.3255 3.6948,-2.114 -1.0989,-4.8175 4.0829,-1.74 2.4743,3.667 3.882,-1.5996 -0.5472,-4.8924 4.2657,-1.216 2.0018,3.9474 4.1066,-1.1272 0.1413,-4.9391 4.3824,-0.6688 1.4828,4.172 4.2467,-0.5939 0.7905,-4.8782 4.4338,-0.1077 0.9402,4.331 4.2563,-0.055 1.3751,-4.7427 4.4151,0.4538 0.3836,4.4106 4.1721,0.4816 1.8988,-4.5416 4.3217,1.001 -0.1724,4.4247 4.1392,1.0101 2.5164,-4.2514 4.1625,1.5435 -0.7295,4.3684 3.9381,1.534 2.9841,-3.8866 3.9335,2.0439 -1.2629,4.2422 3.7604,2.0066 3.4938,-3.4988 3.6388,2.5351 -1.7864,4.0459 3.4936,2.5444 4.0411,-2.9513 3.2881,2.9841 -2.2965,3.7836 3.1289,2.8906 4.2609,-2.5024 2.8907,3.377 -2.7597,3.4565 2.6989,3.2226 4.4994,-1.9879 2.4462,3.6996 -3.1665,3.0963 2.3058,3.578 4.7521,-1.3564 1.9596,3.985 -3.5358,2.6661 1.8475,3.8725 4.8876,-0.7107 1.4311,4.1952 -3.8445,2.1983 1.3377,4.0457 4.9388,-0.1174 0.8842,4.3498 -4.0878,1.6933 0.795,4.1251 4.9018,0.4351 0.3412,4.4245 -4.2702,1.1742 0.2854,4.2467 4.8127,1.1226 -0.2203,4.4293 -4.3826,0.6174 -0.2761,4.041 4.6352,1.4687 -0.7531,4.3684 -4.4245,0.093 -0.767,4.1908 4.3916,2.2588 -1.2955,4.2471 -4.4013,-0.4725 -1.272,4.0037 4.0925,2.7314 -1.8195,4.0504 -4.3076,-1.0148 -1.7867,3.8634 3.6903,3.2879 -2.3104,3.7839 -4.1489,-1.5528 -2.2776,3.634 3.2178,3.7465 -2.7781,3.4563 -3.9103,-2.0671 -2.7034,3.2927 2.7455,4.1112 -3.1945,3.0775 -3.6201,-2.5489 -3.0542,2.8855 2.2498,4.3733 -3.5499,2.6567 -3.2788,-2.9747 -3.4376,2.5163 1.6322,4.663 -3.854,2.1844 -2.8763,-3.3676 -3.5454,1.9315 1.2441,4.6913 -4.0926,1.712 -2.4507,-3.6903 -3.9429,1.5994 0.4396,4.9252 -4.2747,1.1739 -1.9599,-3.9661 -4.0645,1.0709 -0.1126,4.9159 -4.3873,0.636 -1.4545,-4.1768 -4.2281,0.5613 -0.7905,4.8782 -4.4341,0.07 -0.9167,-4.3263 -4.2841,0.024 z m 1.9174,-21.7207 c 14.4631,-0.043 28.3938,-4.526 37.0478,-11.5667 l -21.3605,-26.1921 c -9.7319,4.4412 -16.4151,5.4142 -27.6326,2.1002 l -13.6433,30.537 c 8.0383,3.5766 16.9109,5.1477 25.5886,5.1216 z m -28.4884,-6.5011 12.2916,-31.2108 c -9.0954,-5.6718 -12.623,-10.9469 -15.7294,-22.282 l -33.2688,3.4469 c 2.4553,23.3336 20.0287,43.6846 36.7066,50.0459 z m 67.9498,-7.1423 c 18.9448,-13.8411 28.2154,-39.3692 25.3408,-56.9864 l -33.3717,5.1026 c -0.7722,11.2197 -3.2005,16.7719 -11.66,24.8499 z m -40.8597,-25.3453 c 0.8822,0.034 1.7659,0.027 2.6471,-0.029 14.5774,-0.9016 25.6644,-13.4482 24.7656,-28.0257 -0.8992,-14.579 -13.4465,-25.6689 -28.0255,-24.7701 -14.5773,0.9015 -25.6643,13.4481 -24.7656,28.0255 0.8372,13.5562 11.8064,24.2746 25.3784,24.7983 z m 0.4395,-11.3842 c -7.7258,-0.2982 -13.9703,-6.3992 -14.4478,-14.1159 -0.5139,-8.2995 5.7976,-15.4442 14.0972,-15.9583 8.3012,-0.511 15.4444,5.805 15.9538,14.1063 0.511,8.2976 -5.7995,15.4393 -14.097,15.9538 -0.5014,0.031 -1.0043,0.034 -1.5062,0.024 z m 0.2059,-5.2712 c 0.3243,0 0.649,0 0.9727,-0.024 5.3898,-0.3319 9.49,-4.9702 9.1581,-10.3599 -0.3319,-5.3898 -4.9702,-9.4898 -10.36,-9.1579 -5.3916,0.3318 -9.4923,4.9731 -9.1578,10.3645 0.3099,5.0133 4.3677,8.9763 9.387,9.1672 z m -64.9471,-4.2657 33.3013,-5.6782 c 0.9236,-11.0941 3.6423,-16.5438 11.3423,-24.4192 l -19.4055,-27.3335 c -18.9015,13.8996 -28.1671,39.8225 -25.2381,57.4309 z m 96.9435,-10.5423 33.2733,-3.3676 c -2.3997,-23.3391 -20.0665,-44.3972 -36.7296,-50.7987 l -12.418,31.3931 c 9.8634,6.1133 12.7581,12.1328 15.8743,22.7732 z m -47.8893,-22.731 c 9.4852,-4.6043 17.1271,-5.2537 27.2304,-2.5071 l 14.2794,-30.247 c -21.4166,-9.5822 -48.6262,-4.9221 -62.4964,6.3141 z m -55.6631,-37.1975 -4.2188,-0.1533 -0.608,-4.359 -4.0083,-0.2527 -1.8101,4.3404 -4.1299,-0.8839 0.1317,-4.406 -3.9242,-0.9588 -2.5444,3.957 -3.9101,-1.5949 1.3284,-4.1395 -3.3069,-1.3937 -3.1476,3.4987 -3.6014,-2.1983 1.5621,-4.13 -3.4144,-2.2218 -3.7135,2.8859 -3.1619,-2.8016 2.2639,-3.7884 -2.9654,-2.7877 -4.1675,2.189 -2.6145,-3.3162 2.9235,-3.3021 -2.4137,-3.2412 -4.4853,1.4266 -1.9924,-3.72308 3.447,-2.75014 -1.8099,-3.62488 -4.668,0.61734 -1.3095,-4.01754 3.8725,-2.12824 -1.1552,-3.91483 -4.7006,-0.21552 -0.58,-4.18595 4.1956,-1.34702 -0.4443,-3.99438 -4.5885,-1.03356 0.1581,-4.21899 4.3639,-0.6267 0.2665,-4.03172 -4.3356,-1.82405 0.8932,-4.12513 4.2985,0.63604 0.7857,-3.45652 -3.9896,-2.4881 1.5386,-3.93355 4.3359,0.81851 1.5949,-3.75108 -3.4891,-3.15238 2.2077,-3.60141 4.1251,1.57141 2.2309,-3.40959 -2.8811,-3.71825 2.8112,-3.15264 3.7604,2.30131 2.7687,-2.93735 -2.1842,-4.16726 3.3208,-2.61455 3.3068,2.91843 3.2554,-2.41339 -1.422,-4.49007 3.7276,-1.98785 2.769,3.4424 3.6529,-1.81926 -0.6035,-4.66322 4.0224,-1.30021 2.058,3.89607 3.8541,-1.13197 0.2203,-4.70043 4.1814,-0.57998 1.375,4.19081 4.0176,-0.43967 1.0432,-4.58835 4.2187,0.1638 0.1126,4.3405 3.5358,0.17242 1.7538,-4.3639 4.1441,0.83254 -0.053,4.41524 3.9709,0.91215 2.4977,-3.98503 3.9287,1.54818 -0.8278,4.33562 3.7417,1.60421 3.1618,-3.4843 3.5968,2.21678 -1.6136,4.10189 3.3768,2.21702 3.7231,-2.87651 3.1478,2.81114 -2.7316,3.37223 2.6052,2.36669 4.1253,-2.25917 2.6706,3.27404 -2.8389,3.37679 2.4835,3.22734 4.4621,-1.4919 2.0532,3.69024 -3.3957,2.82504 1.8756,3.61529 4.6584,-0.68752 1.3657,3.99437 -3.8493,2.14686 1.2067,3.8538 4.7006,0.14369 0.6454,4.17205 -4.1625,1.45478 0.5098,4.01761 4.607,0.96339 -0.098,4.22355 -4.3546,0.72966 -0.2059,4.07388 4.3591,1.76323 -0.8372,4.13925 -4.406,-0.11735 -0.9026,3.91009 3.9896,2.49769 -1.5527,3.92873 -4.3218,-0.8513 -1.5855,3.7185 3.4843,3.15697 -2.2122,3.5968 -3.9944,-1.76795 -2.0765,3.23186 2.9043,3.69961 -2.7874,3.1713 -3.8026,-2.2498 -2.7735,2.9792 2.2029,4.1582 -3.3069,2.6284 -3.3394,-2.8858 -3.2599,2.4416 1.4359,4.4807 -3.7138,2.0018 -2.75,-3.4424 -3.6062,1.8147 0.6315,4.6632 -4.0131,1.3236 -2.114,-3.8728 -3.8821,1.16 -0.1964,4.7006 -4.1814,0.5987 -1.4313,-4.1814 -4.0549,0.4632 z m 0.2574,-12.1467 c 13.1465,-0.3476 24.551,-6.0566 34.6531,-17.93682 l -27.0621,-19.57864 c -2.6452,2.92992 -8.4239,5.31696 -13.0634,4.16726 l -12.1466,30.9863 c 5.2254,1.4354 10.2093,2.2326 14.9669,2.3619 0.892,0.024 1.7754,0.024 2.6521,0 z m -20.617,-3.1991 10.1634,-31.74852 c -3.7693,-1.12959 -7.9183,-6.74015 -7.9183,-11.5152 l -33.3904,-1.63247 c 0.8626,21.65869 10.6897,36.32439 31.1453,44.89619 z m 101.658,-4.6584 -2.6284,-0.3415 -1.0104,-3.7276 -2.4742,-0.7953 -3.0822,2.3481 -2.3245,-1.2628 0.3414,-3.9009 -2.0766,-1.71181 -3.7466,1.03835 -1.6789,-2.03453 1.9409,-3.3114 -1.216,-2.02063 -3.8773,-0.31803 -0.8654,-2.48809 2.9138,-2.48382 -0.402,-2.47876 -3.508,-1.66983 0.098,-2.62843 3.6435,-1.41264 0.5755,-2.5676 -2.6474,-2.83917 1.057,-2.41339 3.8821,0.0599 1.4498,-2.14208 -1.4266,-3.59684 1.8662,-1.8662 3.6764,1.39851 2.2309,-1.51537 0.029,-3.86338 2.4273,-1.04768 2.5865,2.74073 2.3152,-0.57975 1.3611,-3.61554 2.6472,-0.14846 1.7352,3.48454 2.6286,0.34124 2.6052,-2.86694 2.5164,0.83239 0.2852,3.8495 2.2778,1.2486 3.4752,-1.73042 2.0391,1.68372 -1.0757,3.7652 1.7166,2.07191 3.8772,-0.31803 1.263,2.31521 -2.5398,2.74074 0.7766,2.17033 3.7511,1.01009 0.3975,2.60519 -3.3208,2.04413 -0.098,2.63321 3.1151,2.31039 -0.5939,2.56308 -3.8306,0.64088 -1.0338,2.3712 2.0628,3.27885 -1.4921,2.17488 -3.8728,-0.71105 -1.9176,1.89429 0.6875,3.80249 -2.1981,1.4687 -2.9841,-2.2685 -2.086,0.9636 -0.6502,3.8119 -2.5678,0.6406 -2.3665,-3.0916 -2.6473,0.1581 z m 1.74,-9.2373 c 0.3882,0 0.7766,0 1.1645,-0.0241 0.5451,-0.0285 1.0882,-0.0811 1.6277,-0.16281 8.9543,-1.33748 15.1181,-9.63701 13.765,-18.53579 -1.3508,-8.89754 -9.7045,-15.02511 -18.6571,-13.68528 -8.9543,1.33721 -15.1181,9.63703 -13.765,18.53549 1.1904,7.84054 7.8881,13.69325 15.8649,13.86328 z m -46.2478,-3.85411 c 11.7491,-18.21579 12.5643,-35.80731 0.7577,-54.58254 l -26.702,19.9903 c 2.6227,5.13306 2.105,11.07912 -0.084,14.1623 z m 47.0522,-3.36284 c -0.3054,0.0241 -0.6114,0.0241 -0.9167,0 -4.3428,-0.2179 -7.9318,-3.44477 -8.5826,-7.71744 -0.7541,-4.96351 2.6851,-9.59248 7.68,-10.33652 4.9906,-0.74547 9.6466,2.66914 10.4019,7.62858 0.7541,4.96354 -2.6849,9.59227 -7.6798,10.33649 -0.2994,0.0455 -0.6006,0.074 -0.9028,0.0883 z m -0.1629,-3.31139 c 0.1916,0 0.3815,-0.0285 0.5707,-0.0553 3.1687,-0.47246 5.3505,-3.4084 4.8735,-6.55743 -0.4773,-3.15024 -3.4345,-5.32009 -6.6042,-4.84545 -3.1689,0.47463 -5.349,3.41269 -4.8689,6.56198 0.4153,2.70838 2.691,4.75352 5.4441,4.89234 l 0,0 c 0.194,0 0.3901,0 0.5848,0 z m -86.3498,-12.17472 c 4.8392,-0.15087 8.6394,-4.19721 8.489,-9.0362 -0.1508,-4.84113 -4.2001,-8.64225 -9.041,-8.48924 -4.8392,0.15087 -8.6393,4.19721 -8.489,9.03644 0.1509,4.8409 4.2001,8.64202 9.041,8.489 z m -15.4533,-11.50106 c 0.4064,-4.63664 3.6165,-9.57141 8.1617,-11.03362 l -9.2608,-32.07592 c -20.3491,7.46718 -30.4382,20.66441 -32.3193,42.76326 z m 26.1641,-8.29743 27.5531,-18.68064 c -13.6803,-16.81348 -30.1082,-22.61658 -51.6173,-17.20717 l 10.7295,31.65037 c 4.0306,-0.89921 10.5099,1.10947 13.3347,4.23744 z"
         style="fill:#000000;fill-opacity:1;fill-rule:evenodd;stroke:none;stroke-width:0.1;stroke-linecap:butt;stroke-linejoin:miter;stroke-miterlimit:4;stroke-dasharray:none;stroke-opacity:1" />
    </clipPath>
    <clipPath
       clipPathUnits="userSpaceOnUse"
       id="clipPath4226">
      <path
         id="path4228"
         d="m 591.45951,473.91493 c 18.4104,-0.3202 47.4131,-5.05016 72.6148,-27.07442 38.4256,30.55072 82.7372,24.32941 90.9483,21.85642 8.5233,-2.56702 74.3311,-15.81482 73.1297,-104.94364 -1.112,-82.49489 -166.6395,-221.36763 -171.8936,-226.40717 -7.4731,5.82015 -160.238,150.22326 -160.2592,234.3732 -0.023,86.24013 69.7564,99.59947 78.2702,101.10645 2.6389,0.46708 8.8217,1.23471 17.1898,1.08916 z m 132.0137,-20.76267 -4.2975,-0.47397 -0.3418,-4.30201 -4.1243,-0.50586 -1.946,4.40685 -4.1971,-1.02082 0.2006,-4.30658 -3.9647,-1.0117 -2.4199,4.13796 -4.0422,-1.53122 0.7383,-4.2519 -3.8646,-1.513 -2.985,3.77793 -3.8098,-2.03251 1.2714,-4.12428 -3.4087,-1.89123 -3.1719,3.49994 -3.5501,-2.47003 1.7546,-3.94198 -3.3814,-2.41077 -3.8145,2.9394 -3.2036,-2.8984 2.233,-3.69134 -3.0032,-2.77534 -4.1015,2.47457 -2.8209,-3.27209 2.6751,-3.38146 -2.6707,-3.17636 -4.4249,1.8958 -2.379,-3.60478 3.0807,-3.01686 -2.2603,-3.51362 -4.6393,1.29424 -1.9002,-3.88275 3.4451,-2.59761 -1.7864,-3.74604 -4.7622,0.72004 -1.3991,-4.09237 3.7459,-2.13735 -1.2759,-3.88729 -4.7942,0.17313 -0.8705,-4.2291 3.9785,-1.65883 -0.7929,-4.07417 -4.7898,-0.49216 -0.3325,-4.30659 4.1561,-1.1393 -0.21,-3.45893 -4.6713,-1.06183 0.168,-4.31569 4.2655,-0.64712 0.21,-4.14706 -4.5252,-1.62693 0.711,-4.26557 4.311,-0.10033 0.7291,-4.0286 -4.3018,-2.12365 1.2485,-4.13796 4.2884,0.43294 1.235,-3.96478 -3.9785,-2.70245 1.7593,-3.95109 4.1971,0.97523 1.7453,-3.79616 -3.5865,-3.20828 2.2467,-3.69589 4.0422,1.50388 2.1922,-3.52274 -3.1672,-3.62298 2.6933,-3.38146 3.8189,2.00516 2.5885,-3.17181 -2.7299,-3.94199 3.0944,-3.01688 3.541,2.46091 3.0032,-2.8665 -2.1646,-4.29747 3.4542,-2.60216 3.1992,2.88927 3.0489,-2.21026 -1.9506,-4.27009 3.7279,-2.18292 2.8482,3.24018 3.6001,-2.05986 -1.0708,-4.69394 3.9783,-1.69527 2.4108,3.57285 3.7825,-1.55857 -0.5332,-4.76685 4.1563,-1.18487 1.9504,3.84627 4.0014,-1.09828 0.1376,-4.81242 4.27,-0.65169 1.4448,4.06504 4.1378,-0.57875 0.7702,-4.75318 4.3201,-0.10476 0.9161,4.22 4.1472,-0.0546 1.3398,-4.62103 4.3019,0.44205 0.3738,4.29746 4.065,0.46939 1.8501,-4.42505 4.2109,0.97525 -0.168,4.31111 4.0331,0.98437 2.4518,-4.14251 4.0558,1.50388 -0.7108,4.25645 3.8371,1.49476 2.9076,-3.78704 3.8326,1.99149 -1.2305,4.13341 3.6639,1.95505 3.4043,-3.40881 3.5455,2.47001 -1.7407,3.94201 3.4041,2.47912 3.9374,-2.87562 3.2038,2.90752 -2.2376,3.6868 3.0487,2.81635 4.1516,-2.4381 2.8166,3.29029 -2.6889,3.36779 2.6296,3.13992 4.384,-1.9368 2.3835,3.60475 -3.0853,3.01688 2.2467,3.48627 4.6302,-1.3216 1.9093,3.88275 -3.4451,2.59763 1.8001,3.77336 4.7623,-0.69268 1.3944,4.08781 -3.7459,2.1419 1.3034,3.94199 4.8122,-0.11387 0.8614,4.23822 -3.9829,1.64971 0.7746,4.01948 4.7761,0.42382 0.3325,4.31111 -4.1608,1.14388 0.2782,4.13796 4.6892,1.09373 -0.2147,4.31569 -4.2701,0.60154 -0.2691,3.93744 4.5164,1.43096 -0.7339,4.25645 -4.311,0.0912 -0.7473,4.08327 4.279,2.20114 -1.2623,4.13796 -4.2884,-0.46029 -1.2394,3.90099 3.9876,2.6614 -1.7728,3.94656 -4.1972,-0.98892 -1.7408,3.76426 3.5956,3.20373 -2.2512,3.6868 -4.0424,-1.513 -2.2192,3.54096 3.1352,3.65032 -2.7068,3.36779 -3.8101,-2.01429 -2.634,3.20828 2.6751,4.00581 -3.1126,2.99863 -3.5273,-2.48368 -2.9759,2.81181 2.1922,4.261 -3.4589,2.58849 -3.1948,-2.89838 -3.3494,2.45178 1.5904,4.54354 -3.7552,2.12822 -2.8026,-3.2812 -3.4544,1.88213 1.2121,4.57091 -3.9876,1.66793 -2.3879,-3.59563 -3.8417,1.55854 0.4284,4.79875 -4.1652,1.14388 -1.9096,-3.86452 -3.9603,1.04361 -0.1096,4.78963 -4.2749,0.61977 -1.4172,-4.0696 -4.1197,0.54688 -0.7702,4.75318 -4.3203,0.0684 -0.8932,-4.21545 -4.1743,0.0187 z m 1.8683,-21.16374 c 14.0922,-0.0422 27.6656,-4.40989 36.0977,-11.26999 l -20.8128,-25.52042 c -9.4822,4.32717 -15.994,5.27519 -26.9239,2.04618 l -13.2935,29.75408 c 7.8322,3.48475 16.4773,5.01551 24.9325,4.99015 z m -27.7578,-6.33453 11.9763,-30.41031 c -8.8621,-5.52643 -12.2993,-10.6661 -15.326,-21.7106 l -32.4156,3.35867 c 2.3924,22.73521 19.515,42.56412 35.7653,48.76224 z m 66.2072,-6.95887 c 18.459,-13.48624 27.4919,-38.35964 24.691,-55.52516 l -32.5159,4.97193 c -0.7525,10.93191 -3.1185,16.34161 -11.3611,24.21252 z m -39.8118,-24.69558 c 0.8596,0.0338 1.7205,0.0247 2.5792,-0.0273 14.2035,-0.87848 25.0062,-13.10332 24.1305,-27.30686 -0.8762,-14.20515 -13.1017,-25.01065 -27.3068,-24.13503 -14.2035,0.87848 -25.0062,13.1033 -24.1305,27.30684 0.8157,13.20856 11.5036,23.65213 24.7276,24.16238 z m 0.4281,-11.09225 c -7.5277,-0.29043 -13.612,-6.23487 -14.0772,-13.75368 -0.5007,-8.08674 5.6489,-15.04825 13.7356,-15.54925 8.0884,-0.49786 15.0484,5.65621 15.5447,13.74458 0.4979,8.08492 -5.6508,15.04351 -13.7354,15.54467 -0.4886,0.0292 -0.9786,0.0336 -1.4677,0.014 z m 0.2007,-5.13598 c 0.3159,0.0117 0.6323,0.007 0.9478,-0.014 5.2515,-0.32333 9.2466,-4.84271 8.9232,-10.09426 -0.3234,-5.2515 -4.8428,-9.24646 -10.0943,-8.92301 -5.2534,0.32341 -9.249,4.8456 -8.923,10.09878 0.3019,4.88471 4.2557,8.74608 9.1463,8.93216 z m -63.2816,-4.15619 32.4473,-5.53247 c 0.9,-10.80981 3.549,-16.11956 11.0514,-23.79323 l -18.9078,-26.6324 c -18.4167,13.54315 -27.4447,38.80119 -24.5909,55.9581 z m 94.4575,-10.27198 32.4199,-3.2812 c -2.3382,-22.74065 -19.5518,-43.25865 -35.7876,-49.49595 l -12.0995,30.58806 c 9.6104,5.95633 12.4308,11.82158 15.4672,22.18909 z m -46.6613,-22.14809 c 9.242,-4.48627 16.688,-5.11902 26.5321,-2.44266 l 13.9133,-29.47153 c -20.8674,-9.33638 -47.3793,-4.79581 -60.8937,6.15225 z m -54.2356,-36.24355 -4.1106,-0.15027 -0.5924,-4.24732 -3.9055,-0.24609 -1.7637,4.2291 -4.024,-0.86131 0.1283,-4.29292 -3.8235,-0.93423 -2.4792,3.85542 -3.8098,-1.55402 1.2943,-4.03315 -3.222,-1.35804 -3.0669,3.4088 -3.5091,-2.14189 1.522,-4.02403 -3.3268,-2.16467 -3.6182,2.81181 -3.0809,-2.72979 2.2059,-3.69135 -2.8893,-2.71609 -4.0607,2.13277 -2.5474,-3.23106 2.8484,-3.2174 -2.3517,-3.15814 -4.3702,1.38994 -1.9414,-3.62755 3.3586,-2.67965 -1.7635,-3.53184 -4.5483,0.60155 -1.2758,-3.91464 3.7731,-2.07353 -1.1256,-3.8144 -4.58,-0.20953 -0.5651,-4.07872 4.0879,-1.31248 -0.4328,-3.89187 -4.4708,-1.00714 0.154,-4.11062 4.2519,-0.61064 0.2597,-3.92834 -4.2244,-1.77732 0.8703,-4.01945 4.1883,0.61977 0.7655,-3.36779 -3.8872,-2.42443 1.4991,-3.83263 4.2247,0.79752 1.5539,-3.65489 -3.3996,-3.07155 2.1511,-3.50907 4.0193,1.53122 2.1737,-3.32221 -2.8072,-3.62298 2.7391,-3.07157 3.664,2.24215 2.6977,-2.86192 -2.1282,-4.0605 3.2356,-2.54749 3.2221,2.8437 3.1718,-2.35152 -1.3855,-4.37493 3.632,-1.93682 2.698,3.35411 3.5592,-1.77274 -0.5879,-4.54356 3.9192,-1.26691 2.0052,3.79618 3.7552,-1.10285 0.2147,-4.58001 4.0742,-0.5651 1.3397,4.08327 3.9146,-0.42837 1.0164,-4.47064 4.1106,0.1596 0.1096,4.22909 3.4451,0.1687 1.7089,-4.25189 4.0378,0.81119 -0.051,4.30201 3.8691,0.88866 2.4336,-3.88274 3.828,1.50843 -0.8066,4.22455 3.6457,1.56312 3.0807,-3.39513 3.5046,2.16012 -1.5722,3.99667 3.2902,2.16012 3.6276,-2.80268 3.0671,2.73889 -2.6616,3.28575 2.5384,2.30595 4.0196,-2.20112 2.6021,3.19004 -2.7662,3.29032 2.4199,3.14449 4.3476,-1.45376 2.0006,3.59563 -3.3086,2.75257 1.8274,3.52274 4.539,-0.66992 1.3307,3.89187 -3.7506,2.09175 1.1758,3.75516 4.58,0.14117 0.6288,4.06504 -4.0557,1.41729 0.4967,3.91467 4.4888,0.93878 -0.096,4.11516 -4.2429,0.71093 -0.2007,3.96934 4.2473,1.71807 -0.8157,4.03313 -4.293,-0.11387 -0.8794,3.80983 3.8872,2.43356 -1.5129,3.82805 -4.2109,-0.82942 -1.5448,3.62301 3.3949,3.07612 -2.1555,3.50449 -3.8919,-1.72262 -2.0232,3.14904 2.8298,3.60475 -2.716,3.0898 -3.705,-2.19202 -2.7024,2.90295 2.1464,4.05137 -3.2221,2.56115 -3.2538,-2.81181 -3.1763,2.37889 1.3991,4.3658 -3.6185,1.9505 -2.6796,-3.35412 -3.5137,1.7682 0.6153,4.54353 -3.9101,1.28971 -2.0599,-3.77338 -3.7825,1.1302 -0.1913,4.58 -4.0742,0.58333 -1.3946,-4.07417 -3.9509,0.45116 z m 0.2508,-11.83508 c 12.8094,-0.33896 23.9215,-5.90149 33.7645,-17.47695 l -26.3681,-19.07652 c -2.5774,2.8547 -8.2079,5.18048 -12.7284,4.06048 l -11.8352,30.19159 c 5.0915,1.3985 9.9476,2.17542 14.5831,2.3014 0.8692,0.0236 1.7299,0.0233 2.5841,0 z m -20.0882,-3.11715 9.9027,-30.93439 c -3.6726,-1.10062 -7.7153,-6.56725 -7.7153,-11.21989 l -32.5341,-1.59047 c 0.8405,21.1032 10.4156,35.39272 30.3467,43.74475 z m 99.0509,-4.53898 -2.561,-0.33268 -0.9844,-3.63211 -2.4108,-0.77472 -3.0032,2.2877 -2.2649,-1.23044 0.3327,-3.80073 -2.0234,-1.66793 -3.6504,1.0117 -1.6359,-1.9824 1.8911,-3.2265 -1.1848,-1.96872 -3.7779,-0.30988 -0.8432,-2.42444 2.8391,-2.41988 -0.3917,-2.41534 -3.4181,-1.62691 0.096,-2.56117 3.5501,-1.37627 0.5607,-2.50192 -2.5795,-2.76624 1.03,-2.35152 3.7825,0.0593 1.4125,-2.08721 -1.3899,-3.50449 1.8183,-1.81834 3.5821,1.3626 2.1737,-1.47653 0.028,-3.76426 2.365,-1.02082 2.5202,2.67053 2.2559,-0.56508 1.3262,-3.52274 2.5792,-0.14583 1.6907,3.39513 2.5613,0.33268 2.5384,-2.79358 2.4518,0.81119 0.2779,3.75059 2.2195,1.21676 3.386,-1.68615 1.9868,1.64058 -1.0481,3.66858 1.6725,2.01883 3.7779,-0.30988 1.2305,2.25583 -2.4747,2.67053 0.7567,2.11455 3.6549,0.98434 0.3873,2.53837 -3.2355,1.99152 -0.096,2.56571 3.0351,2.25126 -0.5786,2.49735 -3.7324,0.62434 -1.0072,2.31053 2.0099,3.1946 -1.4539,2.1191 -3.7734,-0.6927 -1.8685,1.84568 0.6699,3.70502 -2.1418,1.43096 -2.9075,-2.21024 -2.0325,0.93878 -0.6335,3.71414 -2.502,0.62434 -2.3058,-3.01233 -2.5794,0.15493 z m 1.6954,-9.00053 c 0.3782,0.009 0.7567,0.005 1.1347,-0.014 0.5311,-0.0268 1.0602,-0.08 1.5859,-0.15959 8.7247,-1.30294 14.7304,-9.38984 13.4121,-18.06028 -1.3163,-8.66947 -9.4557,-14.63982 -18.1788,-13.33441 -8.7246,1.30294 -14.7303,9.38984 -13.412,18.06025 1.1599,7.63944 7.6859,13.34195 15.4581,13.50759 z m -45.0618,-3.75513 c 11.4479,-17.74864 12.2421,-34.88903 0.7383,-53.18275 l -26.0172,19.47756 c 2.5554,5.00154 2.051,10.79516 -0.082,13.79926 z m 45.8456,-3.27665 c -0.2975,0.014 -0.5957,0.014 -0.8932,0 -4.2315,-0.21186 -7.7284,-3.35635 -8.3626,-7.5194 -0.7347,-4.83634 2.6164,-9.34653 7.4832,-10.07146 4.8625,-0.72645 9.3992,2.60072 10.1351,7.43283 0.7348,4.83627 -2.6161,9.34639 -7.4829,10.07144 -0.2916,0.0434 -0.5852,0.0723 -0.8796,0.0866 z m -0.1587,-3.22651 c 0.1867,-0.009 0.3717,-0.0273 0.556,-0.0546 3.0874,-0.4604 5.2133,-3.32098 4.7485,-6.38921 -0.465,-3.0695 -3.3464,-5.18375 -6.4347,-4.72129 -3.0877,0.46249 -5.2119,3.32539 -4.7441,6.39379 0.4046,2.63903 2.6219,4.63157 5.3045,4.76686 l 0,0.005 c 0.189,0.009 0.3801,0.009 0.5698,0 z m -84.1354,-11.86245 c 4.7151,-0.14793 8.4178,-4.08945 8.2713,-8.80453 -0.147,-4.7169 -4.0923,-8.42044 -8.8091,-8.27135 -4.7151,0.14794 -8.4178,4.08946 -8.2713,8.80453 0.147,4.7169 4.0924,8.42045 8.8091,8.27135 z m -15.057,-11.20619 c 0.396,-4.5177 3.5238,-9.32574 7.9524,-10.75047 l -9.0234,-31.25341 c -19.8271,7.27569 -29.6575,20.13443 -31.4904,41.66665 z m 25.4931,-8.0845 26.8465,-18.20152 c -13.3294,-16.3824 -29.3361,-22.03658 -50.2935,-16.76602 l 10.4543,30.83871 c 3.9272,-0.87609 10.2404,1.08094 12.9927,4.12883 z"
         style="fill:#000000;fill-opacity:1;fill-rule:evenodd;stroke:none;stroke-width:0.1;stroke-linecap:butt;stroke-linejoin:miter;stroke-miterlimit:4;stroke-dasharray:none;stroke-opacity:1" />
    </clipPath>
    <clipPath
       clipPathUnits="userSpaceOnUse"
       id="clipPath4273">
      <path
         id="path4275"
         d="m 862.44013,-66.727107 c -7.8903,0.13723 -20.3202,2.16439 -31.1211,11.60351 -16.4684,-13.09338 -35.4594,-10.42706 -38.9785,-9.36719 -3.6529,1.10017 -31.8567,6.77789 -31.3418,44.97657 0.4766,35.35552 71.4181,94.87336 73.6699,97.0332 3.2028,-2.49439 68.6745,-64.38243 68.6836,-100.44727 0.01,-36.96065 -29.8961,-42.68617 -33.5449,-43.33203 -1.131,-0.20018 -3.7808,-0.52917 -7.3672,-0.46679 z m -56.5782,8.89843 1.8418,0.20313 0.1465,1.84375 1.7676,0.2168 0.834,-1.88868 1.7988,0.4375 -0.086,1.84571 1.6992,0.43359 1.0371,-1.77344 1.7324,0.65625 -0.3164,1.82227 1.6563,0.64844 1.2793,-1.61914 1.6328,0.87109 -0.5449,1.76758 1.4609,0.81054 1.3594,-1.5 1.5215,1.0586 -0.752,1.68945 1.4492,1.0332 1.6348,-1.25976 1.373,1.24219 -0.957,1.58203 1.2871,1.18945 1.7578,-1.06055 1.209,1.40235 -1.1465,1.44922 1.1446,1.36132 1.8964,-0.8125 1.0196,1.54493 -1.3203,1.29296 0.9687,1.50586 1.9883,-0.55468 0.8144,1.66406 -1.4765,1.11328 0.7656,1.60547 2.041,-0.30859 0.5996,1.7539 -1.6054,0.91602 0.5468,1.66601 2.0547,-0.0742 0.3731,1.8125 -1.7051,0.71094 0.3398,1.7461 2.0528,0.21093 0.1425,1.84571 -1.7812,0.48828 0.09,1.48242 2.002,0.45508 -0.072,1.84961 -1.8281,0.27734 -0.09,1.77734 1.9394,0.69727 -0.3047,1.82813 -1.8476,0.043 -0.3125,1.72657 1.8437,0.91015 -0.5351,1.77344 -1.8379,-0.18555 -0.5293,1.69922 1.7051,1.15821 -0.754,1.69335 -1.7988,-0.41796 -0.748,1.62695 1.5371,1.375 -0.9629,1.58398 -1.7324,-0.64453 -0.9395,1.50977 1.3574,1.55273 -1.1543,1.44922002 -1.6367,-0.85937 -1.1094,1.35937 1.17,1.68944998 -1.3262,1.29297 -1.5176,-1.05469 -1.2871,1.22852 0.9277,1.8418 -1.4804,1.11523 -1.3711,-1.23828 -1.3067,0.94727 0.836,1.83007 -1.5977,0.93555 -1.2207,-1.38867 -1.5429,0.88281 0.4589,2.01172 -1.705,0.72656 -1.0332,-1.53125 -1.6211,0.66797 0.2285,2.04297 -1.7813,0.50781 -0.8359,-1.64843 -1.7149,0.4707 -0.059,2.0625 -1.83,0.2793 -0.6192,-1.74219 -1.7734,0.24804 -0.3301,2.03711 -1.8515,0.0449 -0.3926,-1.8086 -1.7774,0.0234 -0.5742,1.98047 -1.8437,-0.18945 -0.1602,-1.8418 -1.7422,-0.20117 -0.7929,1.89648 -1.8047,-0.41797 0.072,-1.84765 -1.7285,-0.42188 -1.0508,1.77539 -1.7382,-0.64453 0.3046,-1.82422 -1.6445,-0.64062 -1.2461,1.62304 -1.6426,-0.85351 0.5274,-1.77149 -1.5703,-0.83789 -1.459,1.46094 -1.5195,-1.05859 0.746,-1.68946 -1.4589,-1.0625 -1.6875,1.23243 -1.3731,-1.2461 0.959,-1.58008 -1.3066,-1.20703 -1.7793,1.04492 -1.2071,-1.41015 1.1524,-1.44336 -1.127,-1.34569998 -1.8789,0.83006998 -1.0215,-1.54491998 1.3223,-1.29297002 -0.9629,-1.49414 -1.9844,0.56641 -0.8183,-1.66406 1.4765,-1.11329 -0.7715,-1.61718 -2.041,0.29687 -0.5976,-1.75195 1.6054,-0.91797 -0.5586,-1.68945 -2.0624,0.0488 -0.3692,-1.81641 1.707,-0.70703 -0.332,-1.72266 -2.0469,-0.18164 -0.1425,-1.84765 1.7832,-0.49024 -0.1192,-1.77344 -2.0097,-0.46875 0.092,-1.84961 1.8301,-0.25781 0.1153,-1.6875 -1.9356,-0.61328 0.3145,-1.82422 1.8476,-0.0391 0.3203,-1.75 -1.8339,-0.94336 0.541,-1.77344 1.8379,0.19727 0.5312,-1.67188 -1.709,-1.14062 0.7598,-1.69141 1.7988,0.42383 0.7461,-1.61328 -1.541,-1.37305 0.9648,-1.58008 1.7325,0.64844 0.9511,-1.51758 -1.3437,-1.56445 1.1601,-1.44336 1.6329,0.86328 1.1289,-1.375 -1.1465,-1.7168 1.334,-1.28515 1.5117,1.06445 1.2754,-1.20508 -0.9395,-1.82617 1.4824,-1.10937 1.3692,1.24218 1.4355,-1.05078 -0.6816,-1.94726 1.6094,-0.91211 1.2011,1.40625 1.4805,-0.80664 -0.5195,-1.95899 1.709,-0.71484 1.0234,1.54101 1.6465,-0.66796 -0.1836,-2.05664 1.7851,-0.49024 0.8184,1.65625 1.6973,-0.44727 0.047,-2.05273 1.8321,-0.26562 0.6074,1.74414 1.7656,-0.23438 0.3301,-2.03711 1.8516,-0.0293 0.3828,1.80665 1.789,-0.008 z m -0.8007,9.07032 c -6.0396,0.0181 -11.8569,1.88998 -15.4707,4.83007 l 8.9199,10.9375 c 4.0639,-1.85453 6.8547,-2.26083 11.539,-0.87695 l 5.6973,-12.75195 c -3.3567,-1.49349 -7.0618,-2.14954 -10.6855,-2.13867 z m 11.8964,2.71484 -5.1328,13.0332 c 3.7981,2.36851 5.2712,4.57126 6.5684,9.30469 l 13.8926,-1.43945 c -1.0253,-9.74382 -8.3637,-18.24206 -15.3282,-20.89844 z m -28.375,2.98242 c -7.9111,5.77991 -11.7824,16.44011 -10.582,23.79688 l 13.9356,-2.13086 c 0.3225,-4.68518 1.3365,-7.00366 4.8691,-10.37696 z m 17.0625,10.58399 c -0.3684,-0.0145 -0.7374,-0.0106 -1.1054,0.0117 -6.0873,0.3765 -10.7171,5.6158 -10.3418,11.70313 0.3755,6.08802 5.6151,10.71902 11.7031,10.34375 6.0873,-0.3765 10.7171,-5.61579 10.3418,-11.70312 -0.3496,-5.6609 -4.9302,-10.13679 -10.5977,-10.35547 z m -0.1835,4.7539 c 3.2262,0.12447 5.8338,2.67213 6.0332,5.89453 0.2146,3.4658 -2.421,6.44935 -5.8868,6.66407 -3.4665,0.21337 -6.4494,-2.42413 -6.6621,-5.89063 -0.2134,-3.46502 2.4218,-6.44732 5.8867,-6.66211 0.2094,-0.0125 0.4194,-0.0144 0.629,-0.006 z m -0.086,2.20117 c -0.1354,-0.005 -0.271,-0.003 -0.4062,0.006 -2.2507,0.13857 -3.9629,2.07548 -3.8243,4.32618 0.1386,2.25068 2.0755,3.96283 4.3262,3.82421 2.2515,-0.13861 3.9639,-2.07672 3.8242,-4.32812 -0.1294,-2.09348 -1.8239,-3.74838 -3.9199,-3.82813 z m 27.1211,1.78125 -13.9062,2.3711 c -0.3857,4.63285 -1.521,6.90849 -4.7364,10.19726 l 8.1035,11.41407002 c 7.893,-5.80430002 11.7622,-16.62935002 10.5391,-23.98243002 z m -40.4824,4.40235 -13.8945,1.40625 c 1.0021,9.74615 8.3795,18.53972002 15.3378,21.21289 l 5.1856,-13.10938 c -4.1188,-2.55275 -5.3276,-5.06647 -6.6289,-9.50976 z m 19.998,9.49219 c -3.9609,1.92272 -7.1521,2.1939 -11.3711,1.04687 l -5.9629,12.63086 c 8.9433,4.00137 20.3057,2.05538 26.0977,-2.63672 z m 23.2442,15.5332 1.7617,0.0644 0.2539,1.82031 1.6738,0.10547 0.7559,-1.8125 1.7246,0.36914 -0.055,1.83985 1.6387,0.40039 1.0625,-1.65235 1.6328,0.66602 -0.5547,1.72852 1.3809,0.58203 1.3144,-1.46094 1.5039,0.91797 -0.6523,1.72461 1.4258,0.92773 1.5507,-1.20508 1.3204,1.16993 -0.9454,1.58203 1.2383,1.16406 1.7403,-0.91406 1.0918,1.38476 -1.2208,1.37891 1.0079,1.35351 1.873,-0.5957 0.832,1.55469 -1.4394,1.14844 0.7558,1.51367 1.9493,-0.25781 0.5468,1.67773 -1.6171,0.88867 0.4824,1.63477 1.9629,0.0898 0.2422,1.74805 -1.752,0.5625 0.1855,1.66797 1.9161,0.43164 -0.066,1.76172 -1.8223,0.26171 -0.1113,1.6836 1.8105,0.76172 -0.373,1.72265 -1.795,-0.26562 -0.3281,1.44336 1.666,1.03906 -0.6425,1.64258 -1.8106,-0.3418 -0.666,1.56641 1.457,1.3164 -0.9219,1.50391 -1.7226,-0.65625 -0.9316,1.42383 1.2031,1.55273 -1.1739,1.31641 -1.5703,-0.96094 -1.1562,1.22656 0.9121,1.74024 -1.3867,1.0918 -1.3809,-1.21875 -1.3594,1.00781 0.5938,1.875 -1.5566,0.83008 -1.1563,-1.4375 -1.5254,0.75976 0.252,1.94727 -1.6797,0.54297 -0.8594,-1.62696 -1.6094,0.47266 -0.092,1.96289 -1.7461,0.24219 -0.5742,-1.75 -1.6777,0.18359 -0.4356,1.91602 -1.7617,-0.0684 -0.047,-1.8125 -1.4765,-0.0723 -0.7324,1.82227 -1.7305,-0.34766 0.022,-1.84375 -1.6582,-0.38086 -1.043,1.66406 -1.6406,-0.64648 0.3457,-1.81055 -1.5625,-0.66992 -1.3203,1.45508 -1.502,-0.92578 0.6738,-1.71289 -1.4101,-0.92578 -1.5547,1.20117 -1.3145,-1.17383 1.1407,-1.4082 -1.0879,-0.98828 -1.7227,0.94335 -1.1152,-1.36718 1.1855,-1.41016 -1.0371,-1.34766 -1.8633,0.62305 -0.8574,-1.54101 1.418,-1.17969 -0.7832,-1.50977 -1.9453,0.28711 -0.5703,-1.66797 1.6074,-0.89648 -0.5039,-1.60938 -1.9629,-0.0605 -0.2695,-1.74219 1.7382,-0.60742 -0.2129,-1.67774 -1.9238,-0.40234 0.041,-1.76367 1.8184,-0.30469 0.086,-1.70117 -1.8203,-0.73633 0.3496,-1.72851 1.8399,0.0488 0.3769,-1.63281 -1.666,-1.04297 0.6484,-1.64062 1.8047,0.35547 0.6621,-1.55274 -1.455,-1.31836 0.9238,-1.50195 1.668,0.73828 0.8671,-1.34961 -1.2128,-1.54492 1.164,-1.32422 1.5879,0.93945 1.1582,-1.24414 -0.9199,-1.73633 1.3809,-1.09765 1.3945,1.20508 1.3613,-1.01954 -0.5996,-1.87109 1.5508,-0.83594 1.1484,1.4375 1.5059,-0.75781 -0.2637,-1.94726 1.6758,-0.55274 0.8828,1.61719 1.6211,-0.48438 0.082,-1.96289 1.7461,-0.25 0.5977,1.7461 1.6933,-0.19336 z m -0.1075,5.07226 c -5.4898,0.14527 -10.2522,2.52925 -14.4707,7.49024 l 11.3008,8.17578 c 1.1046,-1.22346 3.5177,-2.22024 5.4551,-1.74023 l 5.0723,-12.93946 c -2.1821,-0.59937 -4.2633,-0.93234 -6.25,-0.98633 -0.3725,-0.0101 -0.7414,-0.01 -1.1075,0 z m 8.6094,1.33594 -4.2441,13.25781 c 1.574,0.4717 3.3066,2.81458 3.3066,4.8086 l 13.9434,0.68164 c -0.3602,-9.04437 -4.4639,-15.16855 -13.0059,-18.74805 z m -42.4511,1.94531 1.0976,0.14258 0.4219,1.55664 1.0332,0.33203 1.2871,-0.98046 0.9707,0.52734 -0.1426,1.62891 0.8672,0.71484 1.5645,-0.43359 0.7011,0.84961 -0.8105,1.38281 0.5078,0.84375 1.6191,0.13281 0.3614,1.03906 -1.2168,1.03711 0.1679,1.03516 1.4649,0.69726 -0.041,1.09766 -1.5215,0.58984 -0.2403,1.07227 1.1055,1.18555 -0.4414,1.00781 -1.6211,-0.0254 -0.6054,0.89453 0.5957,1.50195 -0.7793,0.7793 -1.5352,-0.58398 -0.9316,0.63281 -0.012,1.61328 -1.0136,0.4375 -1.0801,-1.14453 -0.9668,0.24218 -0.5684,1.50977 -1.1054,0.0625 -0.7246,-1.45508 -1.0977,-0.14258 -1.0879,1.19727 -1.0508,-0.34766 -0.1191,-1.60742 -0.9512,-0.52148 -1.4512,0.72265 -0.8515,-0.70312 0.4492,-1.57227 -0.7168,-0.86523 -1.6191,0.13281 -0.5274,-0.9668 1.0606,-1.14453 -0.3243,-0.90625 -1.5664,-0.42187 -0.166,-1.08789 1.3867,-0.85352 0.041,-1.09961 -1.3008,-0.96484 0.248,-1.07031 1.5996,-0.26758 0.4317,-0.99024 -0.8614,-1.36914 0.6231,-0.9082 1.6172,0.29688 0.8008,-0.79102 -0.2871,-1.58789 0.9179,-0.61328 1.2461,0.94726 0.8711,-0.40234 0.2715,-1.5918 1.0723,-0.26758 0.9882,1.29102 1.1055,-0.0664 z m -0.7266,3.85743 c -0.1621,-0.004 -0.3243,-0.002 -0.4863,0.006 -0.2276,0.0115 -0.4544,0.0343 -0.6797,0.0684 -3.7392,0.55841 -6.3131,4.02428 -5.7481,7.74024 0.5641,3.71555 4.0525,6.27431 7.791,5.71484 3.7392,-0.55841 6.3131,-4.02428 5.7481,-7.74023 -0.4971,-3.2741 -3.294,-5.71807 -6.625,-5.78906 z m 19.3125,1.60937 c -4.9063,7.60668 -5.2467,14.95268 -0.3164,22.79297 l 11.1504,-8.34766 c -1.0952,-2.14355 -0.879,-4.62657 0.035,-5.91406 z m -19.6484,1.4043 c 0.1275,-0.006 0.2553,-0.006 0.3828,0 1.8135,0.0908 3.3122,1.43846 3.584,3.22265 0.3149,2.07275 -1.1213,4.00572 -3.2071,4.31641 -2.084,0.31134 -4.0283,-1.11461 -4.3437,-3.18555 -0.3149,-2.07272 1.1212,-4.00566 3.207,-4.3164 0.125,-0.0186 0.2508,-0.031 0.377,-0.0371 z m 0.068,1.38281 c -0.08,0.004 -0.1593,0.0117 -0.2383,0.0234 -1.3232,0.19732 -2.2343,1.4233 -2.0351,2.73828 0.1993,1.31552 1.4342,2.22164 2.7578,2.02344 1.3233,-0.19821 2.2337,-1.42519 2.0332,-2.74024 -0.1734,-1.13103 -1.1237,-1.98499 -2.2734,-2.04297 l 0,-0.002 c -0.081,-0.004 -0.1629,-0.004 -0.2442,0 z m 36.0586,5.08399 c -2.0208,0.0634 -3.6077,1.75265 -3.5449,3.77343 0.063,2.02156 1.7539,3.60882 3.7754,3.54492 2.0208,-0.0634 3.6077,-1.75265 3.5449,-3.77343 -0.063,-2.02156 -1.7539,-3.60882 -3.7754,-3.54492 z m 6.4531,4.80273 c -0.1697,1.93619 -1.5102,3.99681 -3.4082,4.60742 l 3.8672,13.39453 c 8.4975,-3.1182 12.7106,-8.62918 13.4961,-17.85742 z m -10.9258,3.46484 -11.5058,7.80078 c 5.7127,7.02114 12.5728,9.4444 21.5547,7.18555 l -4.4805,-13.2168 c -1.6831,0.37547 -4.3888,-0.46327 -5.5684,-1.76953 z"
         style="fill:#000000;fill-opacity:1;fill-rule:evenodd;stroke:none;stroke-width:0.1;stroke-linecap:butt;stroke-linejoin:miter;stroke-miterlimit:4;stroke-dasharray:none;stroke-opacity:1" />
    </clipPath>
    <clipPath
       clipPathUnits="userSpaceOnUse"
       id="clipPath4277">
      <path
         style="fill:#000000;fill-opacity:1;fill-rule:evenodd;stroke:none;stroke-width:0.1;stroke-linecap:butt;stroke-linejoin:miter;stroke-miterlimit:4;stroke-dasharray:none;stroke-opacity:1"
         d="m -46.727107,-376.44013 c 0.13723,7.8903 2.16439,20.3202 11.60351,31.1211 -13.09338,16.4684 -10.42706,35.4594 -9.36719,38.9785 1.10017,3.6529 6.77789,31.8567 44.97657,31.3418 35.35552,-0.4766 94.87336,-71.4181 97.0332,-73.6699 -2.49439,-3.2028 -64.38243,-68.6745 -100.44727,-68.6836 -36.96065,-0.01 -42.68617,29.8961 -43.33203,33.5449 -0.20018,1.131 -0.52917,3.7808 -0.46679,7.3672 z m 8.89843,56.5782 0.20313,-1.8418 1.84375,-0.1465 0.2168,-1.7676 -1.88868,-0.834 0.4375,-1.7988 1.84571,0.086 0.43359,-1.6992 -1.77344,-1.0371 0.65625,-1.7324 1.82227,0.3164 0.64844,-1.6563 -1.61914,-1.2793 0.87109,-1.6328 1.76758,0.5449 0.81054,-1.4609 -1.5,-1.3594 1.0586,-1.5215 1.68945,0.752 1.0332,-1.4492 -1.25976,-1.6348 1.24219,-1.373 1.58203,0.957 1.18945,-1.2871 -1.06055,-1.7578 1.40235,-1.209 1.44922,1.1465 1.36132,-1.1446 -0.8125,-1.8964 1.54493,-1.0196 1.29296,1.3203 1.50586,-0.9687 -0.55468,-1.9883 1.66406,-0.8144 1.11328,1.4765 1.60547,-0.7656 -0.30859,-2.041 1.7539,-0.5996 0.91602,1.6054 1.66601,-0.5468 -0.0742,-2.0547 1.8125,-0.3731 0.71094,1.7051 1.7461,-0.3398 0.21093,-2.0528 1.84571,-0.1425 0.48828,1.7812 1.48242,-0.09 0.45508,-2.002 1.84961,0.072 0.27734,1.8281 1.77734,0.09 0.69727,-1.9394 1.82813,0.3047 0.043,1.8476 1.72657,0.3125 0.91015,-1.8437 1.77344,0.5351 -0.18555,1.8379 1.69922,0.5293 1.15821,-1.7051 1.69335,0.754 -0.41796,1.7988 1.62695,0.748 1.375,-1.5371 1.58398,0.9629 -0.64453,1.7324 1.50977,0.9395 1.55273,-1.3574 1.44922,1.1543 -0.85937,1.6367 1.35937,1.1094 1.68945,-1.17 1.29297,1.3262 -1.05469,1.5176 1.22852,1.2871 1.8418,-0.9277 1.11523,1.4804 -1.23828,1.3711 0.94727,1.3067 1.83007,-0.836 0.93555,1.5977 -1.38867,1.2207 0.88281,1.5429 2.01172,-0.4589 0.72656,1.705 -1.53125,1.0332 0.66797,1.6211 2.04297,-0.2285 0.50781,1.7813 -1.64843,0.8359 0.4707,1.7149 2.0625,0.059 0.2793,1.83 -1.74219,0.6192 0.24804,1.7734 2.03711,0.3301 0.0449,1.8515 -1.8086,0.3926 0.0234,1.7774 1.98047,0.5742 -0.18945,1.8437 -1.8418,0.1602 -0.20117,1.7422 1.89648,0.7929 -0.41797,1.8047 -1.84765,-0.072 -0.42188,1.7285 1.77539,1.0508 -0.64453,1.7382 -1.82422,-0.3046 -0.64062,1.6445 1.62304,1.2461 -0.85351,1.6426 -1.77149,-0.5274 -0.83789,1.5703 1.46094,1.459 -1.05859,1.5195 -1.68946,-0.746 -1.0625,1.4589 1.23243,1.6875 -1.2461,1.3731 -1.58008,-0.959 -1.20703,1.3066 1.04492,1.7793 -1.41015,1.2071 -1.44336,-1.1524 -1.3457,1.127 0.83007,1.8789 -1.54492,1.0215 -1.29297,-1.3223 -1.49414,0.9629 0.56641,1.9844 -1.66406,0.8183 -1.11329,-1.4765 -1.61718,0.7715 0.29687,2.041 -1.75195,0.5976 -0.91797,-1.6054 -1.68945,0.5586 0.0488,2.0624 -1.81641,0.3692 -0.70703,-1.707 -1.72266,0.332 -0.18164,2.0469 -1.84765,0.1425 -0.49024,-1.7832 -1.77344,0.1192 -0.46875,2.0097 -1.84961,-0.092 -0.25781,-1.8301 -1.6875,-0.1153 -0.61328,1.9356 -1.82422,-0.3145 -0.0391,-1.8476 -1.75,-0.3203 -0.94336,1.8339 -1.77344,-0.541 0.19727,-1.8379 -1.67188,-0.5312 -1.14062,1.709 -1.69141,-0.7598 0.42383,-1.7988 -1.61328,-0.7461 -1.37305,1.541 -1.58008,-0.9648 0.64844,-1.7325 -1.51758,-0.9511 -1.56445,1.3437 -1.44336,-1.1601 0.86328,-1.6329 -1.375,-1.1289 -1.7168,1.1465 -1.28515,-1.334 1.06445,-1.5117 -1.20508,-1.2754 -1.82617,0.9395 -1.10937,-1.4824 1.24218,-1.3692 -1.05078,-1.4355 -1.94726,0.6816 -0.91211,-1.6094 1.40625,-1.2011 -0.80664,-1.4805 -1.95899,0.5195 -0.71484,-1.709 1.54101,-1.0234 -0.66796,-1.6465 -2.05664,0.1836 -0.49024,-1.7851 1.65625,-0.8184 -0.44727,-1.6973 -2.05273,-0.047 -0.26562,-1.8321 1.74414,-0.6074 -0.23438,-1.7656 -2.03711,-0.3301 -0.0293,-1.8516 1.80665,-0.3828 -0.008,-1.789 z m 9.07032,0.8007 c 0.0181,6.0396 1.88998,11.8569 4.83007,15.4707 l 10.9375,-8.9199 c -1.85453,-4.0639 -2.26083,-6.8547 -0.87695,-11.539 l -12.75195,-5.6973 c -1.49349,3.3567 -2.14954,7.0618 -2.13867,10.6855 z m 2.71484,-11.8964 13.0332,5.1328 c 2.36851,-3.7981 4.57126,-5.2712 9.30469,-6.5684 l -1.43945,-13.8926 c -9.74382,1.0253 -18.24206,8.3637 -20.89844,15.3282 z m 2.98242,28.375 c 5.77991,7.9111 16.44011,11.7824 23.79688,10.582 l -2.13086,-13.9356 c -4.68518,-0.3225 -7.00366,-1.3365 -10.37696,-4.8691 z m 10.58399,-17.0625 c -0.0145,0.3684 -0.0106,0.7374 0.0117,1.1054 0.3765,6.0873 5.6158,10.7171 11.70313,10.3418 6.08802,-0.3755 10.71902,-5.6151 10.34375,-11.7031 -0.3765,-6.0873 -5.61579,-10.7171 -11.70312,-10.3418 -5.6609,0.3496 -10.13679,4.9302 -10.35547,10.5977 z m 4.7539,0.1835 c 0.12447,-3.2262 2.67213,-5.8338 5.89453,-6.0332 3.4658,-0.2146 6.44935,2.421 6.66407,5.8868 0.21337,3.4665 -2.42413,6.4494 -5.89063,6.6621 -3.46502,0.2134 -6.44732,-2.4218 -6.66211,-5.8867 -0.0125,-0.2094 -0.0144,-0.4194 -0.006,-0.629 z m 2.20117,0.086 c -0.005,0.1354 -0.003,0.271 0.006,0.4062 0.13857,2.2507 2.07548,3.9629 4.32618,3.8243 2.25068,-0.1386 3.96283,-2.0755 3.82421,-4.3262 -0.13861,-2.2515 -2.07672,-3.9639 -4.32812,-3.8242 -2.09348,0.1294 -3.74838,1.8239 -3.82813,3.9199 z m 1.78125,-27.1211 2.3711,13.9062 c 4.63285,0.3857 6.90849,1.521 10.19726,4.7364 l 11.41407,-8.1035 c -5.8043,-7.893 -16.62935,-11.7622 -23.98243,-10.5391 z m 4.40235,40.4824 1.40625,13.8945 c 9.74615,-1.0021 18.53972,-8.3795 21.21289,-15.3378 l -13.10938,-5.1856 c -2.55275,4.1188 -5.06647,5.3276 -9.50976,6.6289 z m 9.49219,-19.998 c 1.92272,3.9609 2.1939,7.1521 1.04687,11.3711 l 12.63086,5.9629 c 4.00137,-8.9433 2.05538,-20.3057 -2.63672,-26.0977 z m 15.5332,-23.2442 0.0644,-1.7617 1.82031,-0.2539 0.10547,-1.6738 -1.8125,-0.7559 0.36914,-1.7246 1.83985,0.055 0.40039,-1.6387 -1.65235,-1.0625 0.66602,-1.6328 1.72852,0.5547 0.58203,-1.3809 -1.46094,-1.3144 0.91797,-1.5039 1.72461,0.6523 0.92773,-1.4258 -1.20508,-1.5507 1.16993,-1.3204 1.58203,0.9454 1.16406,-1.2383 -0.91406,-1.7403 1.38476,-1.0918 1.37891,1.2208 1.35351,-1.0079 -0.5957,-1.873 1.55469,-0.832 1.14844,1.4394 1.51367,-0.7558 -0.25781,-1.9493 1.67773,-0.5468 0.88867,1.6171 1.63477,-0.4824 0.0898,-1.9629 1.74805,-0.2422 0.5625,1.752 1.66797,-0.1855 0.43164,-1.9161 1.76172,0.066 0.26171,1.8223 1.6836,0.1113 0.76172,-1.8105 1.72265,0.373 -0.26562,1.795 1.44336,0.3281 1.03906,-1.666 1.64258,0.6425 -0.3418,1.8106 1.56641,0.666 1.3164,-1.457 1.50391,0.9219 -0.65625,1.7226 1.42383,0.9316 1.55273,-1.2031 1.31641,1.1739 -0.96094,1.5703 1.22656,1.1562 1.74024,-0.9121 1.0918,1.3867 -1.21875,1.3809 1.00781,1.3594 1.875,-0.5938 0.83008,1.5566 -1.4375,1.1563 0.75976,1.5254 1.94727,-0.252 0.54297,1.6797 -1.62696,0.8594 0.47266,1.6094 1.96289,0.092 0.24219,1.7461 -1.75,0.5742 0.18359,1.6777 1.91602,0.4356 -0.0684,1.7617 -1.8125,0.047 -0.0723,1.4765 1.82227,0.7324 -0.34766,1.7305 -1.84375,-0.022 -0.38086,1.6582 1.66406,1.043 -0.64648,1.6406 -1.81055,-0.3457 -0.66992,1.5625 1.45508,1.3203 -0.92578,1.502 -1.71289,-0.6738 -0.92578,1.4101 1.20117,1.5547 -1.17383,1.3145 -1.4082,-1.1407 -0.98828,1.0879 0.94335,1.7227 -1.36718,1.1152 -1.41016,-1.1855 -1.34766,1.0371 0.62305,1.8633 -1.54101,0.8574 -1.17969,-1.418 -1.50977,0.7832 0.28711,1.9453 -1.66797,0.5703 -0.89648,-1.6074 -1.60938,0.5039 -0.0605,1.9629 -1.74219,0.2695 -0.60742,-1.7382 -1.67774,0.2129 -0.40234,1.9238 -1.76367,-0.041 -0.30469,-1.8184 -1.70117,-0.086 -0.73633,1.8203 -1.72851,-0.3496 0.0488,-1.8399 -1.63281,-0.3769 -1.04297,1.666 -1.64062,-0.6484 0.35547,-1.8047 -1.55274,-0.6621 -1.31836,1.455 -1.50195,-0.9238 0.73828,-1.668 -1.34961,-0.8671 -1.54492,1.2128 -1.32422,-1.164 0.93945,-1.5879 -1.24414,-1.1582 -1.73633,0.9199 -1.09765,-1.3809 1.20508,-1.3945 -1.01954,-1.3613 -1.87109,0.5996 -0.83594,-1.5508 1.4375,-1.1484 -0.75781,-1.5059 -1.94726,0.2637 -0.55274,-1.6758 1.61719,-0.8828 -0.48438,-1.6211 -1.96289,-0.082 -0.25,-1.7461 1.7461,-0.5977 -0.19336,-1.6933 z m 5.07226,0.1075 c 0.14527,5.4898 2.52925,10.2522 7.49024,14.4707 l 8.17578,-11.3008 c -1.22346,-1.1046 -2.22024,-3.5177 -1.74023,-5.4551 l -12.93946,-5.0723 c -0.59937,2.1821 -0.93234,4.2633 -0.98633,6.25 -0.0101,0.3725 -0.01,0.7414 0,1.1075 z m 1.33594,-8.6094 13.25781,4.2441 c 0.4717,-1.574 2.81458,-3.3066 4.8086,-3.3066 l 0.68164,-13.9434 c -9.04437,0.3602 -15.16855,4.4639 -18.74805,13.0059 z m 1.94531,42.4511 0.14258,-1.0976 1.55664,-0.4219 0.33203,-1.0332 -0.98046,-1.2871 0.52734,-0.9707 1.62891,0.1426 0.71484,-0.8672 -0.43359,-1.5645 0.84961,-0.7011 1.38281,0.8105 0.84375,-0.5078 0.13281,-1.6191 1.03906,-0.3614 1.03711,1.2168 1.03516,-0.1679 0.69726,-1.4649 1.09766,0.041 0.58984,1.5215 1.07227,0.2403 1.18555,-1.1055 1.00781,0.4414 -0.0254,1.6211 0.89453,0.6054 1.50195,-0.5957 0.7793,0.7793 -0.58398,1.5352 0.63281,0.9316 1.61328,0.012 0.4375,1.0136 -1.14453,1.0801 0.24218,0.9668 1.50977,0.5684 0.0625,1.1054 -1.45508,0.7246 -0.14258,1.0977 1.19727,1.0879 -0.34766,1.0508 -1.60742,0.1191 -0.52148,0.9512 0.72265,1.4512 -0.70312,0.8515 -1.57227,-0.4492 -0.86523,0.7168 0.13281,1.6191 -0.9668,0.5274 -1.14453,-1.0606 -0.90625,0.3243 -0.42187,1.5664 -1.08789,0.166 -0.85352,-1.3867 -1.09961,-0.041 -0.96484,1.3008 -1.07031,-0.248 -0.26758,-1.5996 -0.99024,-0.4317 -1.36914,0.8614 -0.9082,-0.6231 0.29688,-1.6172 -0.79102,-0.8008 -1.58789,0.2871 -0.61328,-0.9179 0.94726,-1.2461 -0.40234,-0.8711 -1.5918,-0.2715 -0.26758,-1.0723 1.29102,-0.9882 -0.0664,-1.1055 z m 3.85743,0.7266 c -0.004,0.1621 -0.002,0.3243 0.006,0.4863 0.0115,0.2276 0.0343,0.4544 0.0684,0.6797 0.55841,3.7392 4.02428,6.3131 7.74024,5.7481 3.71555,-0.5641 6.27431,-4.0525 5.71484,-7.791 -0.55841,-3.7392 -4.02428,-6.3131 -7.74023,-5.7481 -3.2741,0.4971 -5.71807,3.294 -5.78906,6.625 z m 1.60937,-19.3125 c 7.60668,4.9063 14.95268,5.2467 22.79297,0.3164 l -8.34766,-11.1504 c -2.14355,1.0952 -4.62657,0.879 -5.91406,-0.035 z m 1.4043,19.6484 c -0.006,-0.1275 -0.006,-0.2553 0,-0.3828 0.0908,-1.8135 1.43846,-3.3122 3.22265,-3.584 2.07275,-0.3149 4.00572,1.1213 4.31641,3.2071 0.31134,2.084 -1.11461,4.0283 -3.18555,4.3437 -2.07272,0.3149 -4.00566,-1.1212 -4.3164,-3.207 -0.0186,-0.125 -0.031,-0.2508 -0.0371,-0.377 z m 1.38281,-0.068 c 0.004,0.08 0.0117,0.1593 0.0234,0.2383 0.19732,1.3232 1.4233,2.2343 2.73828,2.0351 1.31552,-0.1993 2.22164,-1.4342 2.02344,-2.7578 -0.19821,-1.3233 -1.42519,-2.2337 -2.74024,-2.0332 -1.13103,0.1734 -1.98499,1.1237 -2.04297,2.2734 l -0.002,0 c -0.004,0.081 -0.004,0.1629 0,0.2442 z m 5.08399,-36.0586 c 0.0634,2.0208 1.75265,3.6077 3.77343,3.5449 2.02156,-0.063 3.60882,-1.7539 3.54492,-3.7754 -0.0634,-2.0208 -1.75265,-3.6077 -3.77343,-3.5449 -2.02156,0.063 -3.60882,1.7539 -3.54492,3.7754 z m 4.80273,-6.4531 c 1.93619,0.1697 3.99681,1.5102 4.60742,3.4082 l 13.39453,-3.8672 c -3.1182,-8.4975 -8.62918,-12.7106 -17.85742,-13.4961 z m 3.46484,10.9258 7.80078,11.5058 c 7.02114,-5.7127 9.4444,-12.5728 7.18555,-21.5547 l -13.2168,4.4805 c 0.37547,1.6831 -0.46327,4.3888 -1.76953,5.5684 z"
         id="path4279" />
    </clipPath>
    <clipPath
       clipPathUnits="userSpaceOnUse"
       id="clipPath4285">
      <path
         id="path4287"
         d="m -1264.7204,177.42277 c -18.8888,0.32852 -48.645,5.18137 -74.5015,27.77787 -39.4241,-31.3445 -84.887,-24.96155 -93.3114,-22.42429 -8.7448,2.63371 -76.2624,16.2257 -75.0297,107.67027 1.1408,84.63826 170.9691,227.11917 176.3597,232.28966 7.6672,-5.97137 164.4012,-154.12635 164.4231,-240.46266 0.023,-88.48082 -71.5689,-102.18725 -80.3038,-103.73339 -2.7075,-0.47922 -9.0509,-1.2668 -17.6364,-1.11746 z m -135.4438,21.30212 4.4092,0.48627 0.3507,4.4138 4.2314,0.51901 1.9967,-4.52136 4.3061,1.04734 -0.206,4.41848 4.0678,1.03798 2.4828,-4.24546 4.1472,1.571 -0.7575,4.36236 3.9651,1.55232 3.0625,-3.87609 3.9088,2.08532 -1.3043,4.23144 3.4972,1.94037 3.2543,-3.59089 3.6423,2.53421 -1.8001,4.04442 3.4691,2.47339 3.9135,-3.01577 3.2869,2.97371 -2.2909,3.78726 3.0813,2.84744 4.208,-2.53887 2.8942,3.35711 -2.7447,3.46931 2.7401,3.2589 4.5399,-1.94507 2.4407,3.69845 -3.1605,3.09523 2.3189,3.60492 4.7598,-1.32786 1.9497,3.98362 -3.5346,2.6651 1.8327,3.84337 4.8861,-0.73873 1.4353,4.19868 -3.8432,2.19289 1.309,3.98829 4.9188,-0.17763 0.8931,4.33897 -4.0819,1.70193 0.8135,4.18003 4.9143,0.50495 0.3411,4.41848 -4.264,1.16891 0.2154,3.54879 4.7927,1.08942 -0.1725,4.42782 -4.3763,0.66393 -0.2154,4.25481 4.6428,1.6692 -0.7295,4.3764 -4.423,0.10286 -0.7481,4.13327 4.4137,2.17883 -1.281,4.24546 -4.3998,-0.44418 -1.267,4.0678 4.0819,2.77265 -1.8051,4.05375 -4.3062,-1.00056 -1.7907,3.89478 3.6797,3.29163 -2.3051,3.79193 -4.1471,-1.54296 -2.2491,3.61427 3.2494,3.71712 -2.7633,3.46931 -3.9181,-2.05727 -2.6558,3.25423 2.8009,4.04441 -3.1748,3.09526 -3.633,-2.52484 -3.0813,2.94098 2.2209,4.40912 -3.5439,2.66976 -3.2824,-2.96434 -3.1282,2.2677 2.0013,4.38104 -3.8247,2.23963 -2.9222,-3.32437 -3.6936,2.11338 1.0986,4.8159 -4.0817,1.73932 -2.4733,-3.66569 -3.8808,1.59907 0.547,4.89071 -4.2643,1.21564 -2.0011,-3.94619 -4.1053,1.12681 -0.1412,4.93746 -4.3809,0.66861 -1.4824,-4.17066 -4.2454,0.5938 -0.7902,4.87667 -4.4322,0.10752 -0.94,-4.32964 -4.2549,0.056 -1.3746,4.74109 -4.4137,-0.45352 -0.3835,-4.40913 -4.1707,-0.48158 -1.8981,4.54002 -4.3203,-1.00058 0.1723,-4.42314 -4.1379,-1.00994 -2.5155,4.25014 -4.1611,-1.54295 0.7293,-4.36703 -3.9368,-1.53361 -2.9831,3.88544 -3.9323,-2.04324 1.2625,-4.24079 -3.7591,-2.00585 -3.4928,3.49737 -3.6375,-2.53418 1.7858,-4.04443 -3.4924,-2.54353 -4.0398,2.95034 -3.2871,-2.98308 2.2958,-3.78258 -3.1278,-2.88953 -4.2596,2.50146 -2.8897,-3.37579 2.7588,-3.45529 -2.698,-3.2215 -4.498,1.98712 -2.4453,-3.6984 3.1654,-3.09528 -2.305,-3.57684 -4.7505,1.35594 -1.959,-3.98364 3.5347,-2.66511 -1.8469,-3.87142 -4.8861,0.7107 -1.4306,-4.19404 3.8432,-2.19754 -1.3372,-4.04441 -4.9372,0.11688 -0.8838,-4.34834 4.0863,-1.69258 -0.7948,-4.12391 -4.9,-0.43482 -0.3411,-4.42313 4.2688,-1.1736 -0.2854,-4.24547 -4.8111,-1.12216 0.2203,-4.4278 4.3811,-0.61719 0.276,-4.03973 -4.6337,-1.46815 0.7528,-4.36703 4.4231,-0.0936 0.7668,-4.18936 -4.3901,-2.25832 1.2951,-4.24547 4.3998,0.47224 1.2716,-4.00234 -4.0912,-2.73055 1.8189,-4.04911 4.3061,1.01461 1.7862,-3.86205 -3.6891,-3.28698 2.3097,-3.78257 4.1474,1.55231 2.2769,-3.63297 -3.2167,-3.74517 2.7772,-3.45528 3.909,2.06662 2.7024,-3.29164 -2.7446,-4.10987 3.1935,-3.07656 3.6189,2.54821 3.0532,-2.88486 -2.2491,-4.3717 3.5488,-2.65576 3.2777,2.97369 3.4365,-2.51548 -1.6317,-4.66158 3.8528,-2.18352 2.8753,3.36644 3.5443,-1.93102 -1.2438,-4.68967 4.0913,-1.71127 2.4499,3.68906 3.9416,-1.59905 -0.4394,-4.92343 4.2733,-1.17359 1.9591,3.96493 4.0633,-1.07073 0.1126,-4.91407 4.3859,-0.63588 1.4541,4.17533 4.2266,-0.56108 0.7903,-4.87668 4.4326,-0.0702 0.9164,4.32498 4.2827,-0.0192 z m -1.9168,21.71361 c -14.4583,0.0434 -28.3844,4.52447 -37.0356,11.5628 l 21.3536,26.1835 c 9.7286,-4.4396 16.4095,-5.41224 27.6234,-2.09935 l 13.6388,-30.52713 c -8.0356,-3.5753 -16.9053,-5.14584 -25.5802,-5.11982 z m 28.479,6.49912 -12.2875,31.20043 c 9.0924,5.67001 12.619,10.94322 15.7243,22.27467 l 33.2577,-3.44593 c -2.4544,-23.32591 -20.0221,-43.67002 -36.6945,-50.02917 z m -67.9274,7.13967 c -18.9385,13.83664 -28.2061,39.3563 -25.3325,56.96781 l 33.3607,-5.1011 c 0.7721,-11.21595 3.1995,-16.76621 11.6563,-24.84162 z m 40.8462,25.33722 c -0.8819,-0.0347 -1.7653,-0.0254 -2.6462,0.028 -14.5726,0.9013 -25.6559,13.44376 -24.7574,28.01634 0.8989,14.57422 13.4421,25.66048 28.0163,24.76211 14.5724,-0.90131 25.6558,-13.44375 24.7574,-28.01633 -0.8369,-13.55175 -11.8026,-24.26665 -25.3701,-24.79015 z m -0.4392,11.38045 c 7.7232,0.29797 13.9656,6.39686 14.443,14.11103 0.5137,8.29684 -5.7957,15.43922 -14.0926,15.95324 -8.2984,0.51079 -15.4393,-5.80317 -15.9485,-14.10168 -0.5109,-8.29498 5.7976,-15.43437 14.0922,-15.94856 0.5013,-0.0298 1.0041,-0.0345 1.5059,-0.0143 z m -0.2059,5.26942 c -0.3242,-0.012 -0.6488,-0.007 -0.9724,0.0143 -5.388,0.33172 -9.487,4.96853 -9.1552,10.35652 0.332,5.38795 4.9687,9.48671 10.3568,9.15486 5.3897,-0.33183 9.4891,-4.9715 9.1546,-10.36117 -0.3097,-5.01162 -4.3662,-8.97332 -9.3838,-9.16423 z m 64.9257,4.26417 -33.2904,5.67622 c -0.9232,11.09067 -3.6411,16.53837 -11.3384,24.41142 l 19.399,27.32437 c 18.8953,-13.89503 28.1577,-39.80933 25.2298,-57.41201 z m -96.9116,10.53887 -33.2624,3.36646 c 2.399,23.33149 20.06,44.38259 36.7175,50.78194 l 12.414,-31.38279 c -9.8602,-6.11108 -12.7539,-12.12873 -15.8691,-22.76561 z m 47.8736,22.72354 c -9.482,4.60284 -17.1216,5.25202 -27.2215,2.50612 l -14.2747,30.23726 c 21.4095,9.57896 48.6102,4.92041 62.4758,-6.31209 z m 55.6447,37.18522 4.2173,0.15417 0.608,4.35768 4.0069,0.25249 1.8096,-4.33898 4.1284,0.8837 -0.1316,4.40444 3.9229,0.9585 2.5435,-3.95558 3.9089,1.5944 -1.328,4.13793 3.3058,1.39333 3.1466,-3.49737 3.6003,2.19755 -1.5617,4.12857 3.4133,2.22091 3.7123,-2.88486 3.1609,2.80072 -2.2632,3.78725 2.9644,2.78666 4.1661,-2.18818 2.6136,3.315 -2.9224,3.30101 2.4127,3.24018 4.4839,-1.42605 1.9918,3.72179 -3.4459,2.74928 1.8094,3.62361 4.6664,-0.61718 1.309,4.01635 -3.8712,2.1274 1.1549,3.91351 4.699,0.21498 0.5798,4.18469 -4.1943,1.34657 0.4443,3.993 4.5869,1.0333 -0.158,4.21741 -4.3625,0.62653 -0.2664,4.03039 4.3342,1.82351 -0.8929,4.12387 -4.2972,-0.63587 -0.7854,3.45529 3.9883,2.48743 -1.5381,3.93221 -4.3344,-0.81825 -1.5943,3.74985 3.4879,3.15136 -2.207,3.60024 -4.1238,-1.57101 -2.23,3.40853 2.88,3.71711 -2.8103,3.15139 -3.7591,-2.30042 -2.7678,2.93629 2.1835,4.16599 -3.3196,2.61369 -3.3059,-2.9176 -3.2542,2.41262 1.4214,4.4886 -3.7263,1.98715 -2.7681,-3.44126 -3.6516,1.8188 0.6032,4.66161 -4.0211,1.29983 -2.0573,-3.89482 -3.8527,1.13151 -0.2203,4.699 -4.18,0.57978 -1.3747,-4.18934 -4.0162,0.43949 -1.0428,4.58679 -4.2173,-0.16374 -0.1127,-4.33898 -3.5346,-0.17309 -1.7532,4.36237 -4.1427,-0.83226 0.052,-4.41378 -3.9696,-0.91176 -2.4968,3.98362 -3.9276,-1.54762 0.8276,-4.33431 -3.7405,-1.60373 -3.1606,3.48335 -3.5957,-2.21625 1.6129,-4.10052 -3.3756,-2.21623 -3.7218,2.8755 -3.1468,-2.81006 2.7308,-3.37112 -2.6043,-2.36586 -4.1241,2.2583 -2.6697,-3.27292 2.8379,-3.3758 -2.4826,-3.22619 -4.4606,1.49153 -2.0525,-3.68906 3.3944,-2.82408 -1.8748,-3.61426 -4.6569,0.68732 -1.3653,-3.993 3.848,-2.14609 -1.2062,-3.85273 -4.6992,-0.14484 -0.6451,-4.17065 4.1612,-1.45412 -0.5098,-4.01638 -4.6054,-0.96317 0.099,-4.22208 4.3532,-0.7294 0.2058,-4.07247 -4.3576,-1.76271 0.8369,-4.13791 4.4047,0.11688 0.9021,-3.90882 -3.9883,-2.49679 1.5523,-3.92752 4.3202,0.85096 1.5851,-3.71712 -3.4832,-3.15605 2.2116,-3.59555 3.9931,1.76738 2.0757,-3.23085 -2.9034,-3.69843 2.7866,-3.17006 3.8013,2.24897 2.7726,-2.97838 -2.2022,-4.15663 3.3059,-2.62769 3.3383,2.88487 3.2587,-2.4407 -1.4353,-4.47924 3.7125,-2.00116 2.7491,3.44125 3.605,-1.81414 -0.6311,-4.66157 4.0116,-1.32322 2.1134,3.87142 3.8807,-1.15956 0.1963,-4.69901 4.1801,-0.59848 1.4308,4.18003 4.0537,-0.4629 z m -0.2573,12.14258 c -13.1422,0.34778 -24.5429,6.05483 -34.6417,17.93104 l 27.0532,19.57216 c 2.6444,-2.92886 8.421,-5.31508 13.0591,-4.16597 l 12.1427,-30.97603 c -5.2239,-1.43483 -10.206,-2.23194 -14.9621,-2.3612 -0.8917,-0.0242 -1.7747,-0.024 -2.6512,0 z m 20.6102,3.19815 -10.16,31.73813 c 3.7679,1.1292 7.9157,6.73786 7.9157,11.51138 l 33.3793,1.6318 c -0.8622,-21.65149 -10.6862,-36.31229 -31.135,-44.88131 z m -101.6246,4.65691 2.6276,0.34132 1.0101,3.72648 2.4733,0.79485 3.0813,-2.34714 2.3237,1.2624 -0.3414,3.89948 2.076,1.71127 3.7454,-1.03799 1.6784,2.03391 -1.9403,3.31034 1.2156,2.01986 3.876,0.31794 0.8652,2.48743 -2.9129,2.48275 0.402,2.47809 3.5067,1.66918 -0.099,2.62772 -3.6422,1.41202 -0.5752,2.56694 2.6464,2.83811 -1.0567,2.41262 -3.8808,-0.0608 -1.4491,2.14145 1.4258,3.59553 -1.8654,1.86559 -3.6752,-1.398 -2.2301,1.5149 -0.029,3.86206 -2.4264,1.04734 -2.5857,-2.73993 -2.3145,0.57976 -1.3606,3.61427 -2.6464,0.14963 -1.7345,-3.48334 -2.6278,-0.34133 -2.6043,2.86617 -2.5156,-0.83227 -0.285,-3.84803 -2.2772,-1.24838 -3.4741,1.72996 -2.0385,-1.68322 1.0754,-3.76388 -1.716,-2.07129 -3.8759,0.31794 -1.2626,-2.31444 2.539,-2.73992 -0.7763,-2.16948 -3.7499,-1.00993 -0.3973,-2.60432 3.3196,-2.04327 0.099,-2.63236 -3.1139,-2.30976 0.5935,-2.56223 3.8294,-0.64057 1.0335,-2.37055 -2.0622,-3.27762 1.4916,-2.17415 3.8715,0.71071 1.9172,-1.89364 -0.6874,-3.80129 2.1973,-1.46813 2.9831,2.26766 2.0854,-0.96317 0.6499,-3.81065 2.5671,-0.64057 2.3656,3.09061 2.6466,-0.15896 z m -1.7393,9.23437 c -0.3881,-0.01 -0.7765,-0.004 -1.1641,0.0143 -0.545,0.0275 -1.0878,0.0822 -1.6272,0.16375 -8.9514,1.33679 -15.113,9.6338 -13.7606,18.52951 1.3505,8.89472 9.7014,15.02019 18.6512,13.68087 8.9513,-1.3368 15.1129,-9.6338 13.7604,-18.52949 -1.19,-7.83793 -7.8856,-13.68861 -15.8597,-13.85855 z m 46.2325,3.8527 c -11.7452,18.20978 -12.5602,35.79551 -0.7574,54.56453 l 26.6931,-19.98361 c -2.6218,-5.13149 -2.1042,-11.07565 0.084,-14.15778 z m -47.0367,3.36179 c 0.3053,-0.0143 0.6112,-0.0143 0.9164,0 4.3414,0.21736 7.9292,3.44356 8.5799,7.71475 0.7539,4.96201 -2.6844,9.58938 -7.6775,10.33315 -4.989,0.74532 -9.6436,-2.66829 -10.3986,-7.62596 -0.7537,-4.96192 2.6841,-9.58922 7.6772,-10.33311 0.2994,-0.0446 0.6006,-0.0742 0.9026,-0.0887 z m 0.1628,3.31033 c -0.1914,0.01 -0.3813,0.028 -0.5704,0.0561 -3.1676,0.47236 -5.3489,3.40727 -4.8719,6.55521 0.4771,3.14925 3.4333,5.31843 6.6019,4.84396 3.1679,-0.4745 5.3474,-3.41178 4.8673,-6.55992 -0.4149,-2.7076 -2.69,-4.7519 -5.4423,-4.8907 l 0,-0.004 c -0.1939,-0.01 -0.39,-0.01 -0.5846,0 z m 86.3215,12.17066 c -4.8377,0.15178 -8.6366,4.19571 -8.4863,9.03328 0.1508,4.83946 4.1988,8.63924 9.038,8.48627 4.8376,-0.15178 8.6365,-4.19572 8.4862,-9.03329 -0.1508,-4.83946 -4.1988,-8.63923 -9.0379,-8.48626 z m 15.4482,11.49735 c -0.4063,4.63508 -3.6154,9.56805 -8.159,11.02978 l 9.2577,32.06544 c 20.3424,-7.46472 30.4282,-20.65756 32.3086,-42.74923 z m -26.1555,8.29454 -27.5441,18.67445 c 13.6759,16.80805 30.0984,22.60913 51.6003,17.20162 l -10.726,-31.63995 c -4.0292,0.89884 -10.5064,-1.10903 -13.3302,-4.23612 z"
         style="fill:#000000;fill-opacity:1;fill-rule:evenodd;stroke:none;stroke-width:0.1;stroke-linecap:butt;stroke-linejoin:miter;stroke-miterlimit:4;stroke-dasharray:none;stroke-opacity:1" />
    </clipPath>
    <clipPath
       clipPathUnits="userSpaceOnUse"
       id="clipPath4577">
      <path
         style="fill:#000000;fill-opacity:1;fill-rule:evenodd;stroke:none;stroke-width:0.1;stroke-linecap:butt;stroke-linejoin:miter;stroke-miterlimit:4;stroke-dasharray:none;stroke-opacity:1"
         d="m -1971.6469,-1401.4859 c -37.7372,0.6564 -97.186,10.3517 -148.8438,55.4964 -78.7638,-62.622 -169.5926,-49.8697 -186.4235,-44.8007 -17.4708,5.2618 -152.3619,32.4168 -149.8993,215.1107 2.2795,169.0958 341.5733,453.7534 352.3431,464.0833 15.3181,-11.9299 328.4514,-307.9236 328.4949,-480.4119 0.048,-176.7727 -142.9849,-204.1563 -160.4361,-207.2453 -5.4093,-0.9574 -18.0825,-2.5308 -35.2353,-2.2325 z"
         id="path4579" />
    </clipPath>
    <clipPath
       clipPathUnits="userSpaceOnUse"
       id="clipPath4903">
      <path
         style="fill:#000000;fill-opacity:1;fill-rule:evenodd;stroke:none;stroke-width:0.1;stroke-linecap:butt;stroke-linejoin:miter;stroke-miterlimit:4;stroke-dasharray:none;stroke-opacity:1"
         d="m -4835.2149,1419.7153 c -29.3607,0.5145 -75.6136,8.1139 -115.805,43.4992 -61.2807,-49.0844 -131.9482,-39.0888 -145.0433,-35.1158 -13.5927,4.1244 -118.5421,25.4091 -116.6262,168.6082 1.7735,132.5405 265.7545,355.6609 274.134,363.7578 11.9178,-9.3511 255.545,-241.3566 255.5789,-376.5564 0.035,-138.558 -111.2468,-160.0221 -124.8241,-162.4432 -4.2086,-0.7504 -14.0688,-1.9837 -27.4143,-1.7498 z"
         id="path4905" />
    </clipPath>
  </defs>
  <metadata
     id="metadata7">
    <rdf:RDF>
      <cc:Work
         rdf:about="">
        <dc:format>image/svg+xml</dc:format>
        <dc:type
           rdf:resource="http://purl.org/dc/dcmitype/StillImage" />
        <dc:title></dc:title>
      </cc:Work>
    </rdf:RDF>
  </metadata>
  <g
     style="fill:#1d1d1d;fill-opacity:1"
     id="layer1"
     transform="translate(-260.02209,-177.22017)">
    <path
       style="fill:#1d1d1d;fill-opacity:1;fill-rule:evenodd;stroke:none;stroke-width:0.1;stroke-linecap:butt;stroke-linejoin:miter;stroke-miterlimit:4;stroke-dasharray:none;stroke-opacity:1"
       d="m 362.37017,177.2203 c -7.89147,-0.0175 -20.35873,1.76557 -31.34262,10.99111 -16.20852,-13.41375 -35.24815,-11.12029 -38.78735,-10.12962 -3.67377,1.02834 -31.98347,6.15199 -32.21761,44.35342 -0.21668,35.35807 69.54425,96.25538 71.75327,98.45896 3.25109,-2.43112 69.92361,-63.0236 70.63981,-99.08133 0.73466,-36.95335 -29.05343,-43.26412 -32.68887,-43.98139 -1.12686,-0.22232 -3.7697,-0.6032 -7.35663,-0.61115 z m -56.74179,7.78743 1.83746,0.2392 0.11033,1.84627 1.76301,0.25141 0.87087,-1.87196 1.78987,0.47268 -0.12217,1.84367 1.69037,0.46682 1.07167,-1.75276 1.7192,0.69009 -0.35206,1.81571 1.64326,0.68079 1.3108,-1.59375 1.61541,0.90294 -0.57945,1.75656 1.44473,0.83902 1.38855,-1.47305 1.50045,1.08822 -0.78498,1.67438 1.42866,1.06142 1.65919,-1.22747 1.34838,1.26888 -0.98783,1.56296 1.26353,1.21445 1.77825,-1.02588 1.18128,1.42579 -1.1747,1.42646 1.11769,1.3835 1.91197,-0.77516 0.98911,1.56462 -1.3454,1.26683 0.93899,1.52456 1.9988,-0.51559 0.78161,1.67971 -1.49804,1.08411 0.73397,1.62018 2.04666,-0.26852 0.5651,1.76532 -1.62305,0.88437 0.51403,1.67641 2.05576,-0.0339 0.33749,1.81947 -1.71871,0.67737 0.3055,1.75243 2.04827,0.25113 0.10628,1.84815 -1.79043,0.45326 0.0609,1.4839 1.99269,0.49425 -0.10825,1.84784 -1.83318,0.24145 -0.12483,1.77523 1.92535,0.73516 -0.34048,1.82181 -1.84809,0.007 -0.34629,1.72011 1.8255,0.94613 -0.56977,1.7626 -1.83391,-0.22154 -0.56251,1.68851 1.68206,1.19142 -0.78705,1.67824 -1.79026,-0.45315 -0.77976,1.61197 1.50985,1.40488 -0.99377,1.56479 -1.71943,-0.67837 -0.96892,1.49106 1.32669,1.57905 -1.18249,1.42631 -1.61954,-0.8913 -1.13584,1.33736 1.13666,1.71206 -1.3513,1.26672 -1.49663,-1.08424 -1.31094,1.20305 0.89141,1.85963 -1.50198,1.08599 -1.34656,-1.26492 -1.32502,0.92147 0.79996,1.84611 -1.61574,0.90404 -1.19323,-1.41233 -1.55992,0.85239 0.41937,2.02033 -1.71892,0.69299 -1.00297,-1.55122 -1.63389,0.63606 0.1884,2.04706 -1.79091,0.47279 -0.80342,-1.66451 -1.7238,0.43699 -0.0994,2.06095 -1.83512,0.24336 -0.58493,-1.75399 -1.77792,0.21322 -0.36997,2.03025 -1.85203,0.009 -0.35706,-1.81595 -1.77752,-0.0114 -0.61292,1.96883 -1.83963,-0.22557 -0.12406,-1.84458 -1.73792,-0.23529 -0.82993,1.88057 -1.79616,-0.45328 0.10821,-1.84588 -1.71989,-0.45569 -1.08541,1.75445 -1.72523,-0.67849 0.34031,-1.81789 -1.63162,-0.67274 -1.27769,1.59829 -1.62555,-0.88555 0.56203,-1.76081 -1.55357,-0.86852 -1.48736,1.43206 -1.49845,-1.08818 0.77898,-1.67451 -1.43779,-1.0909 -1.71134,1.19911 -1.3484,-1.27278 0.98979,-1.56098 -1.28268,-1.23241 -1.79945,1.00983 -1.17922,-1.43355 1.18048,-1.42048 -1.1004,-1.36754 -1.89481,0.79307 -0.99101,-1.56465 1.34739,-1.2668 -0.93342,-1.51273 -1.99512,0.5274 -0.78552,-1.67979 1.49805,-1.08412 -0.73965,-1.632 -2.04643,0.2568 -0.56313,-1.76333 1.62309,-0.88632 -0.52537,-1.70008 -2.06296,0.008 -0.33352,-1.8233 1.72054,-0.67343 -0.29816,-1.72884 -2.04295,-0.22174 -0.10625,-1.85008 1.79247,-0.45519 -0.0844,-1.77543 -2.00013,-0.50807 0.12825,-1.84745 1.8348,-0.22188 0.14837,-1.68491 -1.92321,-0.65111 0.35021,-1.81771 1.84801,-0.003 0.35455,-1.74339 -1.81505,-0.97913 0.57566,-1.7625 1.83368,0.23327 0.56388,-1.66114 -1.68631,-1.17391 0.79282,-1.67619 1.79014,0.45902 0.77759,-1.59834 -1.51378,-1.403 0.99559,-1.56086 1.71946,0.68228 0.98067,-1.49864 -1.31277,-1.59049 1.18817,-1.42034 1.61566,0.89513 1.15565,-1.3526 -1.11262,-1.73895 1.35894,-1.25875 1.49054,1.09388 1.29878,-1.17984 -0.90352,-1.84424 1.50387,-1.08009 1.34458,1.26879 1.45583,-1.02244 -0.64329,-1.96025 1.62697,-0.88038 1.1733,1.42953 1.49603,-0.77746 -0.48099,-1.96879 1.72269,-0.6812 0.99299,1.56078 1.65928,-0.63555 -0.14325,-2.05984 1.79437,-0.45515 0.78577,1.67198 1.70575,-0.41391 0.0872,-2.05141 1.83696,-0.22965 0.57309,1.75571 1.76985,-0.19972 0.36998,-2.03024 1.85182,0.007 0.3473,1.81381 1.78882,0.0271 z M 304.65,194.0606 c -6.0388,-0.10031 -11.89168,1.65715 -15.56243,4.52582 l 8.70374,11.11029 c 4.09948,-1.7745 6.89771,-2.126 11.55398,-0.65055 l 5.94622,-12.63779 c -3.32677,-1.55902 -7.0183,-2.28759 -10.64151,-2.34777 z m 11.84088,2.94757 -5.38735,12.93006 c 3.75094,2.44252 5.18057,4.67373 6.38471,9.43168 l 13.91815,-1.16679 c -0.83406,-9.76205 -8.00443,-18.40253 -14.91551,-21.19495 z m -28.42802,2.42551 c -8.0229,5.62369 -12.10246,16.20594 -11.04654,23.58483 l 13.9747,-1.85722 c 0.4143,-4.67796 1.47356,-6.97611 5.07162,-10.2795 z m 16.85171,10.91649 c -0.36805,-0.0217 -0.73705,-0.025 -1.10542,-0.01 -6.09351,0.25707 -10.82514,5.40459 -10.56927,11.49811 0.25607,6.09421 5.40386,10.82705 11.49805,10.57122 6.09351,-0.25708 10.82514,-5.40459 10.56927,-11.49811 -0.23855,-5.66666 -4.73051,-10.2315 -10.39263,-10.56126 z m -0.27667,4.74939 c 3.22314,0.1877 5.78028,2.786 5.91647,6.01169 0.1466,3.46934 -2.54699,6.40064 -6.01633,6.54737 -3.47002,0.14536 -6.40063,-2.55012 -6.54533,-6.02012 -0.14542,-3.46854 2.54775,-6.3986 6.01619,-6.54541 0.20961,-0.008 0.4196,-0.006 0.629,0.006 z m -0.12914,2.19906 c -0.13528,-0.008 -0.27089,-0.008 -0.40624,-0.002 -2.25299,0.0944 -4.00283,1.99738 -3.90839,4.25036 0.0945,2.25297 1.9974,4.00277 4.25039,3.9083 2.25378,-0.0944 4.00385,-1.9986 3.90832,-4.25231 -0.0883,-2.09561 -1.75005,-3.78342 -3.84409,-3.90425 z m 27.08096,2.31266 -13.95002,2.09799 c -0.47646,4.6244 -1.65616,6.87734 -4.93542,10.10244 l 7.87815,11.57075 c 8.00529,-5.64843 12.08599,-16.39554 11.00729,-23.77118 z m -40.56093,3.60779 -13.9194,1.13355 c 0.81082,9.76393 8.01439,18.70045 14.91894,21.50954 l 5.44163,-13.00519 c -4.06796,-2.63302 -5.22724,-5.16995 -6.44117,-9.6379 z m 19.80804,9.88245 c -3.99783,1.84469 -7.19374,2.05325 -11.38944,0.82372 l -6.2094,12.51152 c 8.86313,4.17595 20.2615,2.45311 26.14438,-2.12453 z m 22.93519,15.98595 1.76009,0.0989 0.21817,1.82494 1.67141,0.13826 0.79129,-1.79733 1.71703,0.40288 -0.0911,1.83842 1.63053,0.43244 1.09469,-1.6312 1.61943,0.69791 -0.58848,1.71731 1.36922,0.60899 1.34279,-1.43488 1.48561,0.94728 -0.68598,1.71148 1.40733,0.95551 1.57403,-1.17444 1.29721,1.19559 -0.97624,1.56319 1.21524,1.18811 1.75789,-0.87976 1.06444,1.4059 -1.2476,1.35471 0.98117,1.37301 1.88432,-0.55886 0.80136,1.5707 -1.46164,1.12 0.72597,1.5282 1.95398,-0.21954 0.5138,1.68812 -1.63421,0.8568 0.45026,1.64391 1.96076,0.12827 0.20788,1.75246 -1.76269,0.52804 0.15276,1.67129 1.90727,0.46913 -0.10053,1.76008 -1.82708,0.22593 -0.14429,1.6811 1.79522,0.79707 -0.40671,1.715 -1.78944,-0.30076 -0.35634,1.43665 1.64531,1.07153 -0.67458,1.62966 -1.80355,-0.37723 -0.69659,1.55305 1.43091,1.34471 -0.95121,1.48555 -1.7094,-0.6899 -0.95934,1.40529 1.17243,1.57602 -1.19949,1.29314 -1.55115,-0.99154 -1.18003,1.20366 0.87781,1.75779 -1.40784,1.0644 -1.35674,-1.24559 -1.3789,0.98096 0.55692,1.88628 -1.57257,0.7994 -1.1279,-1.45989 -1.54,0.7297 0.21377,1.95184 -1.69002,0.50993 -0.82734,-1.64349 -1.61835,0.44101 -0.13047,1.96071 -1.75051,0.20791 -0.53978,-1.76092 -1.68098,0.15066 -0.47308,1.90711 -1.76002,-0.10293 -0.0115,-1.81307 -1.4748,-0.10124 -0.76798,1.80756 -1.72335,-0.38152 0.0581,-1.84296 -1.65041,-0.4133 -1.07543,1.64329 -1.62761,-0.67852 0.38113,-1.80343 -1.54906,-0.70042 -1.34858,1.42891 -1.48356,-0.95505 0.70726,-1.69935 -1.39168,-0.95325 -1.57795,1.17046 -1.29123,-1.19938 1.16809,-1.38556 -1.06832,-1.00942 -1.74086,0.90939 -1.08818,-1.38878 1.21292,-1.38665 -1.01048,-1.36773 -1.87516,0.5864 -0.82702,-1.55753 1.44086,-1.15166 -0.75345,-1.52484 -1.95056,0.24892 -0.53748,-1.67883 1.62466,-0.86479 -0.47224,-1.61895 -1.96134,-0.099 -0.23529,-1.74714 1.74977,-0.57322 -0.17996,-1.68159 -1.91554,-0.43998 0.0756,-1.76253 1.82402,-0.26898 0.11934,-1.69916 -1.80551,-0.77188 0.38342,-1.72132 1.83859,0.0849 0.40884,-1.62511 -1.64523,-1.07543 0.68044,-1.6276 1.79739,0.39079 0.69241,-1.53946 -1.42887,-1.34663 0.95307,-1.48355 1.6532,0.77084 0.8934,-1.33235 -1.18228,-1.5684 1.18974,-1.30115 1.56918,0.97041 1.18237,-1.2212 -0.88568,-1.75403 1.40215,-1.07036 1.37061,1.23219 1.38103,-0.99266 -0.5628,-1.88248 1.56689,-0.80538 1.11999,1.45974 1.52047,-0.72814 -0.22547,-1.95205 1.68632,-0.51978 0.85092,1.63419 1.63028,-0.45251 0.12047,-1.9609 1.75067,-0.21572 0.56335,1.75748 1.69677,-0.16012 z m -0.20693,5.06918 c -5.4916,0.0376 -10.29982,2.32775 -14.61478,7.20508 l 11.13833,8.39578 c 1.12838,-1.20157 3.56056,-2.15085 5.48817,-1.63295 l 5.32502,-12.83752 c -2.16992,-0.64204 -4.2442,-1.01575 -6.22946,-1.10868 -0.37223,-0.0174 -0.74106,-0.0245 -1.10728,-0.0217 z m 8.58155,1.50448 -4.50322,13.17205 c 1.56445,0.50247 3.25078,2.87887 3.21168,4.87251 l 13.92736,0.95489 c -0.18281,-9.0497 -4.16564,-15.25316 -12.63582,-18.99945 z m -42.48108,1.11262 1.09459,0.16407 0.3913,1.56462 1.02649,0.35222 1.30608,-0.95504 0.96017,0.54628 -0.17451,1.6258 0.85302,0.7317 1.5727,-0.40283 0.68431,0.86319 -0.83746,1.36666 0.49116,0.85354 1.61619,0.16453 0.34096,1.04594 -1.2369,1.01306 0.14757,1.03825 1.45094,0.72585 -0.0625,1.09664 -1.53277,0.5599 -0.26128,1.06735 1.08205,1.207 -0.46108,0.99896 -1.62029,-0.0572 -0.62282,0.88249 0.56614,1.51334 -0.79443,0.76387 -1.52346,-0.61397 -0.94383,0.61443 -0.0436,1.61273 -1.02198,0.41754 -1.05745,-1.16548 -0.97136,0.22318 -0.5979,1.49833 -1.10641,0.0408 -0.69593,-1.46901 -1.09469,-0.16408 -1.11117,1.17571 -1.04378,-0.36819 -0.0876,-1.60945 -0.94079,-0.54003 -1.46509,0.69406 -0.83755,-0.71968 0.47994,-1.56316 -0.6997,-0.87912 -1.6214,0.10104 -0.50834,-0.97695 1.08284,-1.12352 -0.30647,-0.91243 -1.55783,-0.4525 -0.14464,-1.09094 1.40317,-0.82616 0.0625,-1.0986 -1.28163,-0.99016 0.26894,-1.06524 1.60454,-0.23617 0.45103,-0.98158 -0.83439,-1.38577 0.64078,-0.89581 1.61107,0.32853 0.81616,-0.77516 -0.25591,-1.59322 0.92974,-0.59516 1.22729,0.97151 0.87882,-0.38519 0.30266,-1.58617 1.07734,-0.2465 0.9627,1.31015 1.10659,-0.0447 z m -0.80209,3.84244 c -0.16199,-0.007 -0.3242,-0.008 -0.48633,-0.004 -0.22778,0.007 -0.45498,0.0254 -0.68091,0.0551 -3.74943,0.48499 -6.39078,3.89973 -5.89875,7.62605 0.49114,3.7259 3.9287,6.35256 7.67745,5.8665 3.74943,-0.48499 6.39079,-3.89973 5.89876,-7.62605 -0.43281,-3.28321 -3.18126,-5.78155 -6.51023,-5.91784 z m 19.27723,1.98771 c -5.05449,7.50903 -5.53886,14.84694 -0.76323,22.78239 l 11.31193,-8.12744 c -1.05296,-2.16461 -0.78812,-4.64291 0.15095,-5.91223 z m -19.67215,1.0188 c 0.12759,-0.004 0.25536,-9.9e-4 0.38272,0.007 1.81137,0.12634 3.28336,1.50313 3.52013,3.2923 0.2742,2.07853 -1.19962,3.98297 -3.29111,4.25271 -2.08971,0.27042 -4.00568,-1.19338 -4.28041,-3.27011 -0.2742,-2.07849 1.19952,-3.9829 3.29101,-4.25269 0.12534,-0.0161 0.25136,-0.0261 0.37766,-0.0297 z m 0.0409,1.38388 c -0.0801,0.002 -0.1595,0.009 -0.23871,0.0187 -1.32682,0.17134 -2.26178,1.37922 -2.0884,2.69785 0.17347,1.31918 1.39037,2.24934 2.7176,2.07712 1.32693,-0.17222 2.26121,-1.38112 2.08653,-2.69985 -0.15119,-1.13421 -1.08456,-2.00664 -2.2329,-2.08715 l 4e-5,-0.002 c -0.0809,-0.006 -0.1628,-0.007 -0.24416,-0.005 z m 35.95199,5.78999 c -2.02165,0.0238 -3.64137,1.68158 -3.6182,3.7032 0.0233,2.02241 1.68281,3.64252 3.70517,3.61826 2.02165,-0.0238 3.64137,-1.68158 3.6182,-3.7032 -0.0233,-2.02241 -1.68281,-3.64251 -3.70517,-3.61826 z m 6.3577,4.92833 c -0.20763,1.93249 -1.58828,3.96643 -3.49788,4.53971 l 3.60383,13.46778 c 8.55701,-2.951 12.87735,-8.37831 13.84363,-17.58938 z m -10.99164,3.24996 -11.65653,7.57369 c 5.57394,7.1318 12.38521,9.68909 21.40967,7.60678 l -4.2205,-13.30211 c -1.69014,0.3424 -4.37888,-0.54923 -5.53264,-1.87836 z"
       id="path4456" />
  </g>
</svg>
