<?xml version="1.0" encoding="utf-8"?><!DOCTYPE svg PUBLIC "-//W3C//DTD SVG 1.1//EN" "http://www.w3.org/Graphics/SVG/1.1/DTD/svg11.dtd"><svg width="182" height="176" viewBox="0 0 182 176" xmlns="http://www.w3.org/2000/svg" xmlns:xlink="http://www.w3.org/1999/xlink"><view id="envelope" viewBox="0 0 38 32"/><svg width="38" height="32" viewBox="0 0 38 32"><path d="M20.06.413c-.58-.533-1.54-.533-2.12 0L.254 11.083a.5.5 0 0 0-.242.43v18.92C.01 31.298.718 32 1.586 32h34.83c.868 0 1.574-.703 1.574-1.566V11.512a.5.5 0 0 0-.243-.428L20.06.414zm-1.556.827a.527.527 0 0 0 .095-.074.566.566 0 0 1 .8 0c.03.028.06.053.095.074l17.227 10.394-12.478 7.436a.5.5 0 0 0 .51.86L37 12.64v17.757L20.065 19.13c-.538-.428-1.594-.428-2.096-.024L1 30.392V12.64l12.244 7.29a.5.5 0 0 0 .512-.86l-12.48-7.436L18.505 1.24zM36.09 31H1.902l16.656-11.086c.173-.138.712-.137.92.025L36.09 31zM6.5 13h25a.5.5 0 0 0 0-1h-25a.5.5 0 0 0 0 1z"/></svg><view id="envelope2" viewBox="38 32 32 32"/><svg width="32" height="32" viewBox="0 0 32 32" x="38" y="32"><path d="M16.015 18.86l-4.072-3.342L3.08 25.98h25.877l-8.863-10.566-4.08 3.447zm13.91-12.84H2.112l13.91 11.697L29.925 6.02zm-9.22 8.867l9.29 11.084V7.02l-9.29 7.867zM2.005 7.02v18.95l9.29-11.083-9.29-7.868z"/></svg><view id="github" viewBox="70 64 16 16"/><svg width="16" height="16" viewBox="0 0 16 16" x="70" y="64"><path d="M8 .198a8 8 0 0 0-2.53 15.59c.4.075.548-.173.548-.384 0-.19-.008-.82-.01-1.49-2.227.485-2.696-.943-2.696-.943-.364-.924-.888-1.17-.888-1.17-.726-.497.055-.486.055-.486.802.056 1.225.824 1.225.824.714 1.223 1.872.87 2.328.665.072-.517.28-.87.508-1.07-1.776-.202-3.644-.888-3.644-3.954A3.1 3.1 0 0 1 3.72 5.63c-.083-.202-.357-1.015.077-2.117 0 0 .672-.215 2.2.82A7.672 7.672 0 0 1 8 4.065c.68.004 1.365.093 2.004.27 1.527-1.035 2.198-.82 2.198-.82.435 1.102.162 1.916.08 2.117a3.09 3.09 0 0 1 .822 2.147c0 3.072-1.872 3.748-3.653 3.946.288.248.544.735.544 1.48 0 1.07-.01 1.933-.01 2.196 0 .213.145.462.55.384A8 8 0 0 0 8 .196z"/></svg><view id="linkedin2" viewBox="86 80 16 16"/><svg width="16" height="16" viewBox="0 0 16 16" x="86" y="80"><path d="M6 6h2.767v1.418h.04C9.192 6.728 10.134 6 11.54 6 14.46 6 15 7.818 15 10.183V15h-2.885v-4.27c0-1.018-.02-2.33-1.5-2.33-1.502 0-1.732 1.11-1.732 2.256V15H6V6zM1 6h3v9H1V6zM4 3.5a1.5 1.5 0 1 1-3 0 1.5 1.5 0 0 1 3 0z"/></svg><view id="rss" viewBox="102 96 16 16"/><svg width="16" height="16" viewBox="0 0 16 16" x="102" y="96"><path d="M2.13 11.733C.955 11.733 0 12.69 0 13.86c0 1.173.955 2.12 2.13 2.12 1.18 0 2.133-.947 2.133-2.12a2.133 2.133 0 0 0-2.133-2.127zM.002 5.436v3.067c1.997 0 3.874.78 5.288 2.196A7.45 7.45 0 0 1 7.482 16h3.08c0-5.824-4.74-10.563-10.56-10.563zM.006 0v3.068C7.128 3.068 12.924 8.87 12.924 16H16C16 7.18 8.824 0 .006 0z"/></svg><view id="stackoverflow" viewBox="118 112 16 16"/><svg width="16" height="16" viewBox="0 0 16 16" x="118" y="112"><path d="M16 10v6H0v-6h2v4h12v-4zM3 11h10v2H3zm.237-2.165l.433-1.953 9.763 2.164L13 11zM4.37 4.82l.845-1.812 9.063 4.226-.845 1.813zm11.126.828l-1.218 1.587-7.934-6.088L7.224 0h.91z"/></svg><view id="twitch" viewBox="134 128 16 16"/><svg width="16" height="16" viewBox="0 0 16 16" x="134" y="128"><path d="M1.5 0L0 2.5V14h4v2h2l2-2h2.5L15 9.5V0H1.5zM13 8.5L10.5 11H8l-2 2v-2H3V2h10v6.5z"/><path d="M9.5 4H11v4H9.5V4zM6.5 4H8v4H6.5V4z"/></svg><view id="twitter" viewBox="150 144 16 16"/><svg width="16" height="16" viewBox="0 0 16 16" x="150" y="144"><path d="M16 3.538a6.46 6.46 0 0 1-1.884.516 3.3 3.3 0 0 0 1.444-1.816 6.607 6.607 0 0 1-2.084.797A3.28 3.28 0 0 0 11.08 2 3.28 3.28 0 0 0 7.88 6.03a9.32 9.32 0 0 1-6.766-3.432 3.284 3.284 0 0 0 1.015 4.38A3.3 3.3 0 0 1 .644 6.57v.04c0 1.592 1.13 2.92 2.634 3.22a3.29 3.29 0 0 1-1.485.057 3.293 3.293 0 0 0 3.066 2.28 6.586 6.586 0 0 1-4.862 1.36 9.286 9.286 0 0 0 5.034 1.475c6.037 0 9.34-5.003 9.34-9.34 0-.145-.002-.285-.008-.426A6.59 6.59 0 0 0 16 3.54z"/></svg><view id="youtube" viewBox="166 160 16 16"/><svg width="16" height="16" viewBox="0 0 16 16" x="166" y="160"><path d="M15.84 4.8s-.155-1.103-.636-1.587c-.61-.637-1.29-.64-1.603-.678-2.236-.163-5.596-.163-5.596-.163h-.006s-3.36 0-5.597.163c-.312.038-.993.04-1.602.678C.318 3.697.164 4.8.164 4.8s-.16 1.294-.16 2.59v1.214c0 1.294.16 2.59.16 2.59s.156 1.104.634 1.59c.61.636 1.41.615 1.766.683 1.28.122 5.44.16 5.44.16s3.364-.007 5.6-.167c.314-.037.995-.04 1.604-.678.48-.484.637-1.588.637-1.588s.16-1.294.16-2.59V7.39C16 6.096 15.84 4.8 15.84 4.8zm-9.493 5.275V5.578l4.322 2.256-4.323 2.24z"/></svg></svg>