<?xml version="1.0" encoding="UTF-8" standalone="no"?>
<svg
   xmlns:dc="http://purl.org/dc/elements/1.1/"
   xmlns:cc="http://creativecommons.org/ns#"
   xmlns:rdf="http://www.w3.org/1999/02/22-rdf-syntax-ns#"
   xmlns:svg="http://www.w3.org/2000/svg"
   xmlns="http://www.w3.org/2000/svg"
   version="1.1"
   id="svg8252"
   viewBox="0 0 557.8187 448.72222"
   height="126.63938mm"
   width="157.42883mm">
  <defs
     id="defs8254">
    <marker
       style="overflow:visible"
       id="Arrow2Lend"
       refX="0"
       refY="0"
       orient="auto">
      <path
         transform="matrix(-1.1,0,0,-1.1,-1.1,0)"
         d="M 8.7185878,4.0337352 -2.2072895,0.01601326 8.7185884,-4.0017078 c -1.7454984,2.3720609 -1.7354408,5.6174519 -6e-7,8.035443 z"
         style="fill:#000000;fill-opacity:1;fill-rule:evenodd;stroke:#000000;stroke-width:0.625;stroke-linejoin:round;stroke-opacity:1"
         id="path4256" />
    </marker>
    <marker
       style="overflow:visible"
       id="marker6660"
       refX="0"
       refY="0"
       orient="auto">
      <path
         transform="matrix(-1.1,0,0,-1.1,-1.1,0)"
         d="M 8.7185878,4.0337352 -2.2072895,0.01601326 8.7185884,-4.0017078 c -1.7454984,2.3720609 -1.7354408,5.6174519 -6e-7,8.035443 z"
         style="fill:#000000;fill-opacity:1;fill-rule:evenodd;stroke:#000000;stroke-width:0.625;stroke-linejoin:round;stroke-opacity:1"
         id="path6662" />
    </marker>
    <marker
       orient="auto"
       refY="0"
       refX="0"
       id="marker6318"
       style="overflow:visible">
      <path
         id="path6320"
         style="fill:#000000;fill-opacity:1;fill-rule:evenodd;stroke:#000000;stroke-width:0.625;stroke-linejoin:round;stroke-opacity:1"
         d="M 8.7185878,4.0337352 -2.2072895,0.01601326 8.7185884,-4.0017078 c -1.7454984,2.3720609 -1.7354408,5.6174519 -6e-7,8.035443 z"
         transform="matrix(-1.1,0,0,-1.1,-1.1,0)" />
    </marker>
  </defs>
  <metadata
     id="metadata8257">
    <rdf:RDF>
      <cc:Work
         rdf:about="">
        <dc:format>image/svg+xml</dc:format>
        <dc:type
           rdf:resource="http://purl.org/dc/dcmitype/StillImage" />
        <dc:title></dc:title>
      </cc:Work>
    </rdf:RDF>
  </metadata>
  <g
     transform="translate(-23.57143,-13.07649)"
     id="layer1">
    <rect
       y="225.93362"
       x="238.57143"
       height="202.85715"
       width="315.91733"
       id="rect5185"
       style="opacity:1;fill:#801919;fill-opacity:1;stroke:none;stroke-width:5.73799992;stroke-miterlimit:4;stroke-dasharray:none;stroke-opacity:1" />
    <rect
       y="165.93365"
       x="38.571426"
       height="261.42856"
       width="198.57144"
       id="rect5183"
       style="opacity:1;fill:#6968a8;fill-opacity:1;stroke:none;stroke-width:5.73799992;stroke-miterlimit:4;stroke-dasharray:none;stroke-opacity:1" />
    <rect
       y="30.219357"
       x="39.999996"
       height="135.71428"
       width="513.65192"
       id="rect5181"
       style="opacity:1;fill:#a0c8a0;fill-opacity:1;stroke:none;stroke-width:5.73799992;stroke-miterlimit:4;stroke-dasharray:none;stroke-opacity:1" />
    <g
       id="g8484">
      <path
         id="path3338"
         d="m 55.71428,13.07649 0,448.72222"
         style="fill:none;fill-rule:evenodd;stroke:#000000;stroke-width:1.07659709px;stroke-linecap:butt;stroke-linejoin:miter;stroke-opacity:1" />
      <path
         style="fill:none;fill-rule:evenodd;stroke:#000000;stroke-width:1.07659709px;stroke-linecap:butt;stroke-linejoin:miter;stroke-opacity:1"
         d="m 115.71428,13.07649 0,448.72222"
         id="path3340" />
      <path
         id="path3342"
         d="m 175.71428,13.07649 0,448.72222"
         style="fill:none;fill-rule:evenodd;stroke:#000000;stroke-width:1.07659709px;stroke-linecap:butt;stroke-linejoin:miter;stroke-opacity:1" />
      <path
         style="fill:none;fill-rule:evenodd;stroke:#000000;stroke-width:1.07659709px;stroke-linecap:butt;stroke-linejoin:miter;stroke-opacity:1"
         d="m 235.71428,13.07649 0,448.72222"
         id="path3344" />
      <path
         id="path3346"
         d="m 295.71428,13.07649 0,448.72222"
         style="fill:none;fill-rule:evenodd;stroke:#000000;stroke-width:1.07659709px;stroke-linecap:butt;stroke-linejoin:miter;stroke-opacity:1" />
      <path
         id="path3348"
         d="m 355.71428,13.07649 0,448.72222"
         style="fill:none;fill-rule:evenodd;stroke:#000000;stroke-width:1.07659709px;stroke-linecap:butt;stroke-linejoin:miter;stroke-opacity:1" />
      <path
         style="fill:none;fill-rule:evenodd;stroke:#000000;stroke-width:1.07659709px;stroke-linecap:butt;stroke-linejoin:miter;stroke-opacity:1"
         d="m 415.71428,13.07649 0,448.72222"
         id="path3350" />
      <path
         id="path3352"
         d="m 475.71428,13.07649 0,448.72222"
         style="fill:none;fill-rule:evenodd;stroke:#000000;stroke-width:1.07659709px;stroke-linecap:butt;stroke-linejoin:miter;stroke-opacity:1" />
      <path
         style="fill:none;fill-rule:evenodd;stroke:#000000;stroke-width:1.07659709px;stroke-linecap:butt;stroke-linejoin:miter;stroke-opacity:1"
         d="m 535.71428,13.07649 0,448.72222"
         id="path3354" />
      <path
         style="fill:none;fill-rule:evenodd;stroke:#000000;stroke-width:1.20035839px;stroke-linecap:butt;stroke-linejoin:miter;stroke-opacity:1"
         d="m 581.39012,45.219343 -557.81869,0"
         id="path3362" />
      <path
         id="path3364"
         d="m 581.39012,105.21934 -557.81869,0"
         style="fill:none;fill-rule:evenodd;stroke:#000000;stroke-width:1.20035839px;stroke-linecap:butt;stroke-linejoin:miter;stroke-opacity:1" />
      <path
         style="fill:none;fill-rule:evenodd;stroke:#000000;stroke-width:1.20035839px;stroke-linecap:butt;stroke-linejoin:miter;stroke-opacity:1"
         d="m 581.39012,165.21934 -557.81869,0"
         id="path3366" />
      <path
         id="path3368"
         d="m 581.39012,225.21934 -557.81869,0"
         style="fill:none;fill-rule:evenodd;stroke:#000000;stroke-width:1.20035839px;stroke-linecap:butt;stroke-linejoin:miter;stroke-opacity:1" />
      <path
         style="fill:none;fill-rule:evenodd;stroke:#000000;stroke-width:1.20035839px;stroke-linecap:butt;stroke-linejoin:miter;stroke-opacity:1"
         d="m 581.39012,285.21934 -557.81869,0"
         id="path3370" />
      <path
         style="fill:none;fill-rule:evenodd;stroke:#000000;stroke-width:1.20035839px;stroke-linecap:butt;stroke-linejoin:miter;stroke-opacity:1"
         d="m 581.39012,345.21934 -557.81869,0"
         id="path3372" />
      <path
         id="path3374"
         d="m 581.39012,405.21934 -557.81869,0"
         style="fill:none;fill-rule:evenodd;stroke:#000000;stroke-width:1.20035839px;stroke-linecap:butt;stroke-linejoin:miter;stroke-opacity:1" />
    </g>
    <circle
       r="22.857143"
       cy="137.36221"
       cx="264.28571"
       id="path3425"
       style="opacity:1;fill:#800042;fill-opacity:1;stroke:none;stroke-width:1;stroke-miterlimit:4;stroke-dasharray:none;stroke-opacity:1" />
    <rect
       y="168.08646"
       x="238.75919"
       height="52.139248"
       width="312.6817"
       id="rect5069"
       style="opacity:1;fill:#000000;fill-opacity:1;stroke:none;stroke-width:2;stroke-miterlimit:4;stroke-dasharray:none;stroke-opacity:1" />
    <g
       transform="translate(685.71428,190.71428)"
       id="g5187">
      <circle
         r="22.857143"
         cy="122.3622"
         cx="-302"
         id="circle3427"
         style="opacity:1;fill:#00ae78;fill-opacity:1;stroke:none;stroke-width:1;stroke-miterlimit:4;stroke-dasharray:none;stroke-opacity:1" />
      <circle
         cy="105.21936"
         cx="-310.00003"
         id="circle5157"
         style="opacity:1;fill:#ffffa0;fill-opacity:1;stroke:#000000;stroke-width:1;stroke-miterlimit:4;stroke-dasharray:none;stroke-opacity:1"
         r="12.857143" />
    </g>
    <g
       id="g5191"
       transform="translate(442.85714,193.57142)">
      <circle
         style="opacity:1;fill:#00ae78;fill-opacity:1;stroke:none;stroke-width:1;stroke-miterlimit:4;stroke-dasharray:none;stroke-opacity:1"
         id="circle5193"
         cx="-302"
         cy="122.3622"
         r="22.857143" />
      <circle
         r="12.857143"
         style="opacity:1;fill:#ffffa0;fill-opacity:1;stroke:#000000;stroke-width:1;stroke-miterlimit:4;stroke-dasharray:none;stroke-opacity:1"
         id="circle5195"
         cx="-292.85718"
         cy="102.36222" />
    </g>
    <g
       transform="translate(444.28571,-47.857147)"
       id="g5197">
      <circle
         r="22.857143"
         cy="122.3622"
         cx="-302"
         id="circle5199"
         style="opacity:1;fill:#00ae78;fill-opacity:1;stroke:none;stroke-width:1;stroke-miterlimit:4;stroke-dasharray:none;stroke-opacity:1" />
      <circle
         cy="122.36222"
         cx="-282.85718"
         id="circle5201"
         style="opacity:1;fill:#ffffa0;fill-opacity:1;stroke:#000000;stroke-width:1;stroke-miterlimit:4;stroke-dasharray:none;stroke-opacity:1"
         r="12.857143" />
    </g>
    <path
       style="fill:none;fill-rule:evenodd;stroke:#000000;stroke-width:2.57043076;stroke-linecap:butt;stroke-linejoin:miter;stroke-miterlimit:4;stroke-dasharray:none;stroke-opacity:1;marker-end:url(#marker6318)"
       d="M 147.74689,291.61804 230.63549,168.7609"
       id="path6316" />
    <path
       id="path6658"
       d="m 167.74689,71.618043 68.60288,48.571427"
       style="fill:none;fill-rule:evenodd;stroke:#000000;stroke-width:2.57043076;stroke-linecap:butt;stroke-linejoin:miter;stroke-miterlimit:4;stroke-dasharray:none;stroke-opacity:1;marker-end:url(#marker6660)" />
    <path
       id="path3429"
       d="M 374.88975,294.47518 330.63549,225.90375"
       style="fill:none;fill-rule:evenodd;stroke:#000000;stroke-width:2.57043076;stroke-linecap:butt;stroke-linejoin:miter;stroke-miterlimit:4;stroke-dasharray:none;stroke-opacity:1;marker-end:url(#Arrow2Lend)" />
    <g
       id="g8634">
      <rect
         style="opacity:1;fill:#ffffff;fill-opacity:0.51020406;stroke:none;stroke-width:5.73799992;stroke-miterlimit:4;stroke-dasharray:none;stroke-opacity:1"
         id="rect7401"
         width="202.85715"
         height="40"
         x="210.00003"
         y="38.790798" />
      <g
         style="font-style:normal;font-variant:normal;font-weight:normal;font-stretch:normal;font-size:40px;line-height:125%;font-family:Lekton;-inkscape-font-specification:Lekton;letter-spacing:0px;word-spacing:0px;fill:#000000;fill-opacity:1;stroke:none;stroke-width:1px;stroke-linecap:butt;stroke-linejoin:miter;stroke-opacity:1"
         id="text8540">
        <path
           d="m 257.46127,53.210937 0.05,1 q 2.425,-1.149999 4.025,-1.149999 1.6,0 2.5,1.1 0.925,1.099999 0.925,3 l 0,7.924999 -1.325,0 0,-7.924999 q 0,-1.225 -0.6,-2.025001 -0.6,-0.775 -1.8,-0.775 -1.2,0 -3.725,1.1 l 0,9.625 -1.325,0 0,-11.875 1.275,0 z"
           style="font-size:25px;fill:#000000"
           id="path8562" />
        <path
           d="m 268.26127,59.185938 q 0,-6.125 4.775,-6.125 4.775,0 4.775,6.125 0,6.124999 -4.775,6.124999 -4.775,0 -4.775,-6.124999 z m 4.775,-4.825001 q -3.35,0 -3.35,4.825001 0,4.824999 3.35,4.824999 3.35,0 3.35,-4.824999 0,-4.825001 -3.35,-4.825001 z"
           style="font-size:25px;fill:#000000"
           id="path8564" />
        <path
           d="m 281.31127,65.085937 0,-1.25 2.85,0 0,-9.375 -2.85,0 0,-1.25 4.175,0 0.05,1.450001 q 0.8,-0.5 2.25,-1 1.45,-0.5 2.55,-0.6 l 0.275,0 0,1.475 -0.275,0 q -1.025,0.075 -2.55,0.5 -1.5,0.424999 -2.25,0.875 l 0,7.924999 4,0 0,1.25 -8.225,0 z"
           style="font-size:25px;fill:#000000"
           id="path8566" />
        <path
           d="m 293.91127,53.210937 0.075,0.75 q 1.25,-0.899999 1.925,-0.899999 1.65,0 2.275,1.074999 1.4,-1.074999 2.45,-1.074999 1.625,0 2.225,1 0.6,1 0.6,3.074999 l 0,7.95 -1.325,0 0,-7.95 q 0,-1.425 -0.3,-2.099999 -0.3,-0.700001 -1.15,-0.700001 -0.85,0 -2.1,0.8 0.15,0.85 0.15,2 l 0,4.150001 -1.325,0 0,-4.150001 q 0,-1.425 -0.3,-2.099999 -0.325,-0.700001 -1.175,-0.700001 -0.85,0 -1.95,0.8 l 0,9.95 -1.325,0 0,-11.875 1.25,0 z"
           style="font-size:25px;fill:#000000"
           id="path8568" />
        <path
           d="m 309.73627,64.010937 q 0.925,0 2,-0.574999 1.1,-0.600001 1.6,-1.100001 l 0,-2.975 q -1.65,-0.125 -3.15,-0.125 -1.5,0 -2.25,0.65 -0.75,0.625 -0.75,1.7 0,2.425 2.55,2.425 z m -0.025,1.3 q -1.825,0 -2.875,-0.925 -1.05,-0.949999 -1.05,-2.675 0,-1.725 1.15,-2.674999 1.15,-0.975 3.05,-0.975 1.9,0 3.35,0.149999 0,-2.225 -0.55,-3.024999 -0.55,-0.825001 -2.225,-0.825001 -1.675,0 -3.95,0.800001 l -0.375,-1.25 q 2.325,-0.85 4.2,-0.85 2.475,0 3.35,1.1 0.875,1.099999 0.875,3.849999 l 0,5.25 0.2,1.900001 -1.275,0.125 -0.25,-1.5 q -0.575,0.5 -1.625,1.024999 -1.05,0.5 -2,0.5 z"
           style="font-size:25px;fill:#000000"
           id="path8570" />
        <path
           d="m 319.16127,65.085937 0,-1.25 3.825,0 0,-14.149999 -3.725,0.025 -0.025,-1.225 5.075,-0.025 0,15.375 3.95,0 0,1.25 -9.1,0 z"
           style="font-size:25px;fill:#000000"
           id="path8572" />
        <path
           d="m 343.18627,54.785938 0,-1.25 2.425,0 0,-3.025001 1.325,-0.25 0,3.275001 5.725,0 0,1.25 -5.725,0 0,5.699999 q 0,1.9 0.55,2.75 0.575,0.825 2.025,0.825 0.55,0 1.7,-0.175 1.15,-0.199999 1.575,-0.349999 l 0.3,1.224999 q -0.475,0.175 -1.75,0.375 -1.25,0.2 -1.825,0.2 -2.25,0 -3.075,-1.174999 -0.825,-1.200001 -0.825,-3.625 l 0,-5.75 -2.425,0 z"
           style="font-size:25px;fill:#000000"
           id="path8574" />
        <path
           d="m 357.56127,55.385937 0,9.7 -1.325,0 0,-16.6 1.325,0 0,5.625 q 2.35,-1.049999 3.875,-1.049999 3.575,0 3.575,4.1 l 0,7.924999 -1.325,0 0,-7.924999 q 0,-1.275001 -0.55,-2.025001 -0.55,-0.775 -1.9,-0.775 -1.35,0 -3.675,1.025 z"
           style="font-size:25px;fill:#000000"
           id="path8576" />
        <path
           d="m 368.81127,65.085937 0,-1.25 2.85,0 0,-9.375 -2.85,0 0,-1.25 4.175,0 0.05,1.450001 q 0.8,-0.5 2.25,-1 1.45,-0.5 2.55,-0.6 l 0.275,0 0,1.475 -0.275,0 q -1.025,0.075 -2.55,0.5 -1.5,0.424999 -2.25,0.875 l 0,7.924999 4,0 0,1.25 -8.225,0 z"
           style="font-size:25px;fill:#000000"
           id="path8578" />
        <path
           d="m 380.76127,59.185938 q 0,-6.125 4.775,-6.125 4.775,0 4.775,6.125 0,6.124999 -4.775,6.124999 -4.775,0 -4.775,-6.124999 z m 4.775,-4.825001 q -3.35,0 -3.35,4.825001 0,4.824999 3.35,4.824999 3.35,0 3.35,-4.824999 0,-4.825001 -3.35,-4.825001 z"
           style="font-size:25px;fill:#000000"
           id="path8580" />
        <path
           d="m 402.11127,53.210937 1.3,0 -1.425,11.875 -2.65,0 -1.275,-5.174999 -0.1,0 -1.3,5.174999 -2.625,0 -1.375,-11.875 1.3,0 1.3,10.675 0.45,0 1.675,-6.025 1.3,0 1.675,6.025 0.45,0 1.3,-10.675 z"
           style="font-size:25px;fill:#000000"
           id="path8582" />
      </g>
      <path
         style="fill:none;fill-rule:evenodd;stroke:#00af22;stroke-width:8.09200001;stroke-linecap:butt;stroke-linejoin:miter;stroke-miterlimit:4;stroke-dasharray:none;stroke-opacity:1"
         d="m 217.47408,59.386693 8.53572,9.10476 c 0,0 8.53571,-15.93333 14.79523,-22.19285"
         id="path5138" />
    </g>
    <g
       id="g8605">
      <rect
         y="358.7908"
         x="301.42862"
         height="40"
         width="192.85715"
         id="rect7389"
         style="opacity:1;fill:#ffffff;fill-opacity:0.51020406;stroke:none;stroke-width:5.73799992;stroke-miterlimit:4;stroke-dasharray:none;stroke-opacity:1" />
      <g
         transform="translate(284.28572,6.4285729)"
         style="font-style:normal;font-variant:normal;font-weight:normal;font-stretch:normal;font-size:40px;line-height:125%;font-family:Lekton;-inkscape-font-specification:Lekton;letter-spacing:0px;word-spacing:0px;fill:#000000;fill-opacity:1;stroke:none;stroke-width:1px;stroke-linecap:butt;stroke-linejoin:miter;stroke-opacity:1"
         id="flowRoot7391">
        <path
           d="m 67.789844,380.08594 0,-1.25 3.65,0 0,-9.375 -3.65,0 0,-1.25 4.975,0 0,10.625 3.65,0 0,1.25 -8.625,0 z m 3.125,-15.4 q 0,-0.5 0.275,-0.775 0.3,-0.275 0.8,-0.275 1.025,0 1.025,1.1 0,1.1 -1.025,1.075 -1.075,0 -1.075,-1.125 z"
           style="font-size:25px;fill:#000000"
           id="path8585" />
        <path
           d="m 80.339844,368.21094 0.075,0.75 q 1.25,-0.9 1.925,-0.9 1.65,0 2.275,1.075 1.4,-1.075 2.45,-1.075 1.625,0 2.225,1 0.6,1 0.6,3.075 l 0,7.95 -1.325,0 0,-7.95 q 0,-1.425 -0.3,-2.1 -0.3,-0.7 -1.15,-0.7 -0.85,0 -2.1,0.8 0.15,0.85 0.15,2 l 0,4.15 -1.325,0 0,-4.15 q 0,-1.425 -0.3,-2.1 -0.325,-0.7 -1.175,-0.7 -0.85,0 -1.95,0.8 l 0,9.95 -1.325,0 0,-11.875 1.25,0 z"
           style="font-size:25px;fill:#000000"
           id="path8587" />
        <path
           d="m 92.639844,384.88594 0,-14.525 -0.225,-2.175 1.25,-0.15 0.225,1.35 q 1.825,-1.325 3.475,-1.325 2.225,0 3.449996,1.625 1.225,1.625 1.225,4.475 0,2.85 -1.35,4.5 -1.349996,1.65 -3.749996,1.65 -1.4,0 -2.975,-0.675 l 0,5.25 -1.325,0 z m 7.974996,-10.675 q 0,-2.225 -0.849996,-3.525 -0.85,-1.325 -2.45,-1.325 -1.575,0 -3.35,1.425 l 0,7.5 q 0.525,0.25 1.425,0.5 0.925,0.225 1.5,0.225 1.775,0 2.75,-1.3 0.974996,-1.3 0.974996,-3.5 z"
           style="font-size:25px;fill:#000000"
           id="path8589" />
        <path
           d="m 104.68984,374.18594 q 0,-6.125 4.775,-6.125 4.775,0 4.775,6.125 0,6.125 -4.775,6.125 -4.775,0 -4.775,-6.125 z m 4.775,-4.825 q -3.35,0 -3.35,4.825 0,4.825 3.35,4.825 3.35,0 3.35,-4.825 0,-4.825 -3.35,-4.825 z"
           style="font-size:25px;fill:#000000"
           id="path8591" />
        <path
           d="m 117.66484,379.51094 0.325,-1.3 q 2.475,0.825 3.825,0.825 1.35,0 2.075,-0.575 0.75,-0.6 0.75,-1.575 0,-0.975 -0.6,-1.425 -0.575,-0.475 -2.425,-0.9 -1.85,-0.425 -2.775,-1.225 -0.925,-0.75 -0.925,-2.25 0,-1.5 1.125,-2.275 1.15,-0.8 2.95,-0.8 1.8,0 3.9,0.8 l -0.35,1.175 q -2.125,-0.7 -3.425,-0.7 -1.3,0 -2.05,0.45 -0.75,0.5 -0.75,1.35 0,0.85 0.65,1.325 0.675,0.475 2.575,0.95 1.9,0.475 2.7,1.225 0.8,0.725 0.8,2.3 0,1.575 -1.075,2.5 -1.05,0.925 -3,0.925 -1.95,0 -4.3,-0.8 z"
           style="font-size:25px;fill:#000000"
           id="path8593" />
        <path
           d="m 130.16484,379.51094 0.325,-1.3 q 2.475,0.825 3.825,0.825 1.35,0 2.075,-0.575 0.75,-0.6 0.75,-1.575 0,-0.975 -0.6,-1.425 -0.575,-0.475 -2.425,-0.9 -1.85,-0.425 -2.775,-1.225 -0.925,-0.75 -0.925,-2.25 0,-1.5 1.125,-2.275 1.15,-0.8 2.95,-0.8 1.8,0 3.9,0.8 l -0.35,1.175 q -2.125,-0.7 -3.425,-0.7 -1.3,0 -2.05,0.45 -0.75,0.5 -0.75,1.35 0,0.85 0.65,1.325 0.675,0.475 2.575,0.95 1.9,0.475 2.7,1.225 0.8,0.725 0.8,2.3 0,1.575 -1.075,2.5 -1.05,0.925 -3,0.925 -1.95,0 -4.3,-0.8 z"
           style="font-size:25px;fill:#000000"
           id="path8595" />
        <path
           d="m 142.78984,380.08594 0,-1.25 3.65,0 0,-9.375 -3.65,0 0,-1.25 4.975,0 0,10.625 3.65,0 0,1.25 -8.625,0 z m 3.125,-15.4 q 0,-0.5 0.275,-0.775 0.3,-0.275 0.8,-0.275 1.025,0 1.025,1.1 0,1.1 -1.025,1.075 -1.075,0 -1.075,-1.125 z"
           style="font-size:25px;fill:#000000"
           id="path8597" />
        <path
           d="m 155.13984,380.08594 0,-16.6 1.325,0 0,5.875 q 1.875,-1.3 3.4,-1.3 2.25,0 3.475,1.55 1.225,1.525 1.225,4.375 0,2.85 -1.375,4.6 -1.375,1.725 -3.75,1.725 -1.45,0 -3,-0.725 l -0.05,0.5 -1.25,0 z m 8,-6.075 q 0,-2.2 -0.875,-3.425 -0.85,-1.225 -2.475,-1.225 -1.625,0 -3.325,1.425 l 0,7.5 q 0.525,0.25 1.425,0.5 0.925,0.225 1.5,0.225 1.75,0 2.75,-1.4 1,-1.4 1,-3.6 z"
           style="font-size:25px;fill:#000000"
           id="path8599" />
        <path
           d="m 168.08984,380.08594 0,-1.25 3.825,0 0,-14.15 -3.725,0.025 -0.025,-1.225 5.075,-0.025 0,15.375 3.95,0 0,1.25 -9.1,0 z"
           style="font-size:25px;fill:#000000"
           id="path8601" />
        <path
           d="m 179.88984,374.16094 q 0,-2.875 1.175,-4.475 1.2,-1.625 3.475,-1.625 2.275,0 3.375,1.5 1.125,1.5 1.125,4 l -0.075,1.25 -7.65,0 q 0.125,1.875 1,3.05 0.875,1.15 2.4,1.15 1.55,0 3.625,-0.725 l 0.375,1.25 q -2.025,0.775 -3.8,0.775 -2.45,0 -3.75,-1.625 -1.275,-1.65 -1.275,-4.525 z m 4.75,-4.825 q -3.15,0 -3.325,4.225 l 6.3,0 q 0,-4.225 -2.975,-4.225 z"
           style="font-size:25px;fill:#000000"
           id="path8603" />
      </g>
      <g
         id="g5150"
         transform="translate(447.14286,60.714283)">
        <path
           id="path5140"
           d="m -135.06398,307.05012 c 11.20212,2.96877 21.03667,10.36484 24.83244,18.16778"
           style="fill:none;fill-rule:evenodd;stroke:#b21300;stroke-width:5.73799992;stroke-linecap:butt;stroke-linejoin:miter;stroke-miterlimit:4;stroke-dasharray:none;stroke-opacity:1" />
        <path
           id="path5142"
           d="m -133.92051,326.97263 c 7.47709,-9.92912 15.44138,-17.66583 24.56634,-20.17949"
           style="fill:none;fill-rule:evenodd;stroke:#b21300;stroke-width:5.73799992;stroke-linecap:butt;stroke-linejoin:miter;stroke-miterlimit:4;stroke-dasharray:none;stroke-opacity:1" />
      </g>
    </g>
    <g
       id="g8622">
      <rect
         style="opacity:1;fill:#ffffff;fill-opacity:0.51020406;stroke:none;stroke-width:5.73799992;stroke-miterlimit:4;stroke-dasharray:none;stroke-opacity:1"
         id="rect7366"
         width="167.14285"
         height="40"
         x="62.857151"
         y="357.36221" />
      <g
         transform="translate(38,3.5714329)"
         style="font-style:normal;font-variant:normal;font-weight:normal;font-stretch:normal;font-size:40px;line-height:125%;font-family:Lekton;-inkscape-font-specification:Lekton;letter-spacing:0px;word-spacing:0px;fill:#000000;fill-opacity:1;stroke:none;stroke-width:1px;stroke-linecap:butt;stroke-linejoin:miter;stroke-opacity:1"
         id="flowRoot7358">
        <path
           d="m 68.464844,374.76094 0,-1.35 7.175,0 0,1.35 -7.175,0 z"
           style="font-size:25px;fill:#000000"
           id="path8547" />
        <path
           d="m 89.564844,380.08594 -9.375,0 0,-1.275 4.275,0 0,-13 -4.125,1.9 -0.575,-1.325 4.85,-2.175 1.325,0 0,14.6 3.625,0 0,1.275 z"
           style="font-size:25px;fill:#000000"
           id="path8549" />
        <path
           d="m 104.61484,369.78594 0,-1.25 2.425,0 0,-3.025 1.325,-0.25 0,3.275 5.725,0 0,1.25 -5.725,0 0,5.7 q 0,1.9 0.55,2.75 0.575,0.825 2.025,0.825 0.55,0 1.7,-0.175 1.15,-0.2 1.575,-0.35 l 0.3,1.225 q -0.475,0.175 -1.75,0.375 -1.25,0.2 -1.825,0.2 -2.25,0 -3.075,-1.175 -0.825,-1.2 -0.825,-3.625 l 0,-5.75 -2.425,0 z"
           style="font-size:25px;fill:#000000"
           id="path8551" />
        <path
           d="m 117.18984,374.18594 q 0,-6.125 4.775,-6.125 4.775,0 4.775,6.125 0,6.125 -4.775,6.125 -4.775,0 -4.775,-6.125 z m 4.775,-4.825 q -3.35,0 -3.35,4.825 0,4.825 3.35,4.825 3.35,0 3.35,-4.825 0,-4.825 -3.35,-4.825 z"
           style="font-size:25px;fill:#000000"
           id="path8553" />
        <path
           d="m 143.98984,370.38594 0,9.7 -1.325,0 0,-16.6 1.325,0 0,5.625 q 2.35,-1.05 3.875,-1.05 3.575,0 3.575,4.1 l 0,7.925 -1.325,0 0,-7.925 q 0,-1.275 -0.55,-2.025 -0.55,-0.775 -1.9,-0.775 -1.35,0 -3.675,1.025 z"
           style="font-size:25px;fill:#000000"
           id="path8555" />
        <path
           d="m 155.28984,380.08594 0,-1.25 3.65,0 0,-9.375 -3.65,0 0,-1.25 4.975,0 0,10.625 3.65,0 0,1.25 -8.625,0 z m 3.125,-15.4 q 0,-0.5 0.275,-0.775 0.3,-0.275 0.8,-0.275 1.025,0 1.025,1.1 0,1.1 -1.025,1.075 -1.075,0 -1.075,-1.125 z"
           style="font-size:25px;fill:#000000"
           id="path8557" />
        <path
           d="m 167.11484,369.78594 0,-1.25 2.425,0 0,-3.025 1.325,-0.25 0,3.275 5.725,0 0,1.25 -5.725,0 0,5.7 q 0,1.9 0.55,2.75 0.575,0.825 2.025,0.825 0.55,0 1.7,-0.175 1.15,-0.2 1.575,-0.35 l 0.3,1.225 q -0.475,0.175 -1.75,0.375 -1.25,0.2 -1.825,0.2 -2.25,0 -3.075,-1.175 -0.825,-1.2 -0.825,-3.625 l 0,-5.75 -2.425,0 z"
           style="font-size:25px;fill:#000000"
           id="path8559" />
      </g>
      <path
         id="path7433"
         d="m 74.331223,377.95812 8.53572,9.10476 c 0,0 8.53571,-15.93333 14.79523,-22.19285"
         style="fill:none;fill-rule:evenodd;stroke:#00af22;stroke-width:8.09200001;stroke-linecap:butt;stroke-linejoin:miter;stroke-miterlimit:4;stroke-dasharray:none;stroke-opacity:1" />
    </g>
  </g>
</svg>
